<?xml version="1.0" encoding="UTF-8"?>
<svg width="3px" height="12px" viewBox="0 0 3 12" version="1.1" xmlns="http://www.w3.org/2000/svg" xmlns:xlink="http://www.w3.org/1999/xlink">
    <title>3dots</title>
    <g id="3dots" stroke="none" stroke-width="1" fill="none" fill-rule="evenodd">
        <path d="M1.5,9 C2.32842712,9 3,9.67157288 3,10.5 C3,11.3284271 2.32842712,12 1.5,12 C0.671572875,12 0,11.3284271 0,10.5 C0,9.67157288 0.671572875,9 1.5,9 L1.5,9 Z M1.5,4.5 C2.32842712,4.5 3,5.17157288 3,6 C3,6.82842712 2.32842712,7.5 1.5,7.5 C0.671572875,7.5 0,6.82842712 0,6 C0,5.17157288 0.671572875,4.5 1.5,4.5 L1.5,4.5 Z M1.5,0 C2.32842712,0 3,0.671572875 3,1.5 C3,2.32842712 2.32842712,3 1.5,3 C0.671572875,3 0,2.32842712 0,1.5 C0,0.671572875 0.671572875,0 1.5,0 Z" id="Shape-Copy-48" fill="#000000"></path>
    </g>
</svg>