<?xml version="1.0" encoding="UTF-8"?>
<svg width="11px" height="13px" viewBox="0 0 11 13" version="1.1" xmlns="http://www.w3.org/2000/svg" xmlns:xlink="http://www.w3.org/1999/xlink">
    <title>admin</title>
    <g id="admin" stroke="none" stroke-width="1" fill="none" fill-rule="evenodd">
        <path d="M10.2068264,1.83539526 C8.66157313,1.77559624 7.17746338,1.19735389 6.03861111,0.20052551 C5.73083852,-0.0634239662 5.2564172,-0.0702380002 4.94086006,0.20052551 C3.78182027,1.21725486 2.29756528,1.79548652 0.792977541,1.83539526 C0.345656877,1.85528163 0,2.19418228 0,2.63278677 L0,8.63369364 C0,8.75356937 0.0202815625,8.85314185 0.0609873798,8.95284961 C0.914817959,10.8269226 2.561735,12.2224467 4.59519229,12.7806706 C5.65467419,13.063809 5.33283569,13.0891213 6.40480771,12.7605058 C8.43808345,12.2221829 10.0850368,10.8266588 10.9390126,8.93268484 C10.9797181,8.83297352 11,8.71337547 11,8.61366771 L11,2.63305342 C11,2.19444893 10.6543613,1.85552728 10.2070225,1.83551951 L10.2068264,1.83539526 Z M10.1865448,8.61382827 C9.43426911,10.2884644 7.97031058,11.5246384 6.18099161,12.0030092 L5.51001062,12.202293 L4.83902962,12.0228959 C3.04971065,11.5244817 1.58571581,10.2885925 0.8334764,8.633715 L0.8334764,2.63280813 C2.5618334,2.59289583 4.20875045,1.93495706 5.51001062,0.798643901 C6.81130709,1.93509946 8.45822414,2.57299842 10.1865448,2.63280813 L10.1865448,8.61382827 Z M6.26232264,5.62334312 L7.94994151,5.86253921 L6.73004868,7.0387611 L7.01470002,8.69363862 L5.51003966,7.89624712 L4.0053793,8.67363085 L4.29003064,7.01889574 L3.06999258,5.84267385 L4.75761145,5.60347775 L5.50988717,4.10823518 L6.26232264,5.62334312 Z" id="Shape" fill="#000000" fill-rule="nonzero"></path>
    </g>
</svg>