<?xml version="1.0" encoding="UTF-8"?>
<svg width="13px" height="13px" viewBox="0 0 13 13" version="1.1" xmlns="http://www.w3.org/2000/svg" xmlns:xlink="http://www.w3.org/1999/xlink">
    <title>datasets</title>
    <g id="datasets" stroke="none" stroke-width="1" fill="none" fill-rule="evenodd">
        <path d="M7.32747196e-15,13 L7.32747196e-15,0 L13,-1.88737914e-15 L13,1.04 L12.999,1.039 L12.999,3.639 L13,3.64 L13,4.68 L12.999,4.679 L12.999,7.8 L13,7.8 L13,8.84 L12.999,8.84 L12.999,11.96 L13,11.96 L13,13 L7.32747196e-15,13 Z M11.959,11.96 L11.959,8.84 L8.84,8.84 L8.84,11.96 L11.959,11.96 Z M7.8,8.84 L4.94,8.84 L4.94,11.96 L7.8,11.96 L7.8,8.84 Z M3.9,8.84 L1.04,8.84 L1.04,11.96 L3.9,11.96 L3.9,8.84 Z M11.959,7.8 L11.959,4.679 L8.84,4.679 L8.84,7.8 L11.959,7.8 Z M7.8,4.679 L4.94,4.679 L4.94,7.8 L7.8,7.8 L7.8,4.679 Z M3.9,4.679 L1.04,4.679 L1.04,7.8 L3.9,7.8 L3.9,4.679 Z M11.959,3.639 L11.959,1.039 L1.04,1.039 L1.04,3.639 L11.959,3.639 Z" id="Combined-Shape-Copy-2" fill="#000000"></path>
    </g>
</svg>