<?xml version="1.0" encoding="UTF-8"?>
<svg width="11px" height="13px" viewBox="0 0 11 13" version="1.1" xmlns="http://www.w3.org/2000/svg" xmlns:xlink="http://www.w3.org/1999/xlink">
    <title>report</title>
    <g id="report" stroke="none" stroke-width="1" fill="none" fill-rule="evenodd">
        <path d="M11,1.69565217 L10.999,12.095 L11,12.0956522 L11,13 L10.999,12.999 L11,13 L10.0736842,13 L10.073,12.999 L1.73684211,13 L1.73684211,12.0956522 L10.073,12.095 L10.0736842,1.69565217 L11,1.69565217 Z M9.26315789,-1.60982339e-15 L9.26315789,11.3043478 L6.55031585e-15,11.3043478 L6.55031585e-15,0 L9.26315789,-1.60982339e-15 Z M8.336,0.904 L0.926,0.904 L0.926,10.4 L8.336,10.4 L8.336,0.904 Z M6.94736842,5.08695652 L6.94736842,5.99130435 L2.31578947,5.99130435 L2.31578947,5.08695652 L6.94736842,5.08695652 Z M6.94736842,3.39130435 L6.94736842,4.29565217 L2.31578947,4.29565217 L2.31578947,3.39130435 L6.94736842,3.39130435 Z" id="ico_report_builder" fill="#000000"></path>
    </g>
</svg>