<?xml version="1.0" encoding="UTF-8"?>
<svg width="10px" height="11px" viewBox="0 0 10 11" version="1.1" xmlns="http://www.w3.org/2000/svg" xmlns:xlink="http://www.w3.org/1999/xlink">
    <title>Artboard</title>
    <g id="Artboard" stroke="none" stroke-width="1" fill="none" fill-rule="evenodd">
        <path d="M6.62152083,7.9224707 L3.66645833,6.36203906 C3.71552083,6.18958398 3.75,6.01085547 3.75,5.82226563 C3.75,5.56647266 3.69914583,5.32329102 3.61129167,5.09961719 L6.70389583,3.18046094 C7.0480625,3.597 7.5539375,3.8671875 8.125,3.8671875 C9.1589375,3.8671875 10,2.9998418 10,1.93359375 C10,0.867345703 9.1589375,0 8.125,0 C7.0910625,0 6.25,0.867345703 6.25,1.93359375 C6.25,2.17931055 6.2990625,2.41239453 6.38045833,2.62878516 L3.27864583,4.55357031 C2.93477083,4.14940625 2.4361875,3.88867188 1.875,3.88867188 C0.8410625,3.88867188 0,4.75601758 0,5.82226563 C0,6.88851367 0.8410625,7.75585938 1.875,7.75585938 C2.50270833,7.75585938 3.0560625,7.43340039 3.3965625,6.94362109 L6.34189583,8.49898242 C6.28764583,8.67958008 6.25,8.86767578 6.25,9.06640625 C6.25,10.1326543 7.0910625,11 8.125,11 C9.1589375,11 10,10.1326543 10,9.06640625 C10,8.0001582 9.1589375,7.1328125 8.125,7.1328125 C7.50747917,7.1328125 6.9633125,7.44607617 6.62152083,7.9224707 Z" id="Fill-1-Copy-2" fill="#000000"></path>
    </g>
</svg>