<?xml version="1.0" encoding="UTF-8"?>
<svg width="13px" height="13px" viewBox="0 0 13 13" version="1.1" xmlns="http://www.w3.org/2000/svg" xmlns:xlink="http://www.w3.org/1999/xlink">
    <title>user</title>
    <g id="user" stroke="none" stroke-width="1" fill="none" fill-rule="evenodd">
        <path d="M1.365,11.7 L11.6358125,11.7 C11.3335625,10.218 10.01975,9.0991875 8.4508125,9.0991875 L4.55,9.0991875 C2.98025,9.0991875 1.66725,10.218 1.365,11.7 L1.365,11.7 Z M13,13 L0,13 L0,12.35 C0,9.841 2.041,7.8 4.55,7.8 L8.4508125,7.8 C10.9598125,7.8 13,9.841 13,12.35 L13,13 Z M6.5,1.2991875 C5.4250625,1.2991875 4.55,2.17425 4.55,3.25 C4.55,4.3249375 5.4250625,5.2 6.5,5.2 C7.57575,5.2 8.4508125,4.3249375 8.4508125,3.25 C8.4508125,2.17425 7.57575,1.2991875 6.5,1.2991875 L6.5,1.2991875 Z M6.5,6.5 C4.707625,6.5 3.25,5.0415625 3.25,3.25 C3.25,1.457625 4.707625,0 6.5,0 C8.292375,0 9.75,1.457625 9.75,3.25 C9.75,5.0415625 8.292375,6.5 6.5,6.5 L6.5,6.5 Z" id="Fill-1" fill="#000000"></path>
    </g>
</svg>