<?xml version="1.0" encoding="UTF-8"?>
<svg width="12px" height="12px" viewBox="0 0 12 12" version="1.1" xmlns="http://www.w3.org/2000/svg" xmlns:xlink="http://www.w3.org/1999/xlink">
    <title>x</title>
    <g id="x" stroke="none" stroke-width="1" fill="none" fill-rule="evenodd">
        <path d="M7.60512446,5.77069651 L11.8574556,1.51836536 C12.0475148,1.32830617 12.0475148,1.02018973 11.8574556,0.830130544 L11.1698695,0.142544393 C10.9798103,-0.0475147977 10.6716938,-0.0475147977 10.4816346,0.142544393 L6.22930349,4.39487554 C6.10281359,4.52136544 5.89718641,4.52136544 5.77069651,4.39487554 L1.51836536,0.142544393 C1.32830617,-0.0475147977 1.02018973,-0.0475147977 0.830130544,0.142544393 L0.142544393,0.830130544 C-0.0475147977,1.02018973 -0.0475147977,1.32830617 0.142544393,1.51836536 L4.39487554,5.77069651 C4.52136544,5.89718641 4.52136544,6.10281359 4.39487554,6.22930349 L0.142544393,10.4816346 C-0.0475147977,10.6716938 -0.0475147977,10.9798103 0.142544393,11.1698695 L0.830130544,11.8574556 C1.02018973,12.0475148 1.32830617,12.0475148 1.51836536,11.8574556 L5.77069651,7.60512446 C5.89718641,7.47863456 6.10281359,7.47863456 6.22930349,7.60512446 L10.4816346,11.8574556 C10.6716938,12.0475148 10.9798103,12.0475148 11.1698695,11.8574556 L11.8574556,11.1698695 C12.0475148,10.9798103 12.0475148,10.6716938 11.8574556,10.4816346 L7.60512446,6.22930349 C7.47863456,6.10281359 7.47863456,5.89718641 7.60512446,5.77069651" id="Imported-Layers-Copy" fill="#000000"></path>
    </g>
</svg>