<?xml version="1.0" encoding="utf-8"?>
<!-- Generator: Adobe Illustrator 24.1.1, SVG Export Plug-In . SVG Version: 6.00 Build 0)  -->
<svg version="1.1" id="Capa_1" xmlns="http://www.w3.org/2000/svg" xmlns:xlink="http://www.w3.org/1999/xlink" x="0px" y="0px"
	 viewBox="0 0 665.64 102.65" style="enable-background:new 0 0 665.64 102.65;" xml:space="preserve">
<style type="text/css">
	.st0{fill:#BE1E2D;}
	.st1{fill:none;}
	.st2{fill:#22B573;}
	.st3{fill:#808080;}
	.st4{fill:#254083;}
</style>
<g>
	<g>
		<path class="st0" d="M94.96,19.43c3.43,0,97.02,0,97.02,0s-2.29-3.95-8.18-9.06c-5.89-5.11-10.33-6.8-22.42-8.82
			c-13.11-2.19-57.28-1.61-63.66-0.93c-5.38,0.58-6.8,2.18-7.43,3.11c-1.18,1.73-1.14,3.5-0.84,5.94c0.22,1.79,0.67,3.7,1.07,5.39
			C91.53,19.27,93.8,19.43,94.96,19.43L94.96,19.43z"/>
		<path class="st0" d="M199.74,22.27c1.91,0,9.56-1.72,11.28-3.82c1.72-2.1-1.34-4.4-3.63-5.55c-2.29-1.15-6.18-3.25-9.59-1.53
			c0,0-0.54,0-1.12,2.68C196.1,16.72,197.82,22.27,199.74,22.27L199.74,22.27z"/>
		<path class="st0" d="M45.06,28.9c3.38,1.47,31.77-9.24,31.77-9.24s3.47-1,5.54-5.74c1.57-3.59,3.81-8.4,2.05-10.42
			C84.06,3.1,83,2.03,79.83,3.19c-5.11,1.86-15.6,5.9-26.2,14.54C46.57,23.48,41.68,27.43,45.06,28.9L45.06,28.9z"/>
		<path class="st0" d="M39.37,26c0.08,1.13,5.11-8.48,19.32-16.87c2.01-1.19-5.04-0.18-11.71,1.58c-3.41,0.9-10.52,2.41-11.21,4.81
			c-0.64,2.23,1.09,4.31,1.71,5.17C38.18,21.88,39.22,23.94,39.37,26L39.37,26z"/>
		<path class="st0" d="M89.7,84.77c0.61-0.72,1.18-1.76,1.68-3.09c11.78-0.08,68.94-0.71,105.79-1.13c0.95,2.28,2.05,3.95,3.26,4.84
			c-20.83-0.51-46.45-0.81-74.17-0.81C113.54,84.59,101.27,84.66,89.7,84.77L89.7,84.77z M50.2,78.82
			c4.65,0.24,9.36,0.38,13.49,0.46c0.95,2.66,2.09,4.68,3.36,5.81c-7.21,0.13-14,0.28-20.3,0.45C48.1,84.71,49.3,82.28,50.2,78.82
			L50.2,78.82z M23.52,63.88c0-9.4,1.92-17.01,4.29-17.01c2.37,0,4.28,7.61,4.28,17.01c0,9.39-1.92,17.01-4.28,17.01
			C25.43,80.89,23.52,73.27,23.52,63.88L23.52,63.88z M70.39,39.32c2.75,0,4.98,8.86,4.98,19.78c0,10.93-2.23,19.79-4.98,19.79
			c-2.75,0-4.98-8.86-4.98-19.79C65.41,48.18,67.64,39.32,70.39,39.32L70.39,39.32z M219.58,85.98c3.31-0.48,4.16-5.15,4.41-5.72
			c3.21-0.04,3.77,0.01,5.03,0c2.32-0.01,2.1-4.44,2.44-13.41c0.16-4.09,0.79-9.07,0.34-18.09c-0.54-10.73-8.14-21.22-14.29-21.35
			c-9.14-0.19-14.1,2.2-18,11.78c1.53-0.05,21.02,0.01,22.85,1.83c1.82,1.83,1.82,6.81,1.82,6.81s-20.52-0.54-26.8-0.12
			c-1.26,8.15-1.91,16.08-14.31,17.55c-19.57,2.32-38.78,1.49-45.11-9.28c-1.11-1.89-2.74-4.63-5.27-7.77
			c-10.76-0.11-29.51,0.28-30.52,0.28c-1.33,0-1.99-2.82-2.32-4.81c-0.54-3.24,1.16-2.77,24.12-4.09
			c-5.66-4.51-13.4-9.02-24.05-12.51c-25.85-8.47-32.14-2.99-35.99,5.48c-3.04,6.7-3.44,13.71-3.01,22.02c0.08,1.49-0.01,6.3,0,6.81
			c-5.79-0.33-15.61,0.49-16.13-10.27c-0.52-10.88,1.22-14.36,1.22-15.03c0-0.66-8.21-0.83-6.29-5.64
			c1.92-4.81-8.51,0.62-10.83,2.32c-1.38,0.46-3.23,2.13-3.84,4.82c-0.17,0.75-0.3,2.47-0.38,4.77c-2.77,2.1-4.86,10.93-4.86,21.51
			c0,7.54,1.06,14.19,2.67,18.15c0.47,1.16,1.8,3.56,2.96,4.26C9.47,87,0,87.89,0,88.85c0,2.35,56.53,4.25,126.26,4.25
			c69.73,0,126.26-1.91,126.26-4.25C252.51,87.74,240.04,86.74,219.58,85.98L219.58,85.98z"/>
	</g>
	<g>
		<path d="M287.47,91.8c-0.36,0.12-0.73,0.03-1.12-0.27c-0.39-0.3-0.85-0.51-1.39-0.63c-0.12,0-0.21,0.09-0.27,0.27
			c-0.06,0.18-0.15,0.18-0.27,0c0.12-0.3,0.09-0.66-0.09-1.07c-0.12,0.24-0.18,0.51-0.18,0.81c-0.3,0-0.57-0.18-0.81-0.54
			c0-0.12,0.01-0.22,0.04-0.31c0.03-0.09,0.19-0.1,0.49-0.04v-0.72c0.06,0.06,0.09,0.03,0.09-0.09c0-0.12,0.06-0.15,0.18-0.09
			c-0.06-0.06-0.07-0.15-0.05-0.27c0.03-0.12-0.01-0.21-0.13-0.27c-0.06,0.06-0.06,0.13,0,0.22c0.06,0.09,0.06,0.19,0,0.31
			c-0.06-0.12-0.18-0.25-0.36-0.4c-0.18-0.15-0.33-0.19-0.45-0.13v-1.34c-0.24-0.3-0.54-0.55-0.9-0.76
			c-0.36-0.21-0.39-0.64-0.09-1.3c0.24-0.06,0.48-0.21,0.72-0.45c0.24-0.24,0.33-0.54,0.27-0.9h0.72c0.66-0.84,1.3-1.64,1.93-2.42
			c0.63-0.78,1.3-1.58,2.02-2.42c-1.19,0-2.43,0.09-3.72,0.27c-1.28,0.18-2.34,0.09-3.18-0.27c-0.18,0.18-0.43,0.27-0.76,0.27
			c-0.33,0-0.61,0.15-0.85,0.45c-0.12-0.18-0.24-0.24-0.36-0.18c-0.12,0.06-0.24,0-0.36-0.18c0.12-0.48,0.34-0.73,0.67-0.76
			c0.33-0.03,0.61-0.13,0.85-0.31c-0.12,0-0.22-0.01-0.31-0.05c-0.09-0.03-0.25-0.1-0.49-0.22c-0.18,0.24-0.4,0.4-0.67,0.49
			c-0.27,0.09-0.46,0.25-0.58,0.49c-0.3-0.3-0.61-0.37-0.94-0.22c-0.33,0.15-0.55,0.31-0.67,0.49c0-0.12-0.05-0.18-0.13-0.18
			s-0.13-0.06-0.13-0.18c0-0.18,0.08-0.3,0.22-0.36c0.15-0.06,0.17-0.15,0.05-0.27c0-0.3,0.06-0.36,0.18-0.18
			c0.12,0.18,0.27,0.24,0.45,0.18c0-0.12-0.03-0.24-0.09-0.36l-0.27-0.54c-0.48,0.12-0.86,0.15-1.16,0.09
			c-0.3-0.06-0.66,0.03-1.08,0.27c-0.06-0.24-0.09-0.37-0.09-0.4c0-0.03,0-0.19,0-0.49c0.3,0.06,0.54-0.15,0.72-0.63l0.09,0.09
			c0,0.06,0.02,0.11,0.05,0.13c0.03,0.03,0.04,0.08,0.04,0.13c0.72-0.54,1.43-0.93,2.15-1.16c0.72-0.24,1.43-0.51,2.15-0.81
			c0.3-0.18,0.67-0.28,1.12-0.31c0.45-0.03,0.73-0.19,0.85-0.49c0.12,0.12,0.28,0.12,0.49,0c0.21-0.12,0.37-0.09,0.49,0.09
			c0.06-0.12,0.12-0.21,0.18-0.27c0.06-0.06,0.15-0.18,0.27-0.36c0.48,0.18,0.93,0.11,1.34-0.22c0.42-0.33,0.9-0.46,1.43-0.4
			c0.18,0,0.27-0.12,0.27-0.36c0.3-0.06,0.63-0.07,0.98-0.04c0.36,0.03,0.63-0.19,0.81-0.67c-0.36-0.24-0.64-0.25-0.85-0.04
			c-0.21,0.21-0.43,0.31-0.67,0.31c0.06-0.24,0.24-0.46,0.54-0.67c0.3-0.21,0.63-0.37,0.99-0.49c0.42-0.3,0.9-0.49,1.43-0.58
			c0.54-0.09,1.14-0.13,1.79-0.13c0.12,0,0.19-0.04,0.22-0.13c0.03-0.09,0.08-0.19,0.13-0.31c0.9-0.24,1.67-0.49,2.33-0.76
			c0.66-0.27,1.58-0.55,2.78-0.85c0.06,0,0.09-0.06,0.09-0.18c0-0.12,0.06-0.21,0.18-0.27c0.18,0.06,0.3,0.11,0.36,0.13
			c0.06,0.03,0.15,0.02,0.27-0.04c0.12-0.42,0.39-0.69,0.81-0.81c0.42-0.12,0.66-0.42,0.72-0.9c0.36,0,0.6-0.18,0.72-0.54
			c0.12-0.36,0.33-0.51,0.63-0.45c0.84-1.55,1.8-2.91,2.91-4.08c1.1-1.16,2.07-2.43,2.91-3.81c0.36-0.24,0.54-0.54,0.54-0.9
			c0.06,0,0.1,0.02,0.13,0.04c0.03,0.03,0.1,0.05,0.22,0.05c0.12-0.66,0.43-1.15,0.94-1.48c0.51-0.33,0.82-0.91,0.94-1.75
			c0.84-0.72,1.57-1.58,2.2-2.6c0.63-1.01,1.39-1.88,2.28-2.6c0.18-0.6,0.4-1.1,0.67-1.52c0.27-0.42,0.57-0.82,0.9-1.21
			c0.33-0.39,0.64-0.79,0.94-1.21c0.3-0.42,0.54-0.9,0.72-1.43c0.72-0.66,1.3-1.43,1.75-2.33c0.45-0.9,1.03-1.67,1.75-2.33
			c0.18-0.54,0.43-1,0.76-1.39c0.33-0.39,0.61-0.85,0.85-1.39c0.84-0.84,1.55-1.73,2.15-2.69c0.6-0.95,1.31-1.76,2.15-2.42
			c0.06-0.12,0.13-0.21,0.22-0.27c0.09-0.06,0.1-0.18,0.05-0.36c1.08-1.01,1.94-2.15,2.6-3.4c1.13-1.31,2.22-2.54,3.27-3.67
			c1.04-1.13,1.98-2.36,2.82-3.67c0.3,0,0.52-0.13,0.67-0.4c0.15-0.27,0.28-0.49,0.4-0.67c0.48-0.18,0.84-0.45,1.08-0.81
			c0.24-0.36,0.54-0.69,0.9-0.99c0.18,0.18,0.34,0.18,0.49,0c0.15-0.18,0.34-0.3,0.58-0.36c0.06,0.18,0,0.37-0.18,0.58
			c-0.18,0.21-0.36,0.37-0.54,0.49c0.42,0.12,0.93,0.19,1.52,0.22c0.6,0.03,1.18,0.09,1.75,0.18c0.57,0.09,1.11,0.24,1.61,0.45
			c0.51,0.21,0.91,0.52,1.21,0.94c-0.06,0.18-0.09,0.34-0.09,0.49c0,0.15-0.09,0.19-0.27,0.13c0.18,0.12,0.36,0.34,0.54,0.67
			c0.18,0.33,0.36,0.43,0.54,0.31c0.24,0.18,0.4,0.39,0.49,0.63c0.09,0.24,0.28,0.45,0.58,0.63c-0.12,0.24-0.11,0.49,0.04,0.76
			c0.15,0.27,0.34,0.46,0.58,0.58c-0.06,0.78-0.06,1.51,0,2.2c0.06,0.69,0.1,1.37,0.13,2.06c0.03,0.69,0,1.36-0.09,2.02
			c-0.09,0.66-0.28,1.34-0.58,2.06c0,0.48-0.03,0.85-0.09,1.12c-0.06,0.27-0.13,0.54-0.22,0.81c-0.09,0.27-0.18,0.55-0.27,0.85
			c-0.09,0.3-0.13,0.72-0.13,1.25c-0.42,1.2-0.76,2.51-1.03,3.94c-0.27,1.43-0.64,2.72-1.12,3.85c0.12,0.54,0.09,1.12-0.09,1.75
			c-0.18,0.63-0.42,1.18-0.72,1.66c0,1.02-0.13,1.97-0.4,2.87c-0.27,0.9-0.46,1.82-0.58,2.78c-0.06,0-0.11,0.08-0.13,0.22
			c-0.03,0.15-0.11,0.19-0.22,0.13c0,0.12,0.05,0.18,0.13,0.18c0.09,0,0.13,0.06,0.13,0.18c-0.42,1.2-0.72,2.28-0.9,3.27
			c-0.18,0.99-0.33,2.08-0.45,3.27c0.18,0.3,0.39,0.4,0.63,0.31c0.24-0.09,0.48-0.13,0.72-0.13c0.36,0.12,0.69,0.27,0.98,0.45
			c0.3,0.18,0.66,0.27,1.08,0.27c0.24,0,0.45-0.04,0.63-0.13c0.18-0.09,0.36-0.04,0.54,0.13c0.12,0.12,0.18,0.15,0.18,0.09
			c0-0.06,0.06-0.09,0.18-0.09c0.54,0.48,1.19,0.93,1.97,1.34c0.78,0.42,1.4,0.99,1.88,1.7c-0.12,0.12-0.15,0.28-0.09,0.49
			c0.06,0.21,0.12,0.37,0.18,0.49c0,0.12,0,0.24,0,0.36c0,0.12-0.03,0.18-0.09,0.18c0.06,0.12,0.12,0.27,0.18,0.45
			c0.06,0.18,0.24,0.33,0.54,0.45c0,0.12-0.06,0.22-0.18,0.31c-0.12,0.09-0.24,0.19-0.36,0.31c0.12,0.36,0.19,0.58,0.22,0.67
			c0.03,0.09,0.08,0.25,0.13,0.49c-0.24,0-0.31,0.13-0.22,0.4c0.09,0.27,0.01,0.43-0.22,0.49v0.81c-0.06,0.12-0.09,0.22-0.09,0.31
			c0,0.09-0.06,0.22-0.18,0.4c-0.84,0.36-1.7,0.61-2.6,0.76c-0.9,0.15-1.82,0.3-2.78,0.45c-0.96,0.15-1.94,0.31-2.96,0.49
			c-1.02,0.18-2.06,0.45-3.14,0.81c-0.06,0.12-0.12,0.22-0.18,0.31c-0.06,0.09-0.06,0.22,0,0.4h-0.63
			c-0.12,0.18-0.19,0.36-0.22,0.54c-0.03,0.18-0.13,0.36-0.31,0.54c-0.06,1.14-0.33,2.36-0.81,3.67c-0.48,1.31-0.99,2.48-1.52,3.49
			c-0.24-0.36-0.27-0.85-0.09-1.48c0.18-0.63,0.09-1.06-0.27-1.3c-0.18,0.48-0.28,0.94-0.31,1.39c-0.03,0.45-0.05,0.91-0.05,1.39
			h-0.18c-0.12,0-0.15-0.03-0.09-0.09c0.06-0.06,0.06-0.18,0-0.36c-0.36,0.24-0.45,0.66-0.27,1.25c-0.24,0.12-0.39,0.27-0.45,0.45
			c-0.06,0.18-0.11,0.37-0.13,0.58c-0.03,0.21-0.09,0.42-0.18,0.63c-0.09,0.21-0.26,0.34-0.49,0.4c0-0.18-0.02-0.37-0.05-0.58
			c-0.03-0.21-0.13-0.31-0.31-0.31c0.18-0.24,0.18-0.45,0-0.63c-0.3,0.12-0.51,0.31-0.63,0.58c-0.12,0.27-0.22,0.57-0.31,0.9
			c-0.09,0.33-0.19,0.63-0.31,0.9c-0.12,0.27-0.3,0.49-0.54,0.67c-0.12-0.24-0.18-0.57-0.18-0.99c0-0.42,0-0.78,0-1.08
			c-0.18,0.12-0.24,0.36-0.18,0.72c0.06,0.36,0,0.57-0.18,0.63c-0.12,0.06-0.19,0.03-0.22-0.09c-0.03-0.12-0.11-0.18-0.22-0.18
			c-0.12,0.12-0.22,0.25-0.31,0.4c-0.09,0.15-0.13,0.34-0.13,0.58c-0.24,0.12-0.39,0.13-0.45,0.04c-0.06-0.09-0.15-0.13-0.27-0.13
			c0-0.3,0.01-0.55,0.04-0.76c0.03-0.21,0.05-0.43,0.05-0.67c0-0.06-0.02-0.08-0.05-0.05c-0.03,0.03-0.04,0.01-0.04-0.04
			c0.06-1.73,0.1-3.33,0.13-4.79c0.03-1.46,0.1-2.94,0.22-4.44c-1.37,0.06-3.05,0.15-5.02,0.27c-1.97,0.12-3.64,0.3-5.02,0.54
			c-0.18,0.06-0.28,0.15-0.31,0.27c-0.03,0.12-0.11,0.24-0.22,0.36c-0.12-0.06-0.15-0.15-0.09-0.27c0.06-0.12,0.03-0.18-0.09-0.18
			c0,0.12-0.09,0.11-0.27-0.04c-0.18-0.15-0.27-0.07-0.27,0.22c-1.19-0.06-2.36,0.05-3.49,0.31c-1.14,0.27-2.3,0.46-3.5,0.58
			c-0.36,0.12-0.75,0.17-1.17,0.13c-0.42-0.03-0.78,0.13-1.07,0.49c-0.3-0.06-0.49-0.1-0.58-0.13c-0.09-0.03-0.19-0.04-0.31-0.04
			c-2.27,2.39-4.42,4.81-6.45,7.26c-2.03,2.45-4.21,4.72-6.54,6.81c-0.24-0.06-0.49-0.02-0.76,0.13c-0.27,0.15-0.49,0.31-0.67,0.49
			c-0.3-0.12-0.63-0.05-0.98,0.22c-0.36,0.27-0.78,0.28-1.25,0.04c-0.36,0.12-0.57,0.27-0.63,0.45c-0.3-0.18-0.61-0.24-0.94-0.18
			c-0.33,0.06-0.55,0.03-0.67-0.09c0.12-0.06,0.21-0.09,0.27-0.09C287.27,91.89,287.36,91.86,287.47,91.8z M326.63,60.62
			c0-0.3,0.11-0.46,0.31-0.49c0.21-0.03,0.4-0.19,0.58-0.49c0.12,0.24,0.28,0.3,0.49,0.18c0.21-0.12,0.37-0.18,0.49-0.18
			c0.18-3.05,0.48-5.88,0.9-8.51c0.42-2.63,0.77-5.32,1.07-8.06c-1.19,1.49-2.25,3.09-3.18,4.79c-0.93,1.7-2.02,3.24-3.27,4.61
			c-0.9,1.85-1.91,3.55-3.05,5.11c-1.14,1.55-2.27,3.11-3.41,4.66v0.45c1.55-0.48,3.05-0.79,4.48-0.94
			C323.49,61.59,325.01,61.22,326.63,60.62z"/>
		<path d="M353.23,60.09c0.18,0.06,0.39,0.09,0.63,0.09c0.18-2.09,0.37-4.12,0.58-6.09c0.21-1.97,0.37-4.03,0.49-6.18
			c0.18-0.3,0.33-0.48,0.45-0.54c0-0.9,0.09-1.85,0.27-2.87c0.18-1.01,0.12-1.97-0.18-2.87c0.18-1.08,0.19-2.12,0.05-3.14
			c-0.15-1.02-0.05-2.12,0.31-3.32c0.42-0.06,0.67-0.18,0.76-0.36c0.09-0.18,0.12-0.37,0.09-0.58c-0.03-0.21-0.06-0.43-0.09-0.67
			c-0.03-0.24,0.01-0.45,0.13-0.63c0.24,0,0.36,0.09,0.36,0.27s0.12,0.27,0.36,0.27c0.48-0.12,0.85-0.31,1.12-0.58
			c0.27-0.27,0.61-0.43,1.03-0.49c0.18,0.06,0.27,0.17,0.27,0.31c0,0.15,0,0.31,0,0.49c0.18-0.18,0.33-0.21,0.45-0.09
			c0-0.48,0.36-0.78,1.08-0.9c-0.06,0.24-0.09,0.57-0.09,0.99c0,0.06,0.06,0.08,0.18,0.04c0.12-0.03,0.18,0.04,0.18,0.22
			c0.18,0,0.3-0.09,0.36-0.27s0.15-0.33,0.27-0.45c0.24-0.06,0.34-0.01,0.31,0.13c-0.03,0.15,0.01,0.28,0.13,0.4
			c0.18-0.06,0.3-0.16,0.36-0.31c0.06-0.15,0.18-0.22,0.36-0.22c0.06,0.18,0.15,0.57,0.27,1.16c0.42-0.12,0.6-0.36,0.54-0.72
			c-0.06-0.36,0.03-0.66,0.27-0.9c0.78,0.72,1.48,1.37,2.11,1.97c0.63,0.6,1.09,1.43,1.39,2.51c-0.12,0.3-0.19,0.63-0.22,0.99
			c-0.03,0.36,0.07,0.6,0.31,0.72c0,0.18-0.03,0.3-0.09,0.36c-0.06,0.06-0.09,0.18-0.09,0.36c0.24,0.54,0.3,1.05,0.18,1.52
			c-0.12,0.48,0,0.9,0.36,1.25c0,1.61,0.06,3.18,0.18,4.7c0.12,1.52,0.12,3.12,0,4.79c-0.06,1.25-0.08,2.57-0.05,3.94
			c0.03,1.37,0.1,2.66,0.22,3.85c1.13-1.31,2.25-2.7,3.36-4.17c1.1-1.46,2.22-2.97,3.36-4.52c0.18-0.3,0.31-0.49,0.4-0.58
			c0.09-0.09,0.13-0.31,0.13-0.67c0.12,0,0.24,0.03,0.36,0.09c0.06-0.42,0.24-0.7,0.54-0.85c0.3-0.15,0.39-0.46,0.27-0.94
			c0.42-0.24,0.76-0.55,1.03-0.94c0.27-0.39,0.51-0.81,0.72-1.25c0.21-0.45,0.45-0.88,0.72-1.3c0.27-0.42,0.58-0.78,0.94-1.07
			c0.12-0.3,0.28-0.52,0.49-0.67c0.21-0.15,0.31-0.4,0.31-0.76c0.84-1.19,1.73-2.39,2.69-3.58c0.95-1.19,1.73-2.42,2.33-3.67
			c0.42-0.54,0.87-1.04,1.34-1.52c0.48-0.48,0.78-1.01,0.9-1.61c0.66-0.72,1.25-1.49,1.79-2.33c0.54-0.84,0.98-1.76,1.34-2.78
			c1.19-1.37,2.37-2.82,3.54-4.35c1.16-1.52,2.34-2.88,3.54-4.08c0.18-0.18,0.33-0.24,0.45-0.18c0.48-0.72,0.99-1.39,1.52-2.02
			c0.54-0.63,1.19-1.15,1.97-1.57c0.36-0.66,0.69-1.24,0.98-1.75c0.3-0.51,0.78-0.91,1.43-1.21c0.36-0.66,0.81-1.27,1.34-1.84
			c0.54-0.57,1.11-1.12,1.7-1.66c0.6-0.54,1.18-1.09,1.75-1.66c0.57-0.57,1.09-1.18,1.57-1.84c0.6-0.12,1.04-0.39,1.34-0.81
			c0.3-0.42,0.69-0.72,1.17-0.9c0.06-0.24,0.12-0.42,0.18-0.54c0.06-0.12,0.09-0.24,0.09-0.36c0.3,0,0.45,0.02,0.45,0.04
			c0,0.03,0.09,0.08,0.27,0.13c0.18,0,0.22-0.06,0.13-0.18c-0.09-0.12-0.19-0.15-0.31-0.09c0.24-0.36,0.54-0.51,0.9-0.45
			c0,0.24,0.12,0.45,0.36,0.63c-0.48,0.6-0.84,1.3-1.07,2.11c-0.24,0.81-0.6,1.51-1.08,2.11c0.24,0.12,0.33,0.25,0.27,0.4
			c-0.06,0.15-0.06,0.28,0,0.4c0.18-0.06,0.24-0.12,0.18-0.18c-0.06-0.06-0.03-0.18,0.09-0.36c0.3,0,0.54-0.04,0.72-0.13
			c0.18-0.09,0.42-0.16,0.72-0.22c0,0.18,0.09,0.3,0.27,0.36c0.18,0.06,0.24,0.18,0.18,0.36c-0.3,0.12-0.55,0.28-0.76,0.49
			c-0.21,0.21-0.43,0.43-0.67,0.67c0.84-0.06,1.52-0.15,2.06-0.27c0.54-0.12,0.98-0.51,1.34-1.16c0.18,0.42,0.21,0.85,0.09,1.3
			c-0.12,0.45-0.31,0.88-0.58,1.3c-0.27,0.42-0.58,0.82-0.94,1.21c-0.36,0.39-0.66,0.76-0.9,1.12c-0.12,0.3-0.13,0.51-0.04,0.63
			c0.09,0.12,0.13,0.27,0.13,0.45c0.12,0,0.18-0.09,0.18-0.27c0-0.18,0-0.33,0-0.45c0.24,0.12,0.42,0.11,0.54-0.05
			c0.12-0.15,0.33-0.16,0.63-0.04c0.24,0.78,0.12,1.31-0.36,1.61c-0.48,0.3-0.87,0.69-1.17,1.16c-0.12,0.12-0.18,0.3-0.18,0.54
			c0,0.24-0.03,0.45-0.09,0.63c-0.18,0.3-0.36,0.63-0.54,0.99c-0.18,0.36-0.33,0.69-0.45,0.99c-0.18,0.3-0.4,0.58-0.67,0.85
			c-0.27,0.27-0.49,0.58-0.67,0.94c-0.24,0.42-0.4,0.85-0.49,1.3c-0.09,0.45-0.29,0.82-0.58,1.12c-0.12,0.18-0.28,0.37-0.49,0.58
			c-0.21,0.21-0.34,0.46-0.4,0.76c-0.48,0.54-0.9,1.14-1.25,1.79c-0.36,0.66-0.72,1.31-1.08,1.97c-0.36,0.36-0.67,0.76-0.94,1.21
			c-0.27,0.45-0.46,0.94-0.58,1.48h-0.27c-0.24,0.6-0.63,1.14-1.17,1.61c-0.54,0.48-0.75,1.05-0.63,1.7
			c-1.02,1.02-1.84,2.11-2.46,3.27c-0.63,1.16-1.45,2.28-2.46,3.36c-0.12,0.54-0.45,1.11-0.98,1.7c-0.54,0.6-1.05,1.2-1.52,1.79
			c-0.18,0.66-0.43,1.24-0.76,1.75c-0.33,0.51-0.7,1-1.12,1.48c-0.42,0.48-0.79,0.99-1.12,1.52c-0.33,0.54-0.58,1.17-0.76,1.88
			c-1.02,0.48-1.64,1.31-1.88,2.51c-0.3,0.3-0.54,0.58-0.72,0.85c-0.18,0.27-0.3,0.64-0.36,1.12c-0.3,0.12-0.51,0.36-0.63,0.72
			c-0.12,0.36-0.33,0.6-0.63,0.72c-0.12,0.84-0.48,1.6-1.08,2.28c-0.6,0.69-1.05,1.45-1.34,2.28c-0.72,0.78-1.31,1.69-1.79,2.73
			c-0.48,1.05-0.95,1.93-1.43,2.64c-0.96,1.02-1.78,2.18-2.46,3.49c-0.69,1.31-1.54,2.48-2.55,3.49c-0.6,1.37-1.36,2.6-2.28,3.67
			c-0.93,1.08-1.72,2.3-2.37,3.67c-0.96,0.9-1.82,1.87-2.6,2.91s-1.73,1.96-2.87,2.73c-0.3-0.06-0.51-0.08-0.63-0.05
			c-0.12,0.03-0.27,0.05-0.45,0.05c-0.48,0.3-0.93,0.52-1.34,0.67c-0.42,0.15-0.78,0.43-1.08,0.85c-1.02,0-1.85-0.17-2.51-0.49
			c-0.66-0.33-1.4-0.64-2.24-0.94c-0.18,0-0.3,0.04-0.36,0.13c-0.06,0.09-0.21,0.07-0.45-0.04c-0.18,0-0.3-0.08-0.36-0.22
			c-0.06-0.15-0.21-0.22-0.45-0.22c-0.96,0.12-1.67-0.02-2.15-0.4c-0.48-0.39-1.02-0.7-1.61-0.94c0.12-0.3,0.09-0.55-0.09-0.76
			c-0.18-0.21-0.33-0.46-0.45-0.76c-0.24-0.18-0.55-0.4-0.94-0.67c-0.39-0.27-0.64-0.58-0.76-0.94c-0.12-0.24-0.15-0.54-0.09-0.9
			c0.06-0.36,0.03-0.69-0.09-0.99c-0.12-0.78-0.3-1.51-0.54-2.2c-0.24-0.69-0.21-1.36,0.09-2.02c0.06-0.06,0.09-0.18,0.09-0.36
			c0-0.18-0.03-0.33-0.09-0.45c-0.12-1.97-0.11-4.17,0.05-6.59C353.07,64.43,353.17,62.18,353.23,60.09z"/>
		<path d="M416.93,84.72c0.12-0.36,0.45-0.73,0.99-1.12c0.54-0.39,0.95-0.61,1.25-0.67c0.3-0.6,0.76-1,1.39-1.21
			c0.63-0.21,1.18-0.49,1.66-0.85c0.84-0.18,1.61-0.45,2.33-0.81c0.72-0.36,1.4-0.72,2.06-1.08c0.18-0.12,0.37-0.19,0.58-0.22
			c0.21-0.03,0.4-0.1,0.58-0.22c0.12-0.12,0.25-0.25,0.4-0.4c0.15-0.15,0.31-0.28,0.49-0.4c0.66-0.12,1.25-0.3,1.79-0.54
			c0.54-0.24,1.1-0.45,1.7-0.63c0.3-0.3,0.63-0.49,0.98-0.58c0.36-0.09,0.66-0.25,0.9-0.49c0.84-0.3,1.66-0.64,2.46-1.03
			c0.81-0.39,1.6-0.82,2.37-1.3c1.55-0.84,3.1-1.63,4.66-2.37c1.55-0.75,2.9-1.57,4.03-2.46c1.73-0.72,3.41-1.43,5.02-2.15
			c1.61-0.72,3.23-1.4,4.84-2.06c-0.48-0.18-1.05-0.3-1.7-0.36c-0.66-0.06-1.17,0.03-1.52,0.27c-3.23-0.36-6.29-0.48-9.18-0.36
			c-2.9,0.12-5.87,0.03-8.91-0.27c-0.6-0.06-1.08-0.1-1.43-0.13c-0.36-0.03-0.78,0.02-1.25,0.13c-0.06-0.06-0.12-0.1-0.18-0.13
			c-0.06-0.03-0.12-0.07-0.18-0.13c-1.14-0.18-2.09-0.4-2.87-0.67c-0.78-0.27-1.49-0.73-2.15-1.39c-0.18,0.06-0.33,0.04-0.45-0.04
			c-0.12-0.09-0.24-0.13-0.36-0.13c-0.36-0.36-0.93-0.66-1.7-0.9c-1.02-0.66-1.76-1.58-2.24-2.78c-0.48-1.19-0.87-2.48-1.17-3.85
			c-0.12-1.02-0.19-1.97-0.22-2.87c-0.03-0.9,0.28-1.64,0.94-2.24c-0.06-0.3-0.03-0.57,0.09-0.81c0.12-0.12,0.18-0.13,0.18-0.04
			c0,0.09,0.06,0.13,0.18,0.13c0.6-1.02,1.34-1.97,2.24-2.87c0.9-0.9,1.85-1.67,2.87-2.33c0.06-0.18,0.03-0.28-0.09-0.31
			c-0.12-0.03-0.15-0.1-0.09-0.22c0.12,0.06,0.25,0.08,0.4,0.04c0.15-0.03,0.22,0.02,0.22,0.13c0.9-0.84,1.91-1.55,3.05-2.15
			c1.13-0.6,2.24-1.22,3.31-1.88c0.06-0.06,0.09-0.21,0.09-0.45c0.84-0.18,1.52-0.4,2.06-0.67c0.54-0.27,1.07-0.67,1.61-1.21
			c1.61-0.66,3.18-1.43,4.7-2.33c1.52-0.9,3.06-1.76,4.61-2.6c0.42-0.54,0.95-0.9,1.61-1.07c0.66-0.18,1.22-0.54,1.7-1.08
			c0.6-0.18,1.13-0.48,1.61-0.9c0.48-0.42,1.04-0.72,1.7-0.9c0-0.12-0.03-0.24-0.09-0.36c-0.06-0.12,0-0.24,0.18-0.36
			c0.12,0.12,0.18,0.12,0.18,0c0-0.12,0.12-0.15,0.36-0.09c0.12-0.12,0.1-0.22-0.05-0.31c-0.15-0.09-0.13-0.19,0.05-0.31
			c1.73-0.18,3.25-0.4,4.57-0.67c1.31-0.27,2.6-0.76,3.85-1.48c0.42,0.06,0.85,0.15,1.3,0.27c0.45,0.12,0.85,0.24,1.21,0.36
			c0.48,0,0.88,0.11,1.21,0.31c0.33,0.21,0.66,0.43,0.98,0.67c0.33,0.24,0.66,0.46,0.99,0.67c0.33,0.21,0.7,0.34,1.12,0.4
			c0.18,0.3,0.39,0.52,0.63,0.67c0.24,0.15,0.42,0.37,0.54,0.67c0.3,0.12,0.55,0.25,0.76,0.4c0.21,0.15,0.46,0.25,0.76,0.31
			c0.24,0.36,0.34,0.76,0.31,1.21c-0.03,0.45,0.08,0.88,0.31,1.3c0,0.06,0.1,0.24,0.31,0.54c0.21,0.3,0.34,0.54,0.4,0.72
			c0.12,0.3,0.13,0.58,0.05,0.85c-0.09,0.27-0.13,0.55-0.13,0.85c-0.12,0.12-0.18,0.15-0.18,0.09c0-0.06-0.06-0.09-0.18-0.09
			c-0.06,0.3-0.06,0.57,0,0.81c-0.9,1.91-1.78,3.79-2.64,5.64c-0.87,1.85-2.01,3.49-3.45,4.93c-0.36-0.06-0.6-0.03-0.72,0.09
			c-0.12,0.12-0.3,0.18-0.54,0.18c-0.06-0.12-0.19-0.18-0.4-0.18c-0.21,0-0.28-0.15-0.22-0.45c-0.42,0.18-0.79,0.18-1.12,0
			c-0.33-0.18-0.73-0.12-1.21,0.18c-0.18-0.18-0.45-0.39-0.81-0.63c-0.12,0.12-0.18,0.27-0.18,0.45c0,0.18-0.06,0.27-0.18,0.27
			c-0.24-0.06-0.42-0.16-0.54-0.31c-0.12-0.15-0.3-0.28-0.54-0.4c0-0.48-0.12-0.81-0.36-0.99c-0.24-0.18-0.42-0.45-0.54-0.81
			c-0.12,0-0.19,0.03-0.22,0.09c-0.03,0.06-0.11,0.06-0.22,0c-0.12-1.01-0.02-1.93,0.31-2.73c0.33-0.81,0.34-1.51,0.05-2.11
			c0-0.3,0.09-0.51,0.27-0.63c-1.79,0.72-3.46,1.51-5.02,2.37c-1.55,0.87-3.11,1.75-4.66,2.64c-0.66,0.66-1.4,1.2-2.24,1.61
			c-0.84,0.42-1.55,1.02-2.15,1.79c-2.03,1.2-4.02,2.4-5.96,3.63c-1.94,1.22-3.81,2.52-5.6,3.9c0.12,0.3,0.33,0.43,0.63,0.4
			c0.3-0.03,0.66-0.04,1.07-0.04c1.19,0.12,2.37,0.21,3.54,0.27c1.17,0.06,2.46,0.15,3.9,0.27c1.01,0.06,2.04,0.09,3.09,0.09
			c1.04,0,2.07,0.03,3.09,0.09c1.13,0.12,2.22,0.24,3.27,0.36c1.04,0.12,2.07,0.12,3.09,0c0.24,0.12,0.42,0.18,0.54,0.18
			c1.01-0.12,2.07-0.18,3.18-0.18c1.11,0,2.2,0.06,3.27,0.18c0.48,0,1.09-0.05,1.84-0.13c0.75-0.09,1.45-0.04,2.11,0.13
			c0.3,0,0.61,0.03,0.94,0.09c0.33,0.06,0.67,0.03,1.03-0.09c0.6,0.06,1.22,0.13,1.88,0.22c0.66,0.09,1.34,0.17,2.06,0.22
			c0.95,0.12,1.91,0.21,2.87,0.27c0.95,0.06,1.91,0.21,2.87,0.45c0.42,0.12,0.9,0.3,1.43,0.54c0.54,0.24,0.95,0.51,1.25,0.81
			c0.42,0.3,0.72,0.66,0.9,1.08c0.84,0.66,1.51,1.63,2.01,2.91c0.51,1.28,0.58,2.61,0.22,3.99c0.18,0.18,0.27,0.39,0.27,0.63
			c-0.12,0.24-0.3,0.36-0.54,0.36c-0.06,0.48-0.13,0.84-0.22,1.07c-0.09,0.24-0.28,0.54-0.58,0.9c-0.06,0.12-0.18,0.24-0.36,0.36
			c-0.18,0.12-0.33,0.24-0.45,0.36c0,0.06,0.03,0.12,0.09,0.18c0.06,0.06,0.03,0.12-0.09,0.18c0,0.12-0.03,0.19-0.09,0.22
			c-0.06,0.03-0.12,0.11-0.18,0.22c-0.24,0.48-0.52,0.76-0.85,0.85c-0.33,0.09-0.64,0.28-0.94,0.58c-0.06,0.18-0.06,0.36,0,0.54
			c-0.48-0.24-0.91-0.21-1.3,0.09c-0.39,0.3-0.76,0.6-1.12,0.9c-0.12,0.06-0.18,0.03-0.18-0.09c-0.54,0.42-1.21,0.76-2.02,1.03
			c-0.81,0.27-1.54,0.49-2.2,0.67c-0.48,0.36-0.97,0.64-1.48,0.85c-0.51,0.21-1.03,0.39-1.57,0.54c-0.54,0.15-1.08,0.31-1.61,0.49
			c-0.54,0.18-1.07,0.45-1.61,0.81c-0.18,0-0.27-0.03-0.27-0.09c-1.02,0.6-2.06,1.06-3.14,1.39c-1.07,0.33-2.06,0.79-2.96,1.39
			c-1.43,0.12-2.51,0.54-3.23,1.25c-0.72,0.3-1.42,0.48-2.11,0.54c-0.69,0.06-1.27,0.3-1.75,0.72c-0.42,0-0.78,0.13-1.08,0.4
			c-0.3,0.27-0.72,0.31-1.25,0.13c-0.18,0.18-0.4,0.31-0.67,0.4c-0.27,0.09-0.55,0.07-0.85-0.04c-0.18,0-0.27,0.06-0.27,0.18
			c0,0.12-0.09,0.18-0.27,0.18c-0.36,0-0.78,0.07-1.25,0.22c-0.48,0.15-0.87,0.37-1.17,0.67c-1.25,0.06-2.54,0.33-3.85,0.81
			c-1.31,0.48-2.57,0.84-3.76,1.08c-0.3,0.12-0.57,0.16-0.81,0.13c-0.24-0.03-0.51-0.02-0.81,0.04c-0.24,0-0.46,0.06-0.67,0.18
			c-0.21,0.12-0.43,0.18-0.67,0.18c-0.3,0.06-0.61,0.07-0.94,0.05c-0.33-0.03-0.46,0.19-0.4,0.67c-0.66,0.12-1.42,0.27-2.28,0.45
			c-0.87,0.18-1.69,0.33-2.46,0.45c-0.3,0-0.63-0.02-0.99-0.04c-0.36-0.03-0.51-0.25-0.45-0.67c0.6,0.18,1.18,0.22,1.75,0.13
			c0.57-0.09,1.24-0.19,2.01-0.31c-0.24-0.36-0.6-0.49-1.07-0.4c-0.48,0.09-0.99,0.19-1.52,0.31c-0.12-0.12-0.16-0.22-0.13-0.31
			c0.03-0.09,0.01-0.19-0.05-0.31c-0.24,0-0.42,0.05-0.54,0.13c-0.12,0.09-0.24,0.07-0.36-0.04c0,0.12,0.03,0.21,0.09,0.27
			c0.06,0.06,0.03,0.15-0.09,0.27c-0.72,0.18-1.36,0.28-1.93,0.31c-0.57,0.03-1.12,0.04-1.66,0.04c-0.18,0-0.24-0.04-0.18-0.13
			c0.06-0.09,0.09-0.17,0.09-0.22c-0.42-0.18-0.88-0.15-1.39,0.09c-0.51,0.24-0.91,0.42-1.21,0.54c-0.06-0.12-0.05-0.25,0.04-0.4
			c0.09-0.15,0.13-0.28,0.13-0.4c-0.06-0.24-0.18-0.31-0.36-0.22c-0.18,0.09-0.39,0.1-0.63,0.04v-0.63
			c-0.18-0.06-0.27-0.03-0.27,0.09c0,0.12-0.06,0.18-0.18,0.18c-0.36-0.24-0.72-0.31-1.08-0.22c-0.36,0.09-0.72,0.22-1.07,0.4
			c-0.36,0.18-0.72,0.33-1.08,0.45c-0.36,0.12-0.69,0.03-0.99-0.27c0.18-0.42,0.43-0.72,0.76-0.9c0.33-0.18,0.46-0.54,0.4-1.07
			c-0.12,0-0.21,0.07-0.27,0.22c-0.06,0.15-0.15,0.16-0.27,0.05c-0.3-0.24-0.63-0.34-0.98-0.31c-0.36,0.03-0.63,0.19-0.81,0.49
			C417.2,84.9,417.05,84.78,416.93,84.72z"/>
		<path d="M490.4,84.54c-0.12,0.06-0.13,0.1-0.05,0.13c0.09,0.03,0.1,0.1,0.05,0.22c-0.48-0.06-0.81-0.25-0.99-0.58
			c-0.18-0.33-0.42-0.61-0.72-0.85c-0.06-0.78-0.21-1.37-0.45-1.79c0-0.12,0.06-0.18,0.18-0.18c-0.06-0.06-0.12-0.09-0.18-0.09
			s-0.12-0.03-0.18-0.09c-0.12-1.19-0.25-2.19-0.4-3c-0.15-0.81-0.19-1.84-0.13-3.09c0-0.06,0.06-0.15,0.18-0.27
			c-0.06-1.01,0.03-1.97,0.27-2.87c0.24-0.9,0.42-1.76,0.54-2.6c0.24-0.36,0.42-0.81,0.54-1.34c0.12-0.54,0.18-1.04,0.18-1.52h0.09
			c0.18-0.95,0.43-1.81,0.76-2.55c0.33-0.75,0.64-1.48,0.94-2.2c0-0.12-0.05-0.18-0.13-0.18s-0.11-0.09-0.05-0.27
			c0.36-0.72,0.66-1.43,0.9-2.15c0.24-0.72,0.51-1.4,0.81-2.06c-0.36-0.06-0.61-0.1-0.76-0.13c-0.15-0.03-0.4-0.01-0.76,0.04
			c-0.3-0.18-0.72-0.22-1.25-0.13s-0.96,0.13-1.25,0.13c-0.66,0.06-1.29-0.06-1.88-0.36c-0.6-0.3-1.22-0.57-1.88-0.81
			c0-0.12,0.02-0.19,0.05-0.22c0.03-0.03,0.04-0.1,0.04-0.22c-0.12-0.12-0.24-0.19-0.36-0.22c-0.12-0.03-0.21-0.1-0.27-0.22
			c0.12-0.36,0.06-0.6-0.18-0.72c-0.24-0.12-0.42-0.33-0.54-0.63c-0.12,0-0.21,0.03-0.27,0.09c-0.06,0.06-0.15,0.06-0.27,0
			c0.12-0.3,0.06-0.46-0.18-0.49c-0.24-0.03-0.45-0.07-0.63-0.13c-0.12-0.12-0.13-0.21-0.05-0.27c0.09-0.06,0.13-0.12,0.13-0.18
			c-0.18-0.12-0.34-0.12-0.49,0c-0.15,0.12-0.37,0.18-0.67,0.18c0.06-0.12,0.13-0.19,0.22-0.22c0.09-0.03,0.16-0.1,0.22-0.22
			c-0.18-0.18-0.36-0.24-0.54-0.18c-0.12-0.48-0.12-0.81,0-0.99c0.3,0,0.45,0.03,0.45,0.09c0.12-0.18,0.16-0.33,0.13-0.45
			c-0.03-0.12-0.05-0.3-0.05-0.54c0.3,0.18,0.64,0.3,1.03,0.36c0.39,0.06,0.67-0.12,0.85-0.54c0.3,0.18,0.52,0.19,0.67,0.04
			c0.15-0.15,0.37-0.22,0.67-0.22c0.12,0,0.18-0.03,0.18-0.09c0-0.06,0.03-0.15,0.09-0.27c0.66-0.12,1.22-0.22,1.7-0.31
			c0.48-0.09,1.01-0.25,1.61-0.49c0.48,0,0.9-0.04,1.25-0.13c0.36-0.09,0.72-0.21,1.08-0.36c0.36-0.15,0.72-0.27,1.08-0.36
			c0.36-0.09,0.77-0.1,1.25-0.05c0.48-0.54,0.97-0.82,1.48-0.85c0.51-0.03,1.06-0.13,1.66-0.31c0.42-0.9,0.81-1.84,1.16-2.82
			c0.36-0.99,0.78-1.9,1.25-2.73c-0.06-0.12-0.06-0.22,0-0.31c0.06-0.09,0.09-0.19,0.09-0.31c0.48-0.66,0.87-1.36,1.17-2.11
			c0.3-0.75,0.69-1.48,1.17-2.2c0.12-0.18,0.21-0.37,0.27-0.58c0.06-0.21,0.15-0.43,0.27-0.67c0.12-0.18,0.27-0.34,0.45-0.49
			c0.18-0.15,0.33-0.37,0.45-0.67c0.18-0.3,0.33-0.64,0.45-1.03c0.12-0.39,0.27-0.73,0.45-1.03c0-0.06,0.03-0.07,0.09-0.05
			c0.06,0.03,0.09,0.02,0.09-0.04c0.06-0.06,0.07-0.12,0.04-0.18c-0.03-0.06-0.01-0.15,0.05-0.27c0.06-0.12,0.15-0.22,0.27-0.31
			c0.12-0.09,0.21-0.22,0.27-0.4c0.12-0.18,0.19-0.36,0.22-0.54c0.03-0.18,0.1-0.36,0.22-0.54c0.12-0.24,0.3-0.54,0.54-0.9
			c0.12-0.3,0.22-0.6,0.31-0.9c0.09-0.3,0.22-0.51,0.4-0.63c0.06-0.42,0.18-0.73,0.36-0.94c0.18-0.21,0.3-0.52,0.36-0.94
			c0.18-0.18,0.36-0.42,0.54-0.72c0.18-0.3,0.36-0.6,0.54-0.9c0.36-0.9,0.81-1.79,1.34-2.69c0.24-0.42,0.43-0.87,0.58-1.34
			c0.15-0.48,0.37-0.9,0.67-1.25c-0.06-0.24-0.06-0.42,0-0.54c0.06-0.12,0.15-0.24,0.27-0.36V16.9c0.42-0.48,0.9-0.81,1.43-0.99
			c0.18-0.18,0.34-0.34,0.49-0.49c0.15-0.15,0.37-0.28,0.67-0.4c0.06,0.24,0.06,0.37,0,0.4c-0.06,0.03-0.12,0.11-0.18,0.22
			c0.18,0.12,0.31,0.19,0.4,0.22c0.09,0.03,0.25,0.02,0.49-0.05c0.12-0.18,0.25-0.31,0.4-0.4c0.15-0.09,0.25-0.22,0.31-0.4
			c0.12,0,0.24,0.08,0.36,0.22c0.12,0.15,0.12,0.28,0,0.4c0.12,0.12,0.19,0.13,0.22,0.05c0.03-0.09,0.1-0.13,0.22-0.13
			c0.12,0,0.19,0.06,0.22,0.18c0.03,0.12,0.1,0.18,0.22,0.18c0.3,0,0.52-0.06,0.67-0.18c0.15-0.12,0.34-0.18,0.58-0.18
			c-0.06-0.12-0.11-0.22-0.13-0.31c-0.03-0.09,0.01-0.19,0.13-0.31c0.48,0.12,0.91,0.37,1.3,0.76c0.39,0.39,0.82,0.58,1.3,0.58
			c0.24,0.42,0.54,0.75,0.9,0.99c0.36,0.24,0.72,0.48,1.08,0.72c0,0.72,0.24,1.22,0.72,1.52c-0.06,0.48-0.05,0.82,0.05,1.03
			c0.09,0.21,0.04,0.46-0.13,0.76c0.06,0.12,0.1,0.24,0.13,0.36c0.03,0.12,0.04,0.27,0.04,0.45c-0.3,0.9-0.6,1.82-0.9,2.78
			c-0.3,0.96-0.75,1.76-1.34,2.42c0,0.48-0.09,0.9-0.27,1.25c-0.18,0.36-0.4,0.69-0.67,0.99c-0.27,0.3-0.52,0.63-0.76,0.99
			c-0.24,0.36-0.39,0.78-0.45,1.25c-0.36,0.66-0.78,1.34-1.25,2.06c0.06,0.42-0.04,0.75-0.31,0.99c-0.27,0.24-0.43,0.6-0.49,1.07
			c-0.06,0-0.09,0.02-0.09,0.05c0,0.03-0.06,0.04-0.18,0.04c-0.54,1.25-1.18,2.39-1.93,3.4c-0.75,1.02-1.36,2.15-1.84,3.4
			c-0.12,0.12-0.22,0.24-0.31,0.36c-0.09,0.12-0.16,0.33-0.22,0.63c0.78,0.12,1.48,0.15,2.11,0.09c0.63-0.06,1.18-0.15,1.66-0.27
			c0.3-0.06,0.6-0.07,0.9-0.04c0.3,0.03,0.6,0.04,0.9,0.04c1.37-0.12,2.97-0.21,4.79-0.27c1.82-0.06,3.69-0.09,5.6-0.09
			c0.06,0.06,0.07,0.15,0.04,0.27c-0.03,0.12,0.01,0.24,0.13,0.36c0.12,0,0.21-0.06,0.27-0.18c0.06-0.12,0.15-0.12,0.27,0
			c0.12,0.48,0.04,0.82-0.22,1.03c-0.27,0.21-0.52,0.43-0.76,0.67c0.36,0.12,0.6,0.21,0.72,0.27c0,0.12,0.03,0.18,0.09,0.18
			c0.06,0,0.06,0.06,0,0.18c-0.12,0.12-0.21,0.15-0.27,0.09c-0.06-0.06-0.15-0.09-0.27-0.09c-0.18,0.6-0.54,0.94-1.08,1.03
			c-0.54,0.09-1.05,0.22-1.52,0.4c0.06-0.12-0.03-0.18-0.27-0.18c-0.18,0-0.3,0.09-0.36,0.27c-0.06,0.18-0.21,0.27-0.45,0.27
			c0,0.18-0.02,0.28-0.05,0.31c-0.03,0.03,0.01,0.08,0.13,0.13c0.12-0.06,0.22-0.15,0.31-0.27c0.09-0.12,0.22-0.18,0.4-0.18
			c0,0.18-0.04,0.27-0.13,0.27c-0.09,0-0.13,0.06-0.13,0.18c0,0.12,0.06,0.17,0.18,0.13c0.12-0.03,0.24-0.05,0.36-0.05
			c-0.06,0.12-0.11,0.22-0.13,0.31c-0.03,0.09-0.08,0.17-0.13,0.22c-0.36,0.18-0.7,0.33-1.03,0.45c-0.33,0.12-0.61,0.33-0.85,0.63
			c-0.42,0.12-0.81,0.21-1.16,0.27c-0.36,0.06-0.69,0.18-0.99,0.36c-0.3-0.12-0.61-0.04-0.94,0.22c-0.33,0.27-0.7,0.46-1.12,0.58
			c-0.12,0-0.22-0.01-0.31-0.04c-0.09-0.03-0.19-0.01-0.31,0.04c-0.54,0.12-1.12,0.31-1.75,0.58c-0.63,0.27-1.27,0.37-1.93,0.31
			c-0.06,0-0.08,0.03-0.04,0.09c0.03,0.06,0.01,0.12-0.05,0.18c-1.38-0.06-2.72,0.1-4.03,0.49c-1.31,0.39-2.6,0.73-3.85,1.03
			c-0.3,0.66-0.6,1.21-0.9,1.66c-0.3,0.45-0.51,1-0.63,1.66c-0.24,0.42-0.46,0.85-0.67,1.3c-0.21,0.45-0.37,0.88-0.49,1.3
			c-0.24,0.54-0.52,1.05-0.85,1.52c-0.33,0.48-0.55,1.11-0.67,1.88c-0.66,0.78-1.14,1.67-1.43,2.69c-0.3,1.02-0.66,2-1.07,2.96
			c-0.06,0.48-0.18,1.05-0.36,1.7c-0.18,0.66-0.39,1.25-0.63,1.79c-0.24,1.08-0.54,2.17-0.9,3.27c-0.36,1.11-0.6,2.17-0.72,3.18
			c-0.12,0.54-0.21,1.03-0.27,1.48c-0.06,0.45-0.15,0.91-0.27,1.39c0,0.18-0.09,0.3-0.27,0.36c-0.06,0.12-0.04,0.18,0.05,0.18
			c0.09,0,0.13,0.06,0.13,0.18c-0.78,1.01-1.38,2.15-1.79,3.4c-0.06,0.06-0.18,0.09-0.36,0.09c-0.12,0.12-0.15,0.24-0.09,0.36
			c0.06,0.12,0.03,0.27-0.09,0.45c-0.24,0-0.39-0.09-0.45-0.27c-0.06-0.18-0.15-0.33-0.27-0.45c-0.18,0.36-0.12,0.6,0.18,0.72
			c-0.24,0.06-0.42,0.06-0.54,0c0,0.12,0.03,0.22,0.09,0.31c0.06,0.09,0.03,0.16-0.09,0.22c-0.18,0-0.27-0.11-0.27-0.31
			c0-0.21,0-0.4,0-0.58c-0.12,0.24-0.21,0.39-0.27,0.45c-0.24,0-0.3-0.18-0.18-0.54c-0.3,0-0.45,0.06-0.45,0.18
			c-0.24-0.24-0.39-0.46-0.45-0.67c-0.06-0.21-0.15-0.49-0.27-0.85l-0.09-0.09c-0.06,0-0.09,0.03-0.09,0.09
			c-0.06-0.12-0.11-0.21-0.13-0.27C490.5,84.75,490.46,84.66,490.4,84.54z M483.23,52.92c-0.18,0-0.27,0.09-0.27,0.27
			C483.14,53.19,483.23,53.1,483.23,52.92z M484.84,54.71c0-0.12-0.12-0.24-0.36-0.36C484.49,54.47,484.6,54.59,484.84,54.71z
			 M487.44,56.68c0-0.12-0.06-0.19-0.18-0.22c-0.12-0.03-0.21,0.02-0.27,0.13c0.06,0.06,0.15,0.11,0.27,0.13
			C487.38,56.76,487.44,56.74,487.44,56.68z"/>
		<path d="M522.47,59.46c0.12-0.12,0.3-0.31,0.54-0.58c0.24-0.27,0.46-0.55,0.67-0.85c0.21-0.3,0.4-0.55,0.58-0.76
			c0.18-0.21,0.3-0.31,0.36-0.31c0.72-1.01,1.46-1.96,2.24-2.82c0.78-0.87,1.49-1.81,2.15-2.82c0.9-0.66,1.58-1.54,2.06-2.64
			c0.48-1.1,0.95-1.9,1.43-2.37c0-0.12-0.04-0.19-0.13-0.22c-0.09-0.03-0.16-0.07-0.22-0.13c0.12-0.3,0.21-0.52,0.27-0.67
			c0.06-0.15,0.24-0.22,0.54-0.22h0.18c0.66-0.9,1.52-1.4,2.6-1.52c1.08-0.12,2.09-0.39,3.05-0.81c0.06,0,0.15,0.12,0.27,0.36
			c0.9,0,1.84,0.17,2.82,0.49c0.99,0.33,1.81,0.73,2.46,1.21h0.09c0.12,0,0.15-0.06,0.09-0.18c-0.06-0.12-0.03-0.18,0.09-0.18
			c0.3,0.3,0.84,0.61,1.61,0.94c0.78,0.33,1.28,0.49,1.52,0.49h0.63c0.12,0,0.49,0.15,1.12,0.45c0.63,0.3,1.06,0.57,1.3,0.81
			c0.18,0,0.27-0.03,0.27-0.09c0.12,0.42,0.48,0.63,1.07,0.63c0.18,0,0.3-0.03,0.36-0.09c0,0.24,0.25,0.61,0.76,1.12
			c0.51,0.51,1.06,1.02,1.66,1.52c0.6,0.51,1.4,1.12,2.42,1.84c1.14,1.02,2.11,2.15,2.91,3.4c0.81,1.25,1.21,2.66,1.21,4.21
			c0,0.24-0.03,0.46-0.09,0.67c-0.06,0.21-0.09,0.4-0.09,0.58v0.72c0,1.55-0.34,2.88-1.03,3.99c-0.69,1.11-1.48,2.08-2.37,2.91
			c-0.12,0.42-0.34,0.69-0.67,0.81c-0.33,0.12-0.55,0.36-0.67,0.72l-0.09-0.09c-0.18,0-0.58,0.28-1.21,0.85
			c-0.63,0.57-1.27,1.16-1.93,1.79c-0.66,0.63-1.22,1.21-1.7,1.75c-0.48,0.54-0.66,0.75-0.54,0.63c-0.24,0.36-0.63,0.75-1.16,1.16
			c-0.54,0.42-1.15,0.84-1.84,1.25c-0.69,0.42-1.4,0.82-2.15,1.21c-0.75,0.39-1.48,0.7-2.2,0.94c-1.31,0.66-2.64,1.42-3.99,2.28
			c-1.34,0.87-2.49,1.3-3.45,1.3c-0.24,0-0.42-0.03-0.54-0.09c-0.06,0.12-0.13,0.21-0.22,0.27c-0.09,0.06-0.16,0.15-0.22,0.27
			c-0.12-0.06-0.19-0.11-0.22-0.13c-0.03-0.03-0.11-0.04-0.22-0.04c-1.14,0.42-2.39,0.63-3.76,0.63c-0.84,0-1.61-0.09-2.33-0.27
			c-0.72-0.18-1.28-0.48-1.7-0.9h-0.36c-0.6,0-1.12-0.17-1.57-0.49c-0.45-0.33-0.85-0.7-1.21-1.12c-0.36-0.42-0.73-0.85-1.12-1.3
			c-0.39-0.45-0.82-0.82-1.3-1.12c-0.3-0.66-0.52-1.21-0.67-1.66c-0.15-0.45-0.46-1-0.94-1.66v-0.36c0-0.3-0.03-0.61-0.09-0.94
			c-0.06-0.33-0.09-0.64-0.09-0.94c0.12-0.24,0.21-0.43,0.27-0.58c0.06-0.15,0.09-0.37,0.09-0.67v-1.52v-0.9
			c0-0.3-0.01-0.61-0.05-0.94c-0.03-0.33-0.04-0.64-0.04-0.94c0-0.54,0.06-0.95,0.18-1.25v-0.36c0-1.01,0.28-2.07,0.85-3.18
			c0.57-1.1,1.09-2.11,1.57-3c0-0.06-0.02-0.1-0.05-0.13c-0.03-0.03-0.04-0.07-0.04-0.13V59.46z M534.3,70.12
			c0.72-0.3,1.39-0.58,2.01-0.85c0.63-0.27,1.21-0.67,1.75-1.21l0.18,0.09c0.3,0,0.52-0.13,0.67-0.4c0.15-0.27,0.37-0.4,0.67-0.4
			h0.18c0.12-0.24,0.52-0.6,1.21-1.08c0.69-0.48,1.43-0.99,2.24-1.52c0.81-0.54,1.58-1.08,2.33-1.61c0.75-0.54,1.27-0.99,1.57-1.34
			c0.06-0.06,0.25-0.21,0.58-0.45c0.33-0.24,0.67-0.54,1.03-0.9c0.36-0.36,0.69-0.78,0.99-1.25c0.3-0.48,0.45-1.02,0.45-1.61
			c0-0.54-0.16-1.02-0.49-1.43c-0.33-0.42-0.72-0.81-1.17-1.17c-0.45-0.36-0.91-0.7-1.39-1.03c-0.48-0.33-0.84-0.67-1.08-1.03
			c-1.14,1.2-2.25,2.42-3.36,3.67c-1.11,1.25-2.43,2.81-3.99,4.66c-1.14,1.37-2.2,2.75-3.18,4.12c-0.98,1.37-1.81,2.72-2.46,4.03
			h0.27c0.3,0,0.48,0.09,0.54,0.27C533.91,69.85,534.06,70,534.3,70.12z"/>
		<path d="M555.89,80.15c-0.06,0.06-0.12,0-0.18-0.18c-0.06-0.18-0.09-0.4-0.09-0.67c0-0.27,0-0.54,0-0.81
			c0-0.27,0.03-0.49,0.09-0.67c0.12-0.42,0.28-0.72,0.49-0.9c0.21-0.18,0.37-0.39,0.49-0.63c0.06-0.18,0.12-0.42,0.18-0.72
			c0.06-0.3,0.03-0.45-0.09-0.45c0.3-0.48,0.57-1.01,0.81-1.61c0.24-0.6,0.45-0.99,0.63-1.16c0.6-1.25,1.18-2.79,1.75-4.61
			c0.57-1.82,1.15-3.33,1.75-4.52c0.48-0.95,0.93-1.93,1.34-2.91c0.42-0.99,0.78-2.02,1.08-3.09c0.3-0.12,0.51-0.54,0.63-1.25
			c0.12-0.72,0.42-1.25,0.9-1.61c0.66-2.27,1.4-4.4,2.24-6.41c0.84-2,1.49-4.08,1.97-6.23c0.3,0,0.51,0.09,0.63,0.27
			c0-0.36,0.16-0.57,0.49-0.63c0.33-0.06,0.58-0.03,0.76,0.09c0.24,0.24,0.21,0.36-0.09,0.36c0,0.12,0.07,0.17,0.22,0.13
			c0.15-0.03,0.19,0.08,0.13,0.31c0.12-0.06,0.24-0.1,0.36-0.13c0.12-0.03,0.18-0.13,0.18-0.31c0.18,0.3,0.39,0.42,0.63,0.36
			c0.24-0.06,0.42,0.09,0.54,0.45c0.12-0.06,0.13-0.1,0.04-0.13c-0.09-0.03-0.11-0.1-0.04-0.22c0.36,0.12,0.73,0.33,1.12,0.63
			c0.39,0.3,0.82,0.51,1.3,0.63c0.42,0.66,0.69,1.3,0.81,1.93c0.12,0.63,0.39,1.18,0.81,1.66c-0.12,0.6-0.26,1.21-0.4,1.84
			c-0.15,0.63-0.31,1.27-0.49,1.93c0.06,0.24,0.13,0.21,0.22-0.09c0.09-0.3,0.16-0.33,0.22-0.09c0.36-0.48,0.81-0.88,1.34-1.21
			c0.54-0.33,1.11-0.73,1.7-1.21c-0.12-0.24,0.03-0.48,0.45-0.72c0.42-0.24,0.69-0.48,0.81-0.72c0.36-0.48,0.72-1.03,1.08-1.66
			c0.36-0.63,0.72-1.18,1.07-1.66c0.3-0.3,0.57-0.57,0.81-0.81c0.24-0.24,0.45-0.48,0.63-0.72c0.3-0.24,0.55-0.52,0.76-0.85
			c0.21-0.33,0.46-0.49,0.76-0.49c-0.12-0.3-0.02-0.57,0.31-0.81c0.33-0.24,0.61-0.45,0.85-0.63c0.06,0.18,0.06,0.28,0,0.31
			c-0.06,0.03-0.09,0.17-0.09,0.4c0.06,0.12,0.16,0.11,0.31-0.04c0.15-0.15,0.22-0.28,0.22-0.4c0.18,0.24,0.36,0.36,0.54,0.36
			c0.18,0,0.24,0.24,0.18,0.72c0.24,0.06,0.42,0.03,0.54-0.09c0.12-0.12,0.09-0.06-0.09,0.18c0.12,0,0.25-0.06,0.4-0.18
			c0.15-0.12,0.22-0.03,0.22,0.27c0.12-0.06,0.21-0.06,0.27,0c0.06,0.06,0.15,0.03,0.27-0.09c0.12,0.48,0.36,0.75,0.72,0.81
			c0.36,0.06,0.54,0.24,0.54,0.54c0.3-0.06,0.48-0.1,0.54-0.13c0.06-0.03,0.15,0.02,0.27,0.13c-0.06,0.24,0.03,0.46,0.27,0.67
			c0.24,0.21,0.18,0.28-0.18,0.22c0.12,0.12,0.21,0.19,0.27,0.22c0.06,0.03,0.03,0.11-0.09,0.22c0.06-0.12,0.15-0.16,0.27-0.13
			c0.12,0.03,0.21-0.01,0.27-0.13c0.06,0.12,0.16,0.19,0.31,0.22c0.15,0.03,0.25,0.11,0.31,0.22c-0.12,0.6,0.12,0.96,0.72,1.07
			c0,0.18-0.09,0.34-0.27,0.49c-0.18,0.15-0.18,0.31,0,0.49c0.06-0.06,0.1-0.13,0.13-0.22c0.03-0.09,0.07-0.16,0.13-0.22
			c0.06,0,0.08,0.25,0.05,0.76c-0.03,0.51-0.13,0.91-0.31,1.21c0.12,0,0.19,0.11,0.22,0.31c0.03,0.21-0.02,0.37-0.13,0.49
			c0.12,0,0.21-0.03,0.27-0.09c0,0.3-0.2,0.82-0.58,1.57c-0.39,0.75-0.64,1.39-0.76,1.93c-0.24,0.24-0.48,0.61-0.72,1.12
			c-0.24,0.51-0.33,0.91-0.27,1.21c-0.06,0-0.09-0.03-0.09-0.09c-0.36,0.72-0.66,1.51-0.9,2.37c-0.24,0.87-0.6,1.63-1.07,2.28
			c-0.06,0.06-0.09-0.03-0.09-0.27c-0.18,0.06-0.22,0.19-0.13,0.4c0.09,0.21,0.16,0.31,0.22,0.31c-0.12,0.12-0.17,0.31-0.13,0.58
			c0.03,0.27-0.08,0.34-0.31,0.22c0.18,0.3,0.18,0.52,0,0.67c-0.18,0.15-0.21,0.34-0.09,0.58c-0.12-0.12-0.22-0.12-0.31,0
			c-0.09,0.12-0.16,0.15-0.22,0.09c-0.36,0.66-0.48,1.46-0.36,2.42c-0.24-0.12-0.39-0.12-0.45,0c-0.06,0.12-0.18,0.12-0.36,0
			c0.12,0.24,0.12,0.37,0,0.4c-0.12,0.03-0.24,0.02-0.36-0.04c0,0.06,0.03,0.09,0.09,0.09c0.06,0.18,0.01,0.21-0.13,0.09
			c-0.15-0.12-0.25-0.09-0.31,0.09v-0.27c-0.42,0.18-0.81,0.13-1.17-0.13c-0.36-0.27-0.57-0.25-0.63,0.04
			c-0.12-0.24-0.18-0.63-0.18-1.16c-0.3,0.36-0.49,0.42-0.58,0.18c-0.09-0.24-0.29-0.3-0.58-0.18c-0.12-0.24-0.24-0.43-0.36-0.58
			c-0.12-0.15-0.24-0.28-0.36-0.4c0,0.18-0.09,0.27-0.27,0.27c-0.18-0.6-0.37-0.95-0.58-1.07c-0.21-0.12-0.46-0.51-0.76-1.16
			c-0.6,0.42-1.14,0.91-1.61,1.48c-0.48,0.57-1.05,1.06-1.7,1.48v-0.18c-0.12,0.06-0.12,0.13,0,0.22c0.12,0.09,0.12,0.22,0,0.4
			c-0.12,0-0.24,0.09-0.36,0.27c-0.12,0.18-0.24,0.34-0.36,0.49c-0.12,0.15-0.26,0.27-0.4,0.36c-0.15,0.09-0.28,0.08-0.4-0.05
			c-0.06,0.06-0.03,0.15,0.09,0.27c-0.54,0.66-1.07,1.36-1.61,2.11c-0.54,0.75-1.05,1.33-1.52,1.75c-0.12,0-0.15,0.02-0.09,0.04
			c0.06,0.03,0.09,0.11,0.09,0.22c-0.66,0.84-1.35,1.9-2.06,3.18c-0.72,1.28-1.31,2.34-1.79,3.18c-0.06,0-0.15,0.17-0.27,0.49
			c-0.12,0.33-0.24,0.55-0.36,0.67c-0.12,0.06-0.15,0.06-0.09,0c0.06-0.06,0.03,0.06-0.09,0.36c-0.18,0.3-0.43,0.69-0.76,1.16
			c-0.33,0.48-0.64,0.87-0.94,1.17c-0.3,0.36-0.6,0.67-0.9,0.94c-0.3,0.27-0.6,0.58-0.9,0.94c-0.18,0.42-0.37,0.87-0.58,1.34
			c-0.21,0.48-0.49,0.93-0.85,1.34c-0.18,0.3-0.45,0.72-0.81,1.25c-0.36,0.54-0.48,1.1-0.36,1.7c-0.48-0.06-1.02-0.12-1.61-0.18
			c-0.6-0.06-1.11,0-1.52,0.18c-0.06-0.12-0.12-0.31-0.18-0.58c-0.06-0.27-0.15-0.55-0.27-0.85c-0.12,0.06-0.21,0.15-0.27,0.27
			c-0.06,0.12-0.15,0.15-0.27,0.09c0-0.3-0.12-0.45-0.36-0.45c-0.24,0-0.27-0.12-0.09-0.36c-0.3,0.06-0.51-0.05-0.63-0.31
			c-0.12-0.27-0.27-0.34-0.45-0.22c-0.12-0.3-0.19-0.51-0.22-0.63c-0.03-0.12-0.04-0.3-0.04-0.54c-0.18-0.12-0.3-0.15-0.36-0.09
			c-0.06,0.06-0.21,0.09-0.45,0.09c0-0.48-0.08-0.75-0.22-0.81c-0.15-0.06-0.28-0.21-0.4-0.45v0.36c-0.24-0.12-0.39-0.33-0.45-0.63
			C555.65,80.57,555.71,80.33,555.89,80.15z"/>
		<path d="M629.71,61.61c-0.06-0.06-0.11-0.09-0.13-0.09c-0.03,0-0.08-0.03-0.13-0.09c0.24,0.36,0.58,0.39,1.03,0.09
			c0.45-0.3,0.85-0.45,1.21-0.45c0,0.12-0.03,0.19-0.09,0.22c-0.06,0.03-0.09,0.08-0.09,0.13c0.12,0.18,0.22,0.21,0.31,0.09
			c0.09-0.12,0.19-0.12,0.31,0c0.06,0.18,0.01,0.3-0.13,0.36c-0.15,0.06-0.22,0.03-0.22-0.09c-0.12,0.06-0.18,0.13-0.18,0.22
			c0,0.09-0.06,0.13-0.18,0.13c0.06,0.24,0.06,0.48,0,0.72c0.24,0,0.48-0.03,0.72-0.09c-0.06,0.24-0.09,0.54-0.09,0.9
			c-0.3,0.18-0.52,0.37-0.67,0.58c-0.15,0.21-0.37,0.43-0.67,0.67c-0.12,0.06-0.18,0.04-0.18-0.04c0-0.09-0.06-0.13-0.18-0.13v0.36
			c-0.3-0.06-0.46-0.01-0.49,0.13c-0.03,0.15-0.11,0.31-0.22,0.49c0.18,0,0.3-0.04,0.36-0.13c0.06-0.09,0.18-0.19,0.36-0.31
			c0,0.12,0.06,0.19,0.18,0.22c0.12,0.03,0.18,0.1,0.18,0.22c-0.18,0-0.3,0.03-0.36,0.09c-0.06,0.06-0.18,0.09-0.36,0.09
			c0,0.06-0.02,0.11-0.04,0.13c-0.03,0.03-0.05,0.11-0.05,0.22c-0.18-0.06-0.27-0.01-0.27,0.13c0,0.15-0.03,0.28-0.09,0.4
			c-0.48,0-0.85,0.12-1.12,0.36c-0.27,0.24-0.61,0.33-1.03,0.27c-0.12,0.24-0.31,0.36-0.58,0.36c-0.27,0-0.46,0.15-0.58,0.45
			c-0.12,0.06-0.19,0.06-0.22,0c-0.03-0.06-0.08-0.09-0.13-0.09c-0.18,0.3-0.42,0.48-0.72,0.54c-0.3,0.06-0.54,0.18-0.72,0.36h0.09
			c-0.12,0.36-0.3,0.63-0.54,0.81c-0.24,0.18-0.45,0.18-0.63,0c-0.12,0.24-0.28,0.43-0.49,0.58c-0.21,0.15-0.37,0.31-0.49,0.49
			c0.12,0.06,0.28,0,0.49-0.18c0.21-0.18,0.37-0.15,0.49,0.09c-0.3,0.3-0.66,0.54-1.08,0.72c-0.42,0.18-0.84,0.33-1.25,0.45
			c0,0.24,0.03,0.31,0.09,0.22c0.06-0.09,0.09-0.07,0.09,0.04c-0.12,0.12-0.24,0.19-0.36,0.22c-0.12,0.03-0.18,0.19-0.18,0.49
			c-0.6-0.12-0.87,0.12-0.81,0.72c-0.12,0.06-0.21,0-0.27-0.18c-0.84,0.66-1.75,1.22-2.73,1.7c-0.98,0.48-1.93,1.02-2.82,1.61
			c-0.66,0-1.25,0.33-1.79,0.99c-0.9,0.3-1.75,0.67-2.55,1.12c-0.81,0.45-1.6,0.91-2.37,1.39c0,0.12,0.03,0.15,0.09,0.09
			c0.06-0.06,0.12-0.09,0.18-0.09c-0.66,0.54-1.39,0.96-2.19,1.25c-0.81,0.3-1.54,0.72-2.2,1.25c-0.78,0.06-1.49,0.24-2.15,0.54
			c-0.66,0.3-1.31,0.51-1.97,0.63c-0.12,0.06-0.28,0.07-0.49,0.04c-0.21-0.03-0.43-0.02-0.67,0.05c-0.48,0.12-1.15,0.15-2.02,0.09
			c-0.87-0.06-1.6-0.15-2.2-0.27c-0.12-0.06-0.25-0.13-0.4-0.22c-0.15-0.09-0.31-0.19-0.49-0.31c-0.06,0-0.13,0.03-0.22,0.09
			c-0.09,0.06-0.17,0.03-0.22-0.09c-0.12-0.06-0.24-0.18-0.36-0.36c-0.12-0.18-0.3-0.33-0.54-0.45c-0.3-0.18-0.6-0.37-0.9-0.58
			c-0.3-0.21-0.6-0.37-0.9-0.49c0-0.12-0.03-0.19-0.09-0.22c-0.06-0.03-0.09-0.1-0.09-0.22c-0.18,0-0.27-0.03-0.27-0.09
			c-0.06-0.12-0.08-0.21-0.04-0.27c0.03-0.06,0.04-0.12,0.04-0.18c-0.12-0.06-0.16-0.04-0.13,0.05c0.03,0.09,0.01,0.1-0.04,0.04
			c-0.48-0.66-0.9-1.36-1.25-2.11c-0.36-0.75-0.78-1.39-1.25-1.93c-0.12-0.9-0.42-1.58-0.9-2.06c-0.06,0-0.05,0.05,0.04,0.13
			c0.09,0.09,0.08,0.13-0.04,0.13c-0.6-0.9-0.88-2.07-0.85-3.54c0.03-1.46,0.28-2.79,0.76-3.99c0.18-0.24,0.33-0.51,0.45-0.81
			c0.12-0.3,0.33-0.51,0.63-0.63c0.66-1.67,1.49-3.09,2.51-4.26c1.01-1.16,2-2.28,2.96-3.36c0.18-0.24,0.37-0.45,0.58-0.63
			c0.21-0.18,0.43-0.42,0.67-0.72c0.18-0.24,0.45-0.51,0.81-0.81c0.3-0.3,0.61-0.6,0.94-0.9c0.33-0.3,0.67-0.6,1.03-0.9
			c0.6-0.48,1.09-0.97,1.48-1.48c0.39-0.51,0.88-0.91,1.48-1.21c0-0.12,0.01-0.18,0.05-0.18c0.03,0,0.04-0.06,0.04-0.18
			c0.42-0.18,0.79-0.4,1.12-0.67c0.33-0.27,0.64-0.64,0.94-1.12c0.48,0.06,0.82-0.09,1.03-0.45c0.21-0.36,0.46-0.63,0.76-0.81
			c0.24-0.12,0.46-0.21,0.67-0.27c0.21-0.06,0.4-0.18,0.58-0.36c0.24-0.24,0.45-0.42,0.63-0.54c0.9-0.6,1.79-1.15,2.69-1.66
			c0.9-0.51,1.85-1,2.87-1.48c0.66-0.3,1.34-0.66,2.06-1.08c0.72-0.42,1.49-0.75,2.33-0.99c0.18,0,0.27-0.06,0.27-0.18
			c0.12,0.06,0.25,0.04,0.4-0.04c0.15-0.09,0.28-0.16,0.4-0.22c0.48-0.18,0.97-0.34,1.48-0.49c0.51-0.15,1-0.28,1.48-0.4
			c0.48,0,1.03,0.02,1.66,0.04c0.63,0.03,1.18,0.19,1.66,0.49c0.06,0.18,0.06,0.27,0,0.27c-0.06,0-0.12,0-0.18,0
			c0.24,0.18,0.51,0.36,0.81,0.54c0.3,0.18,0.51,0.48,0.63,0.9c0.12,0.12,0.3,0.24,0.54,0.36c0.18,0.54,0.42,0.84,0.72,0.9
			c-0.12,0.06-0.15,0.11-0.09,0.13c0.06,0.03,0.09,0.08,0.09,0.13c0.24,0.18,0.39,0.37,0.45,0.58c0.06,0.21,0.15,0.46,0.27,0.76
			c0.12,0.3,0.27,0.54,0.45,0.72c0.18,0.18,0.33,0.42,0.45,0.72c0.12,0.18,0.18,0.37,0.18,0.58c0,0.21,0.06,0.37,0.18,0.49
			c0,0.3-0.03,0.51-0.09,0.63c0.24,0.12,0.37,0.28,0.4,0.49c0.03,0.21,0.01,0.42-0.05,0.63c-0.06,0.21-0.11,0.43-0.13,0.67
			c-0.03,0.24,0.01,0.48,0.13,0.72c0,0.12-0.04,0.22-0.13,0.31c-0.09,0.09-0.11,0.22-0.05,0.4c-0.48,0.48-0.9,1.03-1.25,1.66
			c-0.36,0.63-0.75,1.18-1.17,1.66c-0.12,0.06-0.19,0.12-0.22,0.18c-0.03,0.06-0.11,0.12-0.22,0.18c-0.24,0.3-0.46,0.57-0.67,0.81
			c-0.21,0.24-0.46,0.48-0.76,0.72c-0.12,0.12-0.25,0.21-0.4,0.27c-0.15,0.06-0.28,0.21-0.4,0.45c-0.12,0.12-0.27,0.25-0.45,0.4
			c-0.18,0.15-0.33,0.28-0.45,0.4c-0.3,0.12-0.64,0.25-1.03,0.4c-0.39,0.15-0.67,0.37-0.85,0.67c-0.96,0.54-1.88,1.11-2.78,1.7
			c-0.9,0.6-1.85,1.14-2.87,1.61c-0.3,0.12-0.57,0.19-0.81,0.22c-0.24,0.03-0.45,0.17-0.63,0.4c-0.3,0-0.57,0.11-0.81,0.31
			c-0.24,0.21-0.54,0.34-0.9,0.4c-0.18,0-0.3,0.09-0.36,0.27l-0.27-0.09c-0.6,0.42-1.21,0.73-1.84,0.94
			c-0.63,0.21-1.27,0.4-1.93,0.58c-0.24,0.06-0.36,0.03-0.36-0.09c-0.3,0.06-0.52,0.15-0.67,0.27c-0.15,0.12-0.37,0.15-0.67,0.09
			c-0.12,0.12-0.24,0.21-0.36,0.27c-0.48,0-0.93,0.06-1.34,0.18c-0.42,0.12-0.87,0.12-1.34,0c-0.12,0-0.18,0.03-0.18,0.09
			c0,0.06-0.06,0.12-0.18,0.18c-0.3-0.12-0.6-0.18-0.9-0.18c-0.3,0-0.51-0.15-0.63-0.45c-0.12,0-0.24,0.02-0.36,0.05
			c-0.12,0.03-0.27-0.01-0.45-0.13c-0.48,0.48-0.96,0.99-1.43,1.52c-0.48,0.54-0.9,1.16-1.25,1.88c-0.06,0-0.09-0.01-0.09-0.04
			c0-0.03-0.03-0.05-0.09-0.05c-0.06,0.24-0.17,0.4-0.31,0.49c-0.15,0.09-0.22,0.34-0.22,0.76c-0.36,0.18-0.57,0.51-0.63,0.99
			c-0.06,0.48-0.24,0.87-0.54,1.16c0.66,0,1.36-0.09,2.11-0.27c0.75-0.18,1.45-0.3,2.11-0.36c0.12-0.06,0.18-0.13,0.18-0.22
			c0-0.09,0.06-0.16,0.18-0.22c0.42,0.06,0.75,0.02,0.99-0.13c0.24-0.15,0.54-0.22,0.9-0.22c0.06,0,0.15-0.12,0.27-0.36
			c0.3,0.06,0.66,0,1.08-0.18c0.42-0.18,0.78-0.36,1.08-0.54c0.66,0,1.3-0.16,1.93-0.49c0.63-0.33,1.27-0.55,1.93-0.67
			c0.3-0.36,0.7-0.54,1.21-0.54c0.51,0,0.85-0.21,1.03-0.63c0.48-0.12,0.93-0.22,1.34-0.31c0.42-0.09,0.84-0.28,1.25-0.58
			c0.06,0,0.09,0.03,0.09,0.09c0,0.06,0.06,0.06,0.18,0v-0.18c0.36-0.24,0.77-0.39,1.25-0.45c0.48-0.06,0.86-0.3,1.16-0.72
			c0.84,0,1.58-0.21,2.24-0.63h0.09c0.06,0,0.09,0.02,0.09,0.05c0,0.03,0.03,0.04,0.09,0.04s0.1-0.03,0.13-0.09
			c0.03-0.06,0.1-0.12,0.22-0.18c0.84-0.24,1.67-0.55,2.51-0.94c0.84-0.39,1.76-0.85,2.78-1.39c0.12,0.12,0.24,0.13,0.36,0.04
			c0.12-0.09,0.27-0.07,0.45,0.04c0.48-0.3,0.95-0.48,1.43-0.54c0.48-0.06,0.99-0.18,1.52-0.36c0.36-0.12,0.72-0.27,1.07-0.45
			c0.36-0.18,0.75-0.27,1.17-0.27c0.48,0,0.93-0.15,1.34-0.45c0.42-0.3,0.87-0.51,1.34-0.63c0.24,0,0.49-0.01,0.76-0.05
			c0.27-0.03,0.49-0.04,0.67-0.04c0,0.18-0.08,0.27-0.22,0.27c-0.15,0-0.22,0.09-0.22,0.27c-0.36-0.12-0.66-0.04-0.9,0.22
			c-0.24,0.27-0.54,0.34-0.9,0.22c-0.06,0.12-0.12,0.18-0.18,0.18C629.74,61.43,629.71,61.49,629.71,61.61z M606.06,58.02
			c0.18-0.3,0.42-0.34,0.72-0.13c0.3,0.21,0.54,0.19,0.72-0.04c-0.06,0.24-0.06,0.36,0,0.36c0.06,0,0.13-0.04,0.22-0.13
			c0.09-0.09,0.18-0.18,0.27-0.27c0.09-0.09,0.16-0.13,0.22-0.13c0.06-0.06,0.13-0.07,0.22-0.04c0.09,0.03,0.16,0.04,0.22,0.04
			c0.36,0.06,0.63-0.12,0.81-0.54c0.18-0.42,0.42-0.6,0.72-0.54c0.24-0.3,0.49-0.45,0.76-0.45c0.27,0,0.49-0.18,0.67-0.54
			c0.36,0,0.81-0.12,1.34-0.36c0.54-0.24,1.22-0.72,2.06-1.43c0.12-0.24,0.36-0.69,0.72-1.34c0.36-0.66,0.63-1.04,0.81-1.16
			c-0.12-0.12-0.28-0.15-0.49-0.09c-0.21,0.06-0.42,0.15-0.63,0.27c-0.21,0.12-0.42,0.22-0.63,0.31c-0.21,0.09-0.34,0.11-0.4,0.04
			c-0.12,0.12-0.39,0.34-0.81,0.67c-0.42,0.33-0.69,0.49-0.81,0.49c-0.42,0.06-0.76,0.28-1.03,0.67c-0.27,0.39-0.58,0.52-0.94,0.4
			c-0.12,0.24-0.27,0.45-0.45,0.63c-0.18,0.18-0.39,0.21-0.63,0.09c-0.12,0.12-0.24,0.24-0.36,0.36c-0.12,0.12-0.3,0.18-0.54,0.18
			c-0.06,0-0.08,0.04-0.04,0.13c0.03,0.09,0.01,0.13-0.05,0.13c-0.18-0.06-0.31-0.01-0.4,0.13c-0.09,0.15-0.19,0.22-0.31,0.22
			c0-0.06-0.03-0.09-0.09-0.09v0.18c-0.36,0.3-0.73,0.55-1.12,0.76c-0.39,0.21-0.73,0.55-1.03,1.03h-0.18v0.27
			c0.12,0,0.19-0.03,0.22-0.09C605.86,57.97,605.94,57.97,606.06,58.02z"/>
		<path d="M652.47,34.64c0.12,0.12,0.21,0.11,0.27-0.05c0.06-0.15,0.18-0.19,0.36-0.13c0,0.06-0.03,0.15-0.09,0.27
			c0.12,0,0.21-0.03,0.27-0.09c0.06-0.06,0.15-0.12,0.27-0.18c0.12,0.12,0.12,0.21,0,0.27c-0.12,0.06-0.12,0.15,0,0.27
			c0,0.12-0.08,0.18-0.22,0.18c-0.15,0-0.16,0.06-0.04,0.18c0.12,0.06,0.24,0,0.36-0.18c0.12-0.18,0.24-0.24,0.36-0.18
			c0,0.24-0.03,0.42-0.09,0.54c0.36-0.12,0.6-0.33,0.72-0.63c0.12-0.3,0.33-0.45,0.63-0.45c0.06,0.12,0.12,0.22,0.18,0.31
			c0.06,0.09,0.15,0.19,0.27,0.31c0.06-0.06,0.16-0.09,0.31-0.09c0.15,0,0.31-0.03,0.49-0.09c0.24,0.12,0.4,0.09,0.49-0.09
			s0.22-0.27,0.4-0.27c0.12,0.06,0.09,0.24-0.09,0.54c0.12,0.06,0.22,0.04,0.31-0.05c0.09-0.09,0.16-0.19,0.22-0.31
			c0.18,0.3,0.45,0.55,0.81,0.76c0.36,0.21,0.69,0.46,0.99,0.76c0.06,0,0.07-0.05,0.04-0.13c-0.03-0.09,0.01-0.13,0.13-0.13
			c0.12,0.48,0.24,0.75,0.36,0.81c0.18,0.66,0.39,1.2,0.63,1.61c0.24,0.42,0.36,0.9,0.36,1.43c-0.06,0.24-0.11,0.48-0.13,0.72
			c-0.03,0.24-0.08,0.42-0.13,0.54c-0.18,0.72-0.33,1.37-0.45,1.97c-0.12,0.6-0.09,1.16,0.09,1.7c0.24,0.78,0.33,1.58,0.27,2.42
			c-0.12,0-0.18,0.02-0.18,0.05c0,0.03-0.03,0.04-0.09,0.04c0,0.78-0.13,1.49-0.4,2.15c-0.27,0.66-0.55,1.31-0.85,1.97
			c-0.3,0.78-0.52,1.54-0.67,2.28c-0.15,0.75-0.4,1.48-0.76,2.2c0,0.12-0.02,0.18-0.05,0.18s-0.02,0.06,0.05,0.18
			c-0.18,0.12-0.27,0.31-0.27,0.58s-0.09,0.46-0.27,0.58c-0.12,0-0.24-0.06-0.36-0.18c-0.48,0.12-0.84,0.39-1.07,0.81
			c-0.24,0.42-0.6,0.69-1.08,0.81c0.06-0.18,0.05-0.22-0.04-0.13c-0.09,0.09-0.13,0.08-0.13-0.04c-0.12-0.06-0.18-0.04-0.18,0.04
			c0,0.09-0.03,0.13-0.09,0.13c-0.24,0-0.36-0.12-0.36-0.36c-0.12,0.12-0.18,0.13-0.18,0.04c0-0.09-0.06-0.07-0.18,0.05
			c-0.12,0.06-0.16,0.03-0.13-0.09c0.03-0.12-0.02-0.21-0.13-0.27c-0.3,0.12-0.55,0.06-0.76-0.18c-0.21-0.24-0.46-0.36-0.76-0.36
			c-0.24-0.3-0.57-0.48-0.99-0.54c-0.42-0.06-0.75-0.27-0.98-0.63c-0.12-0.3-0.26-0.52-0.4-0.67c-0.15-0.15-0.28-0.31-0.4-0.49
			c-0.06-0.48-0.18-0.78-0.36-0.9c-0.18-0.12-0.27-0.36-0.27-0.72c-0.3-0.18-0.49-0.37-0.58-0.58c-0.09-0.21-0.19-0.46-0.31-0.76
			c0.12-0.18,0.15-0.42,0.09-0.72c-0.06-0.3-0.15-0.51-0.27-0.63c0.18-0.36,0.24-0.72,0.18-1.08c-0.42,0.12-0.82,0.25-1.21,0.4
			c-0.39,0.15-0.82,0.28-1.3,0.4c-0.9,0.66-1.79,1.25-2.69,1.79c-0.9,0.54-1.67,1.22-2.33,2.06c-0.06,0-0.09-0.01-0.09-0.04
			c0-0.03-0.03-0.04-0.09-0.04c-0.6,0.66-1.15,1.3-1.66,1.93c-0.51,0.63-1.06,1.21-1.66,1.75c0.06,0.18,0.06,0.3,0,0.36
			c1.01,0.78,2.54,1.25,4.57,1.43c0.12,0.06,0.25,0.08,0.4,0.04c0.15-0.03,0.31-0.04,0.49-0.04c0.24,0.06,0.55,0.13,0.94,0.22
			c0.39,0.09,0.79,0.13,1.21,0.13c0.6,0.06,1.21,0.11,1.84,0.13c0.63,0.03,1.24,0.1,1.84,0.22c0.66,0.12,1.36,0.22,2.11,0.31
			c0.75,0.09,1.48,0.19,2.2,0.31c0.12,0,0.21-0.04,0.27-0.13s0.12-0.13,0.18-0.13c0.12,0.06,0.24,0.12,0.36,0.18
			c0.12,0.06,0.24,0.09,0.36,0.09c0.3,0.12,0.63,0.15,0.98,0.09c0.36-0.06,0.69-0.15,0.99-0.27c1.01-0.12,1.67,0.06,1.97,0.54
			c0.42-0.06,0.84-0.06,1.25,0c0.42,0.06,0.84,0.12,1.25,0.18c0.12,0.06,0.25,0.06,0.4,0c0.15-0.06,0.28-0.06,0.4,0
			c0.18,0.06,0.33,0.17,0.45,0.31c0.12,0.15,0.3,0.25,0.54,0.31c0.06,0.06,0.12,0.08,0.18,0.04c0.06-0.03,0.09-0.01,0.09,0.05
			c0.48,0.24,0.88,0.45,1.21,0.63c0.33,0.18,0.64,0.39,0.94,0.63c0.12,0.36,0.3,0.58,0.54,0.67c0.24,0.09,0.39,0.25,0.45,0.49
			c0,0.06,0.01,0.04,0.04-0.05c0.03-0.09,0.08-0.07,0.13,0.05c-0.24,0.54-0.21,1.25,0.09,2.15c0.06,0.12,0.15,0.24,0.27,0.36
			c0,0.06,0,0.18,0,0.36c0,0.18,0.06,0.3,0.18,0.36c-0.06,0.48-0.16,0.9-0.31,1.25c-0.15,0.36-0.28,0.75-0.4,1.16
			c-0.18,0-0.33,0.03-0.45,0.09c-0.12,0.06-0.3,0.09-0.54,0.09c-0.42,0.54-0.93,0.93-1.52,1.16c-0.6,0.24-1.14,0.6-1.61,1.07
			c-0.72,0.24-1.19,0.42-1.43,0.54c-1.61,0.54-3.21,1.11-4.79,1.7c-1.58,0.6-3.24,1.11-4.97,1.52c-0.12,0-0.16,0.06-0.13,0.18
			c0.03,0.12-0.01,0.18-0.13,0.18c-0.18,0-0.27-0.06-0.27-0.18c-0.9,0.48-1.78,0.81-2.64,0.99c-0.87,0.18-1.78,0.45-2.73,0.81
			c-0.06,0-0.09,0.06-0.09,0.18c-2.03,0.54-4,1.22-5.91,2.06c-0.66,0.24-1.24,0.48-1.75,0.72c-0.51,0.24-1.09,0.36-1.75,0.36
			c0,0.06-0.02,0.11-0.04,0.13c-0.03,0.03-0.05,0.11-0.05,0.22c-0.3,0-0.51-0.03-0.63-0.09c-0.66,0.12-1.27,0.25-1.84,0.4
			c-0.57,0.15-1.09,0.31-1.57,0.49c-0.18,0.06-0.36,0.13-0.54,0.22c-0.18,0.09-0.36,0.19-0.54,0.31c-0.48,0.12-0.94,0.16-1.39,0.13
			c-0.45-0.03-0.85,0.1-1.21,0.4c-0.66-0.06-1.31-0.02-1.97,0.13c-0.66,0.15-1.4,0.19-2.24,0.13c0-0.3,0.06-0.49,0.18-0.58
			c0.12-0.09,0.18-0.19,0.18-0.31c0.12,0.12,0.27,0.16,0.45,0.13c0.18-0.03,0.3-0.11,0.36-0.22c0.12-0.12,0.15-0.22,0.09-0.31
			c-0.06-0.09-0.09-0.19-0.09-0.31c-0.18,0-0.39,0.01-0.63,0.04c-0.24,0.03-0.42,0.1-0.54,0.22c-0.12,0.06-0.24,0.16-0.36,0.31
			c-0.12,0.15-0.27,0.19-0.45,0.13c0-0.12,0.04-0.25,0.13-0.4c0.09-0.15,0.19-0.28,0.31-0.4h-0.09v-0.18
			c-0.12,0.06-0.21,0.06-0.27,0c-0.06-0.06-0.12-0.03-0.18,0.09c-0.12-0.06-0.15-0.13-0.09-0.22c0.06-0.09,0.06-0.17,0-0.22
			c-0.18,0.06-0.24,0.13-0.18,0.22c0.06,0.09,0.09,0.19,0.09,0.31c-0.3,0.12-0.48,0.1-0.54-0.04c-0.06-0.15-0.15-0.17-0.27-0.04
			c-0.12-0.24-0.07-0.46,0.13-0.67c0.21-0.21,0.22-0.43,0.04-0.67c-0.12,0.06-0.22,0.12-0.31,0.18c-0.09,0.06-0.19,0.06-0.31,0
			c-0.06-0.24-0.04-0.49,0.05-0.76c0.09-0.27,0.08-0.52-0.05-0.76c0.12-0.12,0.24-0.25,0.36-0.4c0.12-0.15,0.24-0.22,0.36-0.22
			c-0.06-0.42,0.05-0.69,0.31-0.81c0.27-0.12,0.37-0.33,0.31-0.63c0.3-0.12,0.52-0.22,0.67-0.31c0.15-0.09,0.37-0.1,0.67-0.04
			c0.9-0.48,1.73-0.81,2.51-0.99c0.78-0.18,1.58-0.48,2.42-0.9c-0.06-0.18-0.12-0.21-0.18-0.09c-0.06,0.12-0.12,0.15-0.18,0.09
			c0.95-0.66,2.03-1.19,3.23-1.61c1.19-0.42,2.24-0.95,3.14-1.61c0.12,0.06,0.19,0.06,0.22,0c0.03-0.06,0.07-0.03,0.13,0.09
			c0.54-0.3,1.12-0.54,1.75-0.72s1.12-0.51,1.48-0.99c0.12,0,0.25-0.05,0.4-0.13c0.15-0.09,0.28-0.13,0.4-0.13
			c0.78-0.54,1.63-1.01,2.55-1.43c0.93-0.42,1.81-0.9,2.64-1.43c-0.12-0.12-0.24-0.18-0.36-0.18c-0.06,0-0.12,0.02-0.18,0.04
			c-0.06,0.03-0.12,0.05-0.18,0.05c-0.24-0.12-0.52-0.16-0.85-0.13c-0.33,0.03-0.64,0.04-0.94,0.04c-0.3-0.06-0.61-0.13-0.94-0.22
			c-0.33-0.09-0.64-0.19-0.94-0.31c-0.3-0.12-0.58-0.16-0.85-0.13c-0.27,0.03-0.55-0.01-0.85-0.13c-0.3-0.24-0.66-0.39-1.08-0.45
			c-0.42-0.06-0.78-0.15-1.08-0.27c-0.42-0.72-0.97-1.19-1.66-1.43c-0.69-0.24-1.18-0.72-1.48-1.43c-0.9-0.3-1.45-0.81-1.66-1.52
			c-0.21-0.72-0.52-1.4-0.94-2.06c-0.12,0-0.15,0.08-0.09,0.22c0.06,0.15,0.03,0.25-0.09,0.31c-0.24-0.48-0.3-1.1-0.18-1.88
			c0.12-0.78,0.21-1.4,0.27-1.88c0.12-0.3,0.18-0.58,0.18-0.85c0-0.27,0.12-0.52,0.36-0.76c-0.3-0.3-0.51-0.48-0.63-0.54
			c-0.06-0.3-0.03-0.51,0.09-0.63c0.12-0.12,0.3-0.27,0.54-0.45c0.3-0.42,0.51-0.95,0.63-1.61c0.42-0.3,0.75-0.67,0.99-1.12
			c0.24-0.45,0.51-0.85,0.81-1.21c0,0.06,0.03,0.09,0.09,0.09c0.6-0.48,1.21-0.99,1.84-1.52c0.63-0.54,1.24-1.08,1.84-1.61
			c0.42-0.12,0.81-0.36,1.16-0.72c0.66-0.48,1.25-1,1.79-1.57c0.54-0.57,1.13-1.03,1.79-1.39c0.06-0.12,0.16-0.19,0.31-0.22
			c0.15-0.03,0.22-0.16,0.22-0.4c0.6-0.12,1.15-0.39,1.66-0.81c0.51-0.42,1.15-0.72,1.93-0.9c0.06,0,0.18-0.15,0.36-0.45
			c0.84-0.12,1.66-0.4,2.46-0.85c0.81-0.45,1.63-0.52,2.46-0.22c0.06-0.3,0.07-0.52,0.04-0.67c-0.03-0.15-0.04-0.4-0.04-0.76
			c0.12-0.12,0.24-0.12,0.36,0c0.24-0.36,0.52-0.67,0.85-0.94c0.33-0.27,0.58-0.67,0.76-1.21c0.24,0,0.39-0.09,0.45-0.27
			c0.06-0.18,0.18-0.33,0.36-0.45L652.47,34.64z M621.11,80.96c0.06-0.18,0.03-0.27-0.09-0.27c-0.12,0-0.18,0.06-0.18,0.18
			C620.9,80.93,620.99,80.96,621.11,80.96z M627.92,75.5c-0.24,0-0.36,0.12-0.36,0.36C627.8,75.85,627.92,75.73,627.92,75.5z"/>
	</g>
</g>
</svg>
