<svg width="169" height="26" viewBox="0 0 169 26" fill="none" xmlns="http://www.w3.org/2000/svg">
<g clip-path="url(#clip0_48_34)">
<path d="M24.0522 4.92136C24.921 4.92136 48.6262 4.92136 48.6262 4.92136C48.6262 4.92136 48.0462 3.92087 46.5543 2.62657C45.0625 1.33227 43.9379 0.904215 40.8756 0.392573C37.555 -0.162127 26.3673 -0.0152203 24.7513 0.157015C23.3886 0.303922 23.0289 0.709183 22.8694 0.944741C22.5705 1.38293 22.5806 1.83125 22.6566 2.44927C22.7123 2.90266 22.8263 3.38644 22.9276 3.81449C23.1834 4.88083 23.7584 4.92136 24.0522 4.92136Z" fill="#BE1E2D"/>
<path d="M50.5917 5.64068C51.0755 5.64068 53.0132 5.20502 53.4488 4.67312C53.8845 4.14121 53.1094 3.55865 52.5294 3.26737C51.9494 2.97609 50.9641 2.44419 50.1004 2.87984C50.1004 2.87984 49.9636 2.87984 49.8167 3.55865C49.6698 4.23493 50.1054 5.64068 50.5917 5.64068Z" fill="#BE1E2D"/>
<path d="M11.4131 7.32001C12.2692 7.69234 19.4601 4.97963 19.4601 4.97963C19.4601 4.97963 20.339 4.72634 20.8633 3.52576C21.2609 2.61645 21.8283 1.39814 21.3825 0.886496C21.2913 0.785181 21.0229 0.514163 20.2199 0.807976C18.9256 1.27909 16.2686 2.30237 13.5838 4.49078C11.7956 5.94719 10.557 6.94767 11.4131 7.32001Z" fill="#BE1E2D"/>
<path d="M9.9719 6.58546C9.99216 6.87168 11.2662 4.43758 14.8654 2.3125C15.3745 2.01108 13.5889 2.26691 11.8994 2.71269C11.0357 2.94065 9.23483 3.32312 9.06007 3.93101C8.89796 4.49584 9.33615 5.02268 9.49319 5.24051C9.67049 5.54192 9.93391 6.06369 9.9719 6.58546Z" fill="#BE1E2D"/>
<path d="M22.7199 21.4712C22.8744 21.2888 23.0188 21.0254 23.1454 20.6885C26.1292 20.6682 40.6071 20.5087 49.9408 20.4023C50.1814 20.9798 50.46 21.4028 50.7665 21.6282C45.4905 21.499 39.0013 21.423 31.9801 21.423C28.7583 21.4256 25.6505 21.4433 22.7199 21.4712ZM12.7151 19.9641C13.8928 20.0249 15.0858 20.0604 16.1319 20.0806C16.3725 20.7544 16.6613 21.266 16.983 21.5522C15.1567 21.5852 13.4369 21.6231 11.8412 21.6662C12.1831 21.456 12.4871 20.8405 12.7151 19.9641ZM5.95733 16.18C5.95733 13.7991 6.44364 11.8716 7.04394 11.8716C7.64423 11.8716 8.12801 13.7991 8.12801 16.18C8.12801 18.5584 7.6417 20.4884 7.04394 20.4884C6.44111 20.4884 5.95733 18.5584 5.95733 16.18ZM17.8289 9.95924C18.5255 9.95924 19.0903 12.2034 19.0903 14.9693C19.0903 17.7377 18.5255 19.9818 17.8289 19.9818C17.1324 19.9818 16.5676 17.7377 16.5676 14.9693C16.5676 12.2034 17.1324 9.95924 17.8289 9.95924ZM55.617 21.7777C56.4553 21.6561 56.6706 20.4732 56.734 20.3288C57.547 20.3187 57.6888 20.3314 58.008 20.3288C58.5956 20.3263 58.5399 19.2042 58.626 16.9323C58.6665 15.8963 58.8261 14.6349 58.7121 12.3503C58.5754 9.6325 56.6504 6.97551 55.0926 6.94258C52.7776 6.89446 51.5213 7.49981 50.5335 9.92631C50.921 9.91365 55.8576 9.92885 56.3211 10.3898C56.7821 10.8533 56.7821 12.1147 56.7821 12.1147C56.7821 12.1147 51.5846 11.9779 49.994 12.0843C49.6748 14.1486 49.5102 16.1572 46.3694 16.5295C41.4126 17.1172 36.5469 16.9069 34.9436 14.179C34.6624 13.7003 34.2496 13.0063 33.6088 12.211C30.8834 12.1831 26.1342 12.2819 25.8784 12.2819C25.5415 12.2819 25.3744 11.5676 25.2908 11.0636C25.154 10.2429 25.5846 10.362 31.4001 10.0276C29.9665 8.8853 28.006 7.74297 25.3085 6.859C18.761 4.71365 17.1679 6.10167 16.1927 8.24701C15.4227 9.94404 15.3214 11.7196 15.4303 13.8244C15.4506 14.2018 15.4278 15.4201 15.4303 15.5493C13.9638 15.4657 11.4765 15.6734 11.3448 12.948C11.2131 10.1923 11.6538 9.31082 11.6538 9.14112C11.6538 8.97395 9.57428 8.93089 10.0606 7.71258C10.5469 6.49426 7.90511 7.86961 7.31749 8.3002C6.96795 8.41672 6.49937 8.83971 6.34486 9.52105C6.3018 9.71102 6.26888 10.1467 6.24861 10.7292C5.547 11.2611 5.01763 13.4977 5.01763 16.1775C5.01763 18.0872 5.28612 19.7716 5.69391 20.7746C5.81296 21.0684 6.14983 21.6763 6.44364 21.8536C2.39864 22.036 0 22.2614 0 22.5046C0 23.0998 14.3184 23.5811 31.9801 23.5811C49.6419 23.5811 63.9603 23.0973 63.9603 22.5046C63.9577 22.2234 60.7992 21.9702 55.617 21.7777Z" fill="#BE1E2D"/>
<path d="M72.8127 23.2518C72.7215 23.2822 72.6278 23.2594 72.529 23.1834C72.4302 23.1074 72.3137 23.0542 72.1769 23.0238C72.1465 23.0238 72.1237 23.0466 72.1085 23.0922C72.0933 23.1378 72.0705 23.1378 72.0401 23.0922C72.0705 23.0162 72.0629 22.925 72.0173 22.8212C71.9869 22.882 71.9718 22.9504 71.9718 23.0263C71.8958 23.0263 71.8274 22.9807 71.7666 22.8896C71.7666 22.8592 71.7691 22.8338 71.7767 22.811C71.7843 22.7882 71.8248 22.7857 71.9008 22.8009V22.6185C71.916 22.6337 71.9236 22.6261 71.9236 22.5958C71.9236 22.5654 71.9388 22.5578 71.9692 22.573C71.954 22.5578 71.9515 22.535 71.9566 22.5046C71.9642 22.4742 71.954 22.4514 71.9236 22.4362C71.9084 22.4514 71.9084 22.4691 71.9236 22.4919C71.9388 22.5147 71.9388 22.54 71.9236 22.5704C71.9084 22.54 71.878 22.5071 71.8324 22.4691C71.7869 22.4311 71.7489 22.421 71.7185 22.4362V22.0968C71.6577 22.0208 71.5817 21.9575 71.4905 21.9043C71.3993 21.8511 71.3917 21.7422 71.4677 21.575C71.5285 21.5598 71.5893 21.5218 71.6501 21.461C71.7109 21.4002 71.7337 21.3242 71.7185 21.2331H71.9008C72.068 21.0203 72.2301 20.8177 72.3897 20.6201C72.5492 20.4225 72.719 20.2199 72.9013 20.0071C72.5999 20.0071 72.2858 20.0299 71.9591 20.0755C71.6349 20.1211 71.3664 20.0983 71.1536 20.0071C71.108 20.0527 71.0447 20.0755 70.9611 20.0755C70.8776 20.0755 70.8066 20.1135 70.7458 20.1895C70.7154 20.1439 70.6851 20.1287 70.6547 20.1439C70.6243 20.1591 70.5939 20.1439 70.5635 20.0983C70.5939 19.9768 70.6496 19.9134 70.7332 19.9058C70.8168 19.8982 70.8877 19.8729 70.9485 19.8273C70.9181 19.8273 70.8927 19.8248 70.87 19.8147C70.8472 19.8071 70.8066 19.7893 70.7458 19.7589C70.7002 19.8197 70.6445 19.8602 70.5761 19.883C70.5078 19.9058 70.4596 19.9464 70.4292 20.0071C70.3532 19.9312 70.2747 19.9134 70.1911 19.9514C70.1076 19.9894 70.0518 20.0299 70.0214 20.0755C70.0214 20.0451 70.0088 20.0299 69.9885 20.0299C69.9683 20.0299 69.9556 20.0147 69.9556 19.9844C69.9556 19.9388 69.9758 19.9084 70.0113 19.8932C70.0493 19.878 70.0544 19.8552 70.024 19.8248C70.024 19.7488 70.0392 19.7336 70.0696 19.7792C70.1 19.8248 70.138 19.84 70.1835 19.8248C70.1835 19.7944 70.1759 19.764 70.1607 19.7336L70.0924 19.5968C69.9708 19.6272 69.8745 19.6348 69.7985 19.6196C69.7226 19.6044 69.6314 19.6272 69.525 19.688C69.5098 19.6272 69.5022 19.5943 69.5022 19.5867C69.5022 19.5791 69.5022 19.5386 69.5022 19.4626C69.5782 19.4778 69.639 19.4246 69.6846 19.303L69.7074 19.3258C69.7074 19.341 69.7124 19.3537 69.72 19.3587C69.7276 19.3663 69.7302 19.379 69.7302 19.3917C69.9125 19.2549 70.0924 19.1561 70.2747 19.0978C70.4571 19.0371 70.6369 18.9687 70.8193 18.8927C70.8953 18.8471 70.989 18.8218 71.103 18.8142C71.217 18.8066 71.2879 18.766 71.3183 18.6901C71.3487 18.7204 71.3892 18.7204 71.4424 18.6901C71.4956 18.6597 71.5361 18.6673 71.5665 18.7128C71.5817 18.6825 71.5969 18.6597 71.6121 18.6445C71.6273 18.6293 71.6501 18.5989 71.6805 18.5533C71.8021 18.5989 71.916 18.5811 72.0199 18.4976C72.1263 18.414 72.2478 18.381 72.3821 18.3962C72.4277 18.3962 72.4505 18.3658 72.4505 18.3051C72.5265 18.2899 72.61 18.2873 72.6987 18.2949C72.7899 18.3025 72.8583 18.2468 72.9039 18.1252C72.8127 18.0644 72.7418 18.0619 72.6886 18.1151C72.6354 18.1683 72.5796 18.1936 72.5189 18.1936C72.5341 18.1328 72.5796 18.0771 72.6556 18.0239C72.7316 17.9707 72.8152 17.9302 72.9064 17.8998C73.0128 17.8238 73.1343 17.7757 73.2686 17.7529C73.4054 17.7301 73.5573 17.72 73.722 17.72C73.7524 17.72 73.7701 17.7098 73.7777 17.687C73.7853 17.6642 73.798 17.6389 73.8106 17.6085C74.0386 17.5477 74.2336 17.4844 74.4008 17.416C74.568 17.3476 74.801 17.2767 75.1049 17.2007C75.1201 17.2007 75.1277 17.1855 75.1277 17.1551C75.1277 17.1247 75.1429 17.1019 75.1733 17.0867C75.2189 17.1019 75.2493 17.1146 75.2645 17.1197C75.2797 17.1273 75.3025 17.1247 75.3329 17.1095C75.3633 17.0032 75.4317 16.9348 75.5381 16.9044C75.6444 16.874 75.7052 16.798 75.7204 16.6764C75.8116 16.6764 75.8724 16.6308 75.9028 16.5396C75.9332 16.4485 75.9864 16.4105 76.0624 16.4257C76.2751 16.0331 76.5183 15.6886 76.7994 15.3922C77.078 15.0984 77.3237 14.7768 77.5365 14.4272C77.6277 14.3664 77.6733 14.2904 77.6733 14.1993C77.6885 14.1993 77.6986 14.2043 77.7062 14.2094C77.7138 14.217 77.7315 14.2221 77.7619 14.2221C77.7923 14.0549 77.8708 13.9308 78 13.8472C78.1292 13.7636 78.2077 13.6167 78.2381 13.4039C78.4509 13.2216 78.6358 13.0037 78.7953 12.7454C78.9549 12.4896 79.1474 12.2692 79.3728 12.0868C79.4184 11.9349 79.4741 11.8082 79.5425 11.7018C79.6109 11.5955 79.6869 11.4941 79.7705 11.3954C79.8541 11.2966 79.9326 11.1953 80.0086 11.0889C80.0846 10.9825 80.1454 10.8609 80.1909 10.7267C80.3733 10.5595 80.5202 10.3645 80.6342 10.1365C80.7482 9.90856 80.8951 9.71353 81.0775 9.54636C81.123 9.40958 81.1864 9.29307 81.27 9.19429C81.3535 9.09551 81.4245 8.97899 81.4852 8.84222C81.698 8.62946 81.8778 8.40403 82.0298 8.16087C82.1818 7.92025 82.3616 7.71509 82.5744 7.54792C82.5896 7.51752 82.6073 7.49473 82.6301 7.47953C82.6529 7.46433 82.6554 7.43394 82.6428 7.38835C82.9163 7.13253 83.1342 6.84378 83.3013 6.52717C83.5875 6.19536 83.8636 5.88382 84.1296 5.5976C84.393 5.31139 84.6311 4.99984 84.8438 4.66803C84.9198 4.66803 84.9756 4.63511 85.0136 4.56672C85.0515 4.49833 85.0845 4.44261 85.1149 4.39702C85.2364 4.35142 85.3276 4.28304 85.3884 4.19185C85.4492 4.10067 85.5252 4.01708 85.6164 3.9411C85.662 3.98669 85.7025 3.98669 85.7405 3.9411C85.7785 3.89551 85.8266 3.86511 85.8874 3.84991C85.9026 3.89551 85.8874 3.94363 85.8418 3.99682C85.7962 4.05001 85.7506 4.09054 85.705 4.12093C85.8114 4.15133 85.9406 4.16906 86.09 4.17666C86.242 4.18425 86.3889 4.19945 86.5333 4.22225C86.6777 4.24504 86.8144 4.28304 86.9411 4.33623C87.0702 4.38942 87.1716 4.46794 87.2475 4.57432C87.2323 4.61991 87.2248 4.66044 87.2248 4.69843C87.2248 4.73642 87.202 4.74655 87.1564 4.73136C87.202 4.76175 87.2476 4.81747 87.2931 4.90106C87.3387 4.98464 87.3843 5.00997 87.4299 4.97958C87.4907 5.02517 87.5312 5.07836 87.554 5.13915C87.5768 5.19994 87.6249 5.25313 87.7009 5.29872C87.6705 5.35951 87.6731 5.42283 87.7111 5.49122C87.7491 5.55961 87.7972 5.60773 87.858 5.63813C87.8428 5.83569 87.8428 6.02059 87.858 6.19536C87.8732 6.37013 87.8833 6.54236 87.8909 6.71713C87.8985 6.8919 87.8909 7.06161 87.8681 7.22878C87.8453 7.39595 87.7972 7.56818 87.7212 7.75055C87.7212 7.87213 87.7136 7.96584 87.6984 8.03423C87.6832 8.10262 87.6655 8.17101 87.6427 8.23939C87.6199 8.30778 87.5971 8.3787 87.5743 8.45469C87.5515 8.53067 87.5414 8.63706 87.5414 8.7713C87.435 9.07524 87.3489 9.40705 87.2805 9.76925C87.2121 10.1315 87.1184 10.4582 86.9968 10.7444C87.0272 10.8812 87.0196 11.0281 86.974 11.1877C86.9284 11.3472 86.8676 11.4865 86.7916 11.6081C86.7916 11.8665 86.7587 12.1071 86.6903 12.3351C86.6219 12.563 86.5738 12.796 86.5434 13.0392C86.5282 13.0392 86.5155 13.0595 86.5105 13.0949C86.5029 13.1329 86.4826 13.143 86.4548 13.1278C86.4548 13.1582 86.4674 13.1734 86.4877 13.1734C86.5105 13.1734 86.5206 13.1886 86.5206 13.219C86.4142 13.523 86.3382 13.7965 86.2927 14.0473C86.2471 14.298 86.2091 14.5741 86.1787 14.8755C86.2243 14.9515 86.2775 14.9769 86.3382 14.9541C86.399 14.9313 86.4598 14.9211 86.5206 14.9211C86.6118 14.9515 86.6954 14.9895 86.7688 15.0351C86.8448 15.0807 86.936 15.1035 87.0424 15.1035C87.1032 15.1035 87.1564 15.0934 87.202 15.0706C87.2475 15.0478 87.2931 15.0604 87.3387 15.1035C87.3691 15.1339 87.3843 15.1415 87.3843 15.1263C87.3843 15.1111 87.3995 15.1035 87.4299 15.1035C87.5667 15.2251 87.7313 15.3391 87.9289 15.4429C88.1265 15.5493 88.2835 15.6937 88.4051 15.8735C88.3747 15.9039 88.3671 15.9444 88.3823 15.9976C88.3975 16.0508 88.4127 16.0913 88.4279 16.1217C88.4279 16.1521 88.4279 16.1825 88.4279 16.2129C88.4279 16.2433 88.4203 16.2585 88.4051 16.2585C88.4203 16.2889 88.4355 16.3269 88.4507 16.3725C88.4659 16.4181 88.5115 16.4561 88.5874 16.4864C88.5874 16.5168 88.5722 16.5422 88.5419 16.565C88.5115 16.5878 88.4811 16.6131 88.4507 16.6435C88.4811 16.7347 88.4988 16.7904 88.5064 16.8132C88.514 16.836 88.5267 16.8765 88.5393 16.9373C88.4785 16.9373 88.4608 16.9702 88.4836 17.0386C88.5064 17.107 88.4861 17.1475 88.4279 17.1627V17.3679C88.4127 17.3983 88.4051 17.4236 88.4051 17.4464C88.4051 17.4692 88.3899 17.5021 88.3595 17.5477C88.1467 17.6389 87.9289 17.7022 87.7009 17.7402C87.473 17.7782 87.2399 17.8162 86.9968 17.8542C86.7536 17.8922 86.5054 17.9327 86.2471 17.9783C85.9887 18.0239 85.7253 18.0923 85.4517 18.1835C85.4365 18.2139 85.4213 18.2392 85.4061 18.262C85.3909 18.2848 85.3909 18.3177 85.4061 18.3633H85.2466C85.2162 18.4089 85.1984 18.4545 85.1908 18.5001C85.1833 18.5457 85.1579 18.5913 85.1123 18.6369C85.0971 18.9256 85.0287 19.2346 84.9072 19.5664C84.7856 19.8982 84.6564 20.1946 84.5222 20.4504C84.4614 20.3592 84.4538 20.2351 84.4994 20.0755C84.545 19.916 84.5222 19.8071 84.431 19.7463C84.3854 19.8678 84.3601 19.9844 84.3525 20.0983C84.3449 20.2123 84.3398 20.3288 84.3398 20.4504H84.2942C84.2638 20.4504 84.2562 20.4428 84.2714 20.4276C84.2866 20.4124 84.2866 20.382 84.2714 20.3364C84.1802 20.3972 84.1574 20.5036 84.203 20.653C84.1422 20.6834 84.1042 20.7214 84.089 20.767C84.0738 20.8126 84.0612 20.8607 84.0561 20.9139C84.0485 20.9671 84.0333 21.0203 84.0105 21.0735C83.9877 21.1267 83.9447 21.1596 83.8864 21.1748C83.8864 21.1292 83.8814 21.0811 83.8738 21.0279C83.8662 20.9747 83.8408 20.9494 83.7952 20.9494C83.8408 20.8886 83.8408 20.8354 83.7952 20.7898C83.7192 20.8202 83.6661 20.8683 83.6357 20.9367C83.6053 21.0051 83.5799 21.0811 83.5571 21.1647C83.5344 21.2483 83.509 21.3242 83.4786 21.3926C83.4482 21.461 83.4026 21.5167 83.3419 21.5623C83.3115 21.5015 83.2963 21.418 83.2963 21.3116C83.2963 21.2052 83.2963 21.114 83.2963 21.038C83.2507 21.0684 83.2355 21.1292 83.2507 21.2204C83.2659 21.3116 83.2507 21.3648 83.2051 21.38C83.1747 21.3952 83.1569 21.3876 83.1493 21.3572C83.1418 21.3268 83.1215 21.3116 83.0936 21.3116C83.0632 21.342 83.0379 21.3749 83.0151 21.4129C82.9923 21.4509 82.9822 21.499 82.9822 21.5598C82.9214 21.5902 82.8834 21.5927 82.8682 21.5699C82.853 21.5471 82.8302 21.537 82.7998 21.537C82.7998 21.461 82.8023 21.3977 82.8099 21.3445C82.8175 21.2913 82.8226 21.2356 82.8226 21.1748C82.8226 21.1596 82.8175 21.1545 82.8099 21.1621C82.8023 21.1697 82.7998 21.1647 82.7998 21.152C82.815 20.7138 82.8251 20.3086 82.8327 19.9388C82.8403 19.569 82.8581 19.1941 82.8885 18.8142C82.5415 18.8294 82.1159 18.8522 81.617 18.8826C81.118 18.9129 80.695 18.9585 80.3455 19.0193C80.2999 19.0345 80.2745 19.0573 80.2669 19.0877C80.2593 19.1181 80.2391 19.1485 80.2112 19.1789C80.1808 19.1637 80.1732 19.1409 80.1884 19.1105C80.2036 19.0801 80.196 19.0649 80.1656 19.0649C80.1656 19.0953 80.1428 19.0928 80.0972 19.0548C80.0516 19.0168 80.0288 19.0371 80.0288 19.1105C79.7274 19.0953 79.4311 19.1232 79.1449 19.189C78.8561 19.2574 78.5623 19.3055 78.2584 19.3359C78.1672 19.3663 78.0684 19.379 77.962 19.3689C77.8556 19.3613 77.7645 19.4018 77.691 19.493C77.615 19.4778 77.5669 19.4676 77.5441 19.46C77.5213 19.4524 77.496 19.4499 77.4656 19.4499C76.8906 20.0553 76.346 20.6682 75.8319 21.2888C75.3177 21.9093 74.7655 22.4843 74.1754 23.0137C74.1146 22.9985 74.0512 23.0086 73.9829 23.0466C73.9145 23.0846 73.8588 23.1251 73.8132 23.1707C73.7372 23.1403 73.6536 23.158 73.5649 23.2264C73.4738 23.2948 73.3674 23.2974 73.2483 23.2366C73.1571 23.267 73.104 23.305 73.0888 23.3505C73.0128 23.305 72.9342 23.2898 72.8507 23.305C72.7671 23.3202 72.7114 23.3126 72.681 23.2822C72.7114 23.267 72.7342 23.2594 72.7493 23.2594C72.762 23.2746 72.7848 23.267 72.8127 23.2518ZM82.7314 15.3542C82.7314 15.2783 82.7593 15.2377 82.8099 15.2301C82.8631 15.2225 82.9113 15.182 82.9568 15.106C82.9872 15.1668 83.0278 15.182 83.081 15.1516C83.1342 15.1212 83.1747 15.106 83.2051 15.106C83.2507 14.3335 83.3266 13.6167 83.433 12.9505C83.5394 12.2844 83.6281 11.6031 83.7041 10.909C83.4026 11.2864 83.1342 11.6917 82.8986 12.1223C82.663 12.5529 82.387 12.9429 82.0703 13.29C81.8424 13.7585 81.5866 14.1891 81.2978 14.5843C81.0091 14.9769 80.7229 15.372 80.4341 15.7646V15.8786C80.8267 15.757 81.2066 15.6785 81.5688 15.6405C81.9361 15.5999 82.3211 15.5062 82.7314 15.3542Z" fill="white"/>
<path d="M89.4689 15.22C89.5145 15.2352 89.5677 15.2428 89.6285 15.2428C89.6741 14.7135 89.7222 14.1993 89.7754 13.7003C89.8286 13.2013 89.8691 12.6796 89.8995 12.135C89.9451 12.059 89.9831 12.0134 90.0135 11.9982C90.0135 11.7703 90.0363 11.5296 90.0819 11.2713C90.1275 11.0155 90.1123 10.7723 90.0363 10.5443C90.0819 10.2708 90.0844 10.0074 90.049 9.74902C90.011 9.49066 90.0363 9.21205 90.1275 8.9081C90.2339 8.8929 90.2972 8.86251 90.32 8.81692C90.3428 8.77133 90.3504 8.7232 90.3428 8.67001C90.3352 8.61682 90.3276 8.5611 90.32 8.50031C90.3124 8.43952 90.3225 8.38633 90.3529 8.34074C90.4137 8.34074 90.4441 8.36353 90.4441 8.40912C90.4441 8.45472 90.4745 8.47751 90.5353 8.47751C90.6569 8.44712 90.7506 8.39899 90.819 8.33061C90.8873 8.26222 90.9735 8.22169 91.0798 8.20649C91.1254 8.22169 91.1482 8.24955 91.1482 8.28501C91.1482 8.32301 91.1482 8.36353 91.1482 8.40912C91.1938 8.36353 91.2318 8.35593 91.2622 8.38633C91.2622 8.26475 91.3534 8.18876 91.5358 8.15837C91.5206 8.21916 91.513 8.30274 91.513 8.40912C91.513 8.42432 91.5282 8.42939 91.5586 8.41926C91.589 8.41166 91.6041 8.42939 91.6041 8.47498C91.6497 8.47498 91.6801 8.45218 91.6953 8.40659C91.7105 8.361 91.7333 8.32301 91.7637 8.29261C91.8245 8.27742 91.8498 8.29008 91.8422 8.32554C91.8346 8.36353 91.8448 8.39646 91.8752 8.42685C91.9208 8.41166 91.9511 8.38633 91.9663 8.34834C91.9815 8.31034 92.0119 8.29261 92.0575 8.29261C92.0727 8.3382 92.0955 8.43699 92.1259 8.58643C92.2323 8.55603 92.2779 8.49524 92.2627 8.40406C92.2475 8.31288 92.2703 8.23689 92.3311 8.1761C92.5286 8.35847 92.706 8.5231 92.8655 8.67508C93.0251 8.82705 93.1416 9.03728 93.2176 9.31083C93.1872 9.38682 93.1695 9.4704 93.1619 9.56158C93.1543 9.65277 93.1796 9.71356 93.2404 9.74395C93.2404 9.78954 93.2328 9.81994 93.2176 9.83514C93.2024 9.85033 93.1948 9.88073 93.1948 9.92632C93.2556 10.0631 93.2708 10.1923 93.2404 10.3113C93.21 10.4329 93.2404 10.5393 93.3316 10.6279C93.3316 11.0357 93.3468 11.4334 93.3772 11.8184C93.4076 12.2034 93.4076 12.6086 93.3772 13.0316C93.362 13.3482 93.3569 13.6826 93.3645 14.0296C93.3721 14.3766 93.3898 14.7033 93.4202 15.0047C93.7064 14.6729 93.9901 14.3209 94.2713 13.9485C94.5499 13.5787 94.8336 13.1963 95.1223 12.8037C95.1679 12.7277 95.2008 12.6796 95.2236 12.6568C95.2464 12.634 95.2566 12.5782 95.2566 12.4871C95.2869 12.4871 95.3173 12.4947 95.3477 12.5099C95.3629 12.4035 95.4085 12.3326 95.4845 12.2946C95.5605 12.2566 95.5833 12.178 95.5529 12.0565C95.6593 11.9957 95.7454 11.9172 95.8138 11.8184C95.8822 11.7196 95.943 11.6132 95.9962 11.5018C96.0493 11.3878 96.1101 11.2789 96.1785 11.1725C96.2469 11.0661 96.3254 10.9749 96.4166 10.9015C96.447 10.8255 96.4875 10.7698 96.5407 10.7318C96.5939 10.6938 96.6192 10.6305 96.6192 10.5393C96.832 10.2379 97.0574 9.93392 97.3006 9.6325C97.5412 9.33109 97.7388 9.01955 97.8908 8.70294C97.9971 8.56616 98.1111 8.43952 98.2302 8.31794C98.3517 8.19636 98.4277 8.06212 98.4581 7.91015C98.6253 7.72778 98.7747 7.53275 98.9115 7.31999C99.0483 7.10722 99.1597 6.8742 99.2509 6.61585C99.5523 6.26884 99.8512 5.90157 100.148 5.51404C100.441 5.12905 100.74 4.78458 101.044 4.48063C101.09 4.43504 101.128 4.41984 101.158 4.43504C101.28 4.25267 101.409 4.08297 101.543 3.9234C101.68 3.76382 101.845 3.63212 102.042 3.52573C102.133 3.35856 102.217 3.21166 102.29 3.08248C102.366 2.9533 102.488 2.85199 102.653 2.776C102.744 2.60883 102.858 2.45433 102.992 2.30995C103.129 2.16558 103.273 2.02627 103.423 1.88949C103.575 1.75272 103.721 1.61341 103.866 1.46904C104.01 1.32466 104.142 1.17016 104.263 1.00299C104.415 0.972593 104.527 0.904205 104.603 0.797824C104.679 0.691443 104.778 0.615457 104.899 0.569865C104.914 0.509076 104.93 0.463484 104.945 0.433089C104.96 0.402695 104.968 0.3723 104.968 0.341906C105.044 0.341906 105.082 0.346971 105.082 0.352037C105.082 0.359636 105.104 0.3723 105.15 0.384965C105.196 0.384965 105.206 0.369767 105.183 0.339373C105.16 0.308978 105.135 0.30138 105.104 0.316577C105.165 0.225393 105.241 0.1874 105.332 0.202597C105.332 0.263386 105.363 0.316577 105.424 0.362169C105.302 0.514141 105.211 0.691443 105.153 0.896606C105.092 1.10177 105.001 1.27907 104.879 1.43104C104.94 1.46144 104.963 1.49437 104.947 1.53236C104.932 1.57035 104.932 1.60328 104.947 1.63367C104.993 1.61848 105.008 1.60328 104.993 1.58808C104.978 1.57288 104.985 1.54249 105.016 1.4969C105.092 1.4969 105.153 1.48677 105.198 1.46397C105.244 1.44118 105.304 1.42344 105.38 1.40825C105.38 1.45384 105.403 1.48423 105.449 1.49943C105.494 1.51463 105.51 1.54502 105.494 1.59062C105.418 1.62101 105.355 1.66154 105.302 1.71473C105.249 1.76792 105.193 1.82364 105.132 1.88443C105.345 1.86923 105.517 1.84644 105.654 1.81604C105.791 1.78565 105.902 1.68686 105.993 1.52223C106.039 1.62861 106.047 1.73752 106.016 1.8515C105.986 1.96548 105.938 2.07439 105.869 2.18078C105.801 2.28716 105.722 2.38847 105.631 2.48725C105.54 2.58604 105.464 2.67975 105.403 2.77094C105.373 2.84692 105.37 2.90011 105.393 2.93051C105.416 2.9609 105.426 2.9989 105.426 3.04449C105.456 3.04449 105.472 3.02169 105.472 2.9761C105.472 2.93051 105.472 2.89251 105.472 2.86212C105.532 2.89251 105.578 2.88998 105.608 2.84946C105.639 2.81146 105.692 2.80893 105.768 2.83932C105.829 3.03689 105.798 3.17113 105.677 3.24712C105.555 3.3231 105.456 3.42189 105.38 3.54093C105.35 3.57133 105.335 3.61692 105.335 3.67771C105.335 3.7385 105.327 3.79169 105.312 3.83728C105.266 3.91326 105.221 3.99685 105.175 4.08803C105.13 4.17922 105.092 4.2628 105.061 4.33879C105.016 4.41477 104.96 4.4857 104.892 4.55408C104.823 4.62247 104.768 4.70099 104.722 4.79217C104.661 4.89855 104.621 5.00747 104.598 5.12145C104.575 5.23543 104.524 5.32914 104.451 5.40513C104.421 5.45072 104.38 5.49885 104.327 5.55204C104.274 5.60523 104.241 5.66855 104.225 5.74454C104.104 5.88131 103.998 6.03328 103.909 6.19792C103.818 6.36509 103.727 6.52973 103.635 6.6969C103.544 6.78808 103.466 6.8894 103.397 7.00338C103.329 7.11736 103.281 7.24147 103.25 7.37824H103.182C103.121 7.53022 103.022 7.66699 102.886 7.78604C102.749 7.90761 102.696 8.05199 102.726 8.21663C102.468 8.47498 102.26 8.75106 102.103 9.04488C101.943 9.33869 101.736 9.62237 101.48 9.89592C101.449 10.0327 101.366 10.1771 101.232 10.3265C101.095 10.4785 100.966 10.6305 100.847 10.7799C100.801 10.9471 100.738 11.094 100.654 11.2232C100.571 11.3523 100.477 11.4764 100.37 11.598C100.264 11.7196 100.17 11.8488 100.087 11.983C100.003 12.1198 99.9399 12.2794 99.8943 12.4592C99.6359 12.5808 99.4789 12.791 99.4181 13.095C99.3421 13.1709 99.2813 13.2419 99.2357 13.3102C99.1901 13.3786 99.1597 13.4723 99.1445 13.5939C99.0685 13.6243 99.0153 13.6851 98.985 13.7763C98.9546 13.8675 98.9014 13.9283 98.8254 13.9587C98.795 14.1714 98.7038 14.3639 98.5518 14.5362C98.3999 14.7109 98.2859 14.9034 98.2124 15.1137C98.0301 15.3112 97.8806 15.5417 97.759 15.8051C97.6375 16.0711 97.5184 16.294 97.3968 16.4738C97.1537 16.7322 96.946 17.026 96.7738 17.3578C96.599 17.6896 96.3837 17.9859 96.1279 18.2418C95.9759 18.5888 95.7834 18.9003 95.5504 19.1713C95.3148 19.4449 95.1147 19.7539 94.9501 20.1009C94.7069 20.3289 94.4891 20.5745 94.2915 20.838C94.094 21.1014 93.8533 21.3344 93.5646 21.5294C93.4886 21.5142 93.4354 21.5092 93.405 21.5168C93.3746 21.5244 93.3366 21.5294 93.291 21.5294C93.1695 21.6054 93.0555 21.6611 92.9516 21.6991C92.8453 21.7371 92.7541 21.8081 92.6781 21.9144C92.4197 21.9144 92.2095 21.8714 92.0423 21.7903C91.8752 21.7067 91.6877 21.6282 91.475 21.5522C91.4294 21.5522 91.399 21.5624 91.3838 21.5852C91.3686 21.608 91.3306 21.6029 91.2698 21.575C91.2242 21.575 91.1938 21.5548 91.1786 21.5193C91.1634 21.4813 91.1254 21.4636 91.0646 21.4636C90.8215 21.494 90.6417 21.4585 90.5201 21.3623C90.3985 21.2635 90.2617 21.185 90.1123 21.1242C90.1427 21.0482 90.1351 20.9849 90.0895 20.9317C90.0439 20.8785 90.0059 20.8152 89.9755 20.7392C89.9147 20.6936 89.8362 20.6379 89.7374 20.5695C89.6386 20.5011 89.5753 20.4226 89.5449 20.3314C89.5145 20.2706 89.5069 20.1946 89.5221 20.1034C89.5373 20.0122 89.5297 19.9287 89.4993 19.8527C89.4689 19.6551 89.4233 19.4702 89.3625 19.2954C89.3018 19.1207 89.3094 18.951 89.3853 18.7838C89.4005 18.7686 89.4081 18.7382 89.4081 18.6926C89.4081 18.647 89.4005 18.609 89.3853 18.5786C89.3549 18.0797 89.3575 17.5224 89.398 16.9095C89.4284 16.3193 89.4537 15.7494 89.4689 15.22Z" fill="white"/>
<path d="M105.603 21.4585C105.634 21.3673 105.717 21.2736 105.854 21.1748C105.991 21.076 106.095 21.0203 106.171 21.0051C106.247 20.8531 106.363 20.7518 106.523 20.6986C106.682 20.6454 106.822 20.5745 106.943 20.4833C107.156 20.4377 107.351 20.3694 107.533 20.2782C107.716 20.187 107.888 20.0958 108.055 20.0046C108.101 19.9742 108.149 19.9565 108.202 19.9489C108.255 19.9413 108.303 19.9236 108.349 19.8932C108.379 19.8628 108.412 19.8298 108.45 19.7919C108.488 19.7539 108.529 19.7209 108.574 19.6905C108.742 19.6601 108.891 19.6146 109.028 19.5538C109.165 19.493 109.306 19.4398 109.458 19.3942C109.534 19.3182 109.618 19.2701 109.707 19.2473C109.798 19.2245 109.874 19.184 109.934 19.1232C110.147 19.0472 110.355 18.9611 110.558 18.8623C110.763 18.7635 110.963 18.6546 111.158 18.533C111.55 18.3203 111.943 18.1202 112.338 17.9327C112.731 17.7428 113.073 17.5351 113.359 17.3096C113.797 17.1273 114.223 16.9474 114.63 16.7651C115.038 16.5827 115.449 16.4105 115.856 16.2433C115.735 16.1977 115.59 16.1673 115.426 16.1521C115.259 16.1369 115.129 16.1597 115.041 16.2205C114.223 16.1293 113.448 16.0989 112.716 16.1293C111.981 16.1597 111.229 16.1369 110.459 16.0609C110.307 16.0457 110.185 16.0356 110.097 16.028C110.005 16.0204 109.899 16.0331 109.78 16.0609C109.765 16.0457 109.75 16.0356 109.734 16.028C109.719 16.0204 109.704 16.0103 109.689 15.9951C109.4 15.9495 109.159 15.8938 108.962 15.8254C108.764 15.757 108.584 15.6405 108.417 15.4733C108.372 15.4885 108.334 15.4834 108.303 15.4632C108.273 15.4404 108.243 15.4302 108.212 15.4302C108.121 15.3391 107.977 15.2631 107.782 15.2023C107.523 15.0351 107.336 14.8021 107.214 14.4981C107.093 14.1967 106.994 13.87 106.918 13.523C106.887 13.2646 106.87 13.024 106.862 12.796C106.855 12.5681 106.933 12.3807 107.1 12.2287C107.085 12.1527 107.093 12.0843 107.123 12.0235C107.153 11.9931 107.169 11.9906 107.169 12.0134C107.169 12.0362 107.184 12.0463 107.214 12.0463C107.366 11.788 107.554 11.5473 107.782 11.3194C108.01 11.0914 108.25 10.8964 108.508 10.7292C108.524 10.6836 108.516 10.6583 108.486 10.6507C108.455 10.6431 108.448 10.6254 108.463 10.595C108.493 10.6102 108.526 10.6152 108.564 10.6051C108.602 10.5975 108.62 10.6102 108.62 10.638C108.848 10.4253 109.104 10.2454 109.392 10.0935C109.679 9.94149 109.96 9.78445 110.231 9.61728C110.246 9.60209 110.254 9.56409 110.254 9.5033C110.466 9.45771 110.639 9.40199 110.775 9.3336C110.912 9.26521 111.046 9.1639 111.183 9.02712C111.591 8.85995 111.989 8.66492 112.374 8.43696C112.759 8.209 113.149 7.99117 113.541 7.77841C113.648 7.64164 113.782 7.55045 113.949 7.50739C114.116 7.4618 114.258 7.37062 114.38 7.23384C114.532 7.18825 114.666 7.11227 114.787 7.00588C114.909 6.8995 115.051 6.82352 115.218 6.77793C115.218 6.74753 115.21 6.71714 115.195 6.68674C115.18 6.65635 115.195 6.62595 115.241 6.59556C115.271 6.62595 115.286 6.62595 115.286 6.59556C115.286 6.56516 115.317 6.55757 115.378 6.57276C115.408 6.54237 115.403 6.51704 115.365 6.49424C115.327 6.47145 115.332 6.44612 115.378 6.41572C115.816 6.37013 116.201 6.31441 116.535 6.24602C116.867 6.17763 117.194 6.05352 117.51 5.87115C117.617 5.88635 117.726 5.90915 117.84 5.93954C117.954 5.96994 118.055 6.00033 118.146 6.03073C118.268 6.03073 118.369 6.05859 118.453 6.10925C118.536 6.16244 118.62 6.21816 118.701 6.27895C118.784 6.33974 118.868 6.39546 118.952 6.44865C119.035 6.50184 119.129 6.53477 119.235 6.54997C119.281 6.62595 119.334 6.68168 119.395 6.71967C119.456 6.75766 119.501 6.81339 119.532 6.88937C119.608 6.91977 119.671 6.95269 119.724 6.99069C119.777 7.02868 119.841 7.05401 119.917 7.06921C119.977 7.16039 120.003 7.26171 119.995 7.37568C119.987 7.48966 120.015 7.59858 120.074 7.70496C120.074 7.72016 120.099 7.76575 120.152 7.84173C120.205 7.91772 120.238 7.97851 120.253 8.0241C120.284 8.10009 120.286 8.17101 120.266 8.2394C120.243 8.30778 120.233 8.37871 120.233 8.45469C120.203 8.48509 120.188 8.49268 120.188 8.47749C120.188 8.46229 120.172 8.45469 120.142 8.45469C120.127 8.53068 120.127 8.59906 120.142 8.65985C119.914 9.14363 119.691 9.61982 119.473 10.0884C119.253 10.557 118.964 10.9724 118.599 11.3371C118.508 11.3219 118.447 11.3295 118.417 11.3599C118.387 11.3903 118.341 11.4055 118.28 11.4055C118.265 11.3751 118.232 11.3599 118.179 11.3599C118.126 11.3599 118.108 11.3219 118.123 11.2459C118.017 11.2915 117.923 11.2915 117.84 11.2459C117.756 11.2003 117.655 11.2155 117.533 11.2915C117.488 11.2459 117.419 11.1927 117.328 11.1319C117.298 11.1623 117.282 11.2003 117.282 11.2459C117.282 11.2915 117.267 11.3143 117.237 11.3143C117.176 11.2991 117.13 11.2738 117.1 11.2358C117.07 11.1978 117.024 11.1649 116.963 11.1345C116.963 11.0129 116.933 10.9293 116.872 10.8837C116.811 10.8381 116.766 10.7697 116.735 10.6786C116.705 10.6786 116.687 10.6862 116.68 10.7014C116.672 10.7166 116.652 10.7166 116.624 10.7014C116.593 10.4455 116.619 10.2125 116.702 10.0099C116.786 9.80472 116.788 9.62741 116.715 9.47544C116.715 9.39945 116.738 9.34626 116.783 9.31587C116.33 9.49824 115.907 9.69833 115.512 9.91616C115.119 10.1365 114.724 10.3594 114.332 10.5848C114.164 10.752 113.977 10.8888 113.764 10.9926C113.551 11.099 113.372 11.251 113.22 11.446C112.705 11.75 112.201 12.0539 111.71 12.3655C111.219 12.6745 110.745 13.0037 110.292 13.3533C110.322 13.4293 110.375 13.4622 110.451 13.4546C110.527 13.447 110.618 13.4445 110.722 13.4445C111.024 13.4749 111.323 13.4977 111.619 13.5128C111.915 13.528 112.242 13.5508 112.607 13.5812C112.863 13.5964 113.123 13.604 113.389 13.604C113.653 13.604 113.914 13.6116 114.172 13.6268C114.458 13.6572 114.734 13.6876 115 13.718C115.264 13.7484 115.525 13.7484 115.783 13.718C115.844 13.7484 115.889 13.7636 115.92 13.7636C116.176 13.7332 116.444 13.718 116.725 13.718C117.006 13.718 117.282 13.7332 117.553 13.7636C117.675 13.7636 117.829 13.7509 118.019 13.7307C118.209 13.7079 118.387 13.7205 118.554 13.7636C118.63 13.7636 118.708 13.7712 118.792 13.7864C118.876 13.8016 118.962 13.794 119.053 13.7636C119.205 13.7788 119.362 13.7965 119.529 13.8193C119.696 13.8421 119.868 13.8624 120.051 13.8751C120.291 13.9054 120.535 13.9282 120.778 13.9434C121.018 13.9586 121.262 13.9966 121.505 14.0574C121.611 14.0878 121.733 14.1334 121.867 14.1942C122.004 14.255 122.108 14.3234 122.184 14.3994C122.29 14.4753 122.366 14.5665 122.411 14.6729C122.624 14.8401 122.794 15.0858 122.921 15.41C123.05 15.7342 123.067 16.0711 122.976 16.4206C123.022 16.4662 123.045 16.5194 123.045 16.5802C123.014 16.641 122.969 16.6713 122.908 16.6713C122.893 16.7929 122.875 16.8841 122.852 16.9424C122.829 17.0032 122.781 17.0791 122.705 17.1703C122.69 17.2007 122.66 17.2311 122.614 17.2615C122.568 17.2919 122.531 17.3223 122.5 17.3527C122.5 17.3679 122.508 17.3831 122.523 17.3983C122.538 17.4135 122.531 17.4287 122.5 17.4439C122.5 17.4743 122.493 17.492 122.477 17.4996C122.462 17.5072 122.447 17.5275 122.432 17.5553C122.371 17.6769 122.3 17.7478 122.216 17.7706C122.133 17.7934 122.054 17.8415 121.978 17.9175C121.963 17.9631 121.963 18.0087 121.978 18.0543C121.857 17.9935 121.748 18.0011 121.649 18.0771C121.55 18.1531 121.457 18.2291 121.365 18.3051C121.335 18.3203 121.32 18.3127 121.32 18.2823C121.183 18.3886 121.013 18.4748 120.808 18.5431C120.603 18.6115 120.418 18.6673 120.251 18.7128C120.129 18.804 120.005 18.875 119.876 18.9281C119.747 18.9813 119.615 19.0269 119.478 19.0649C119.342 19.1029 119.205 19.1434 119.071 19.189C118.934 19.2346 118.8 19.303 118.663 19.3942C118.617 19.3942 118.594 19.3866 118.594 19.3714C118.336 19.5234 118.073 19.6399 117.799 19.7235C117.528 19.8071 117.277 19.9236 117.049 20.0755C116.687 20.1059 116.414 20.2123 116.231 20.3921C116.049 20.4681 115.872 20.5137 115.697 20.5289C115.522 20.5441 115.375 20.6049 115.254 20.7113C115.147 20.7113 115.056 20.7442 114.98 20.8126C114.904 20.881 114.798 20.8911 114.663 20.8455C114.618 20.8911 114.562 20.9241 114.494 20.9468C114.425 20.9696 114.354 20.9646 114.278 20.9367C114.233 20.9367 114.21 20.9519 114.21 20.9823C114.21 21.0127 114.187 21.0279 114.142 21.0279C114.05 21.0279 113.944 21.0456 113.825 21.0836C113.703 21.1216 113.605 21.1773 113.529 21.2533C113.212 21.2685 112.885 21.3369 112.553 21.4585C112.222 21.5801 111.903 21.6713 111.601 21.732C111.525 21.7624 111.457 21.7726 111.396 21.765C111.335 21.7574 111.267 21.7599 111.191 21.7751C111.13 21.7751 111.074 21.7903 111.021 21.8207C110.968 21.8511 110.912 21.8663 110.851 21.8663C110.775 21.8815 110.697 21.884 110.613 21.8789C110.53 21.8713 110.497 21.9271 110.512 22.0487C110.345 22.079 110.152 22.117 109.934 22.1626C109.714 22.2082 109.506 22.2462 109.311 22.2766C109.235 22.2766 109.152 22.2715 109.061 22.2665C108.969 22.2589 108.931 22.2032 108.947 22.0968C109.099 22.1424 109.246 22.1525 109.39 22.1297C109.534 22.1069 109.704 22.0816 109.899 22.0512C109.838 21.96 109.747 21.9271 109.628 21.9499C109.506 21.9727 109.377 21.998 109.243 22.0284C109.213 21.998 109.202 21.9727 109.21 21.9499C109.218 21.9271 109.213 21.9017 109.197 21.8713C109.137 21.8713 109.091 21.884 109.061 21.9043C109.03 21.9271 109 21.922 108.969 21.8941C108.969 21.9245 108.977 21.9473 108.992 21.9625C109.007 21.9777 109 22.0005 108.969 22.0309C108.787 22.0765 108.625 22.1018 108.481 22.1094C108.336 22.117 108.197 22.1196 108.06 22.1196C108.015 22.1196 107.999 22.1094 108.015 22.0866C108.03 22.0638 108.037 22.0436 108.037 22.0309C107.931 21.9853 107.814 21.9929 107.685 22.0537C107.556 22.1145 107.455 22.1601 107.379 22.1905C107.364 22.1601 107.366 22.1272 107.389 22.0892C107.412 22.0512 107.422 22.0183 107.422 21.9879C107.407 21.9271 107.376 21.9093 107.331 21.9321C107.285 21.9549 107.232 21.9575 107.171 21.9423V21.7827C107.126 21.7675 107.103 21.7751 107.103 21.8055C107.103 21.8359 107.088 21.8511 107.057 21.8511C106.966 21.7903 106.875 21.7726 106.784 21.7954C106.692 21.8182 106.601 21.8511 106.513 21.8967C106.421 21.9423 106.33 21.9803 106.239 22.0107C106.148 22.0411 106.064 22.0183 105.988 21.9423C106.034 21.8359 106.097 21.7599 106.181 21.7143C106.264 21.6687 106.297 21.5775 106.282 21.4433C106.252 21.4433 106.229 21.461 106.214 21.499C106.198 21.537 106.176 21.5395 106.145 21.5117C106.069 21.4509 105.986 21.4256 105.897 21.4332C105.806 21.4408 105.738 21.4813 105.692 21.5573C105.672 21.5041 105.634 21.4737 105.603 21.4585Z" fill="white"/>
<path d="M124.212 21.4129C124.182 21.4281 124.179 21.4383 124.2 21.4459C124.223 21.4535 124.225 21.4712 124.212 21.5016C124.091 21.4864 124.007 21.4383 123.962 21.3547C123.916 21.2711 123.855 21.2002 123.779 21.1394C123.764 20.9418 123.726 20.7924 123.665 20.686C123.665 20.6556 123.68 20.6404 123.711 20.6404C123.696 20.6252 123.68 20.6176 123.665 20.6176C123.65 20.6176 123.635 20.61 123.62 20.5948C123.589 20.2934 123.556 20.0401 123.518 19.8349C123.48 19.6298 123.47 19.3689 123.485 19.0523C123.485 19.0371 123.501 19.0143 123.531 18.9839C123.516 18.7281 123.539 18.4849 123.599 18.257C123.66 18.029 123.706 17.8112 123.736 17.5984C123.797 17.5072 123.843 17.3932 123.873 17.259C123.903 17.1222 123.919 16.9956 123.919 16.874H123.941C123.987 16.6334 124.05 16.4156 124.134 16.2281C124.217 16.0382 124.296 15.8533 124.372 15.6709C124.372 15.6405 124.359 15.6253 124.339 15.6253C124.319 15.6253 124.311 15.6025 124.326 15.5569C124.418 15.3745 124.494 15.1947 124.554 15.0123C124.615 14.83 124.684 14.6577 124.759 14.4906C124.668 14.4754 124.605 14.4652 124.567 14.4576C124.529 14.45 124.466 14.4551 124.374 14.4678C124.299 14.4222 124.192 14.412 124.058 14.4348C123.924 14.4576 123.815 14.4678 123.741 14.4678C123.574 14.483 123.415 14.4526 123.265 14.3766C123.113 14.3006 122.956 14.2322 122.789 14.1714C122.789 14.141 122.794 14.1233 122.802 14.1157C122.809 14.1081 122.812 14.0904 122.812 14.06C122.781 14.0296 122.751 14.0119 122.721 14.0043C122.69 13.9967 122.667 13.9789 122.652 13.9485C122.683 13.8573 122.667 13.7966 122.607 13.7662C122.546 13.7358 122.5 13.6826 122.47 13.6066C122.439 13.6066 122.417 13.6142 122.401 13.6294C122.386 13.6446 122.363 13.6446 122.333 13.6294C122.363 13.5534 122.348 13.5129 122.287 13.5053C122.227 13.4977 122.173 13.4875 122.128 13.4723C122.097 13.442 122.095 13.4192 122.115 13.404C122.138 13.3888 122.148 13.3736 122.148 13.3584C122.103 13.328 122.062 13.328 122.024 13.3584C121.986 13.3888 121.93 13.404 121.854 13.404C121.869 13.3736 121.887 13.3558 121.91 13.3482C121.933 13.3406 121.951 13.3229 121.966 13.2925C121.92 13.2469 121.875 13.2317 121.829 13.2469C121.799 13.1253 121.799 13.0418 121.829 12.9962C121.905 12.9962 121.943 13.0038 121.943 13.019C121.973 12.9734 121.983 12.9354 121.976 12.905C121.968 12.8746 121.963 12.829 121.963 12.7682C122.039 12.8138 122.125 12.8442 122.224 12.8594C122.323 12.8746 122.394 12.829 122.439 12.7226C122.515 12.7682 122.571 12.7707 122.609 12.7327C122.647 12.6948 122.703 12.677 122.779 12.677C122.809 12.677 122.824 12.6694 122.824 12.6542C122.824 12.639 122.832 12.6162 122.847 12.5858C123.014 12.5554 123.156 12.5301 123.278 12.5073C123.399 12.4845 123.534 12.444 123.686 12.3832C123.807 12.3832 123.914 12.3731 124.002 12.3503C124.093 12.3275 124.185 12.2971 124.276 12.2591C124.367 12.2211 124.458 12.1907 124.549 12.1679C124.64 12.1451 124.744 12.1426 124.866 12.1553C124.987 12.0185 125.112 11.9476 125.241 11.94C125.37 11.9324 125.509 11.907 125.661 11.8614C125.768 11.6335 125.866 11.3954 125.955 11.1472C126.046 10.8964 126.153 10.6659 126.272 10.4557C126.256 10.4253 126.256 10.4 126.272 10.3772C126.287 10.3544 126.294 10.329 126.294 10.2987C126.416 10.1315 126.515 9.95418 126.591 9.76421C126.667 9.57425 126.766 9.38935 126.887 9.20698C126.918 9.16139 126.94 9.11327 126.956 9.06007C126.971 9.00688 126.993 8.95116 127.024 8.89037C127.054 8.84478 127.092 8.80425 127.138 8.76626C127.183 8.72827 127.221 8.67254 127.252 8.59656C127.297 8.52057 127.335 8.43445 127.366 8.33567C127.396 8.23689 127.434 8.15077 127.48 8.07478C127.48 8.05959 127.487 8.05705 127.503 8.06212C127.518 8.06972 127.525 8.06719 127.525 8.05199C127.541 8.03679 127.543 8.02159 127.536 8.0064C127.528 7.9912 127.533 7.9684 127.548 7.93801C127.563 7.90761 127.586 7.88229 127.617 7.85949C127.647 7.83669 127.67 7.80377 127.685 7.75817C127.715 7.71258 127.733 7.66699 127.741 7.6214C127.748 7.57581 127.766 7.53022 127.796 7.48462C127.827 7.42383 127.872 7.34785 127.933 7.25666C127.964 7.18068 127.989 7.10469 128.012 7.02871C128.035 6.95272 128.067 6.89953 128.113 6.86913C128.128 6.76275 128.159 6.68423 128.204 6.63104C128.25 6.57785 128.28 6.49933 128.295 6.39295C128.341 6.34736 128.387 6.28657 128.432 6.21059C128.478 6.1346 128.523 6.05861 128.569 5.98263C128.66 5.75467 128.774 5.52924 128.908 5.30128C128.969 5.1949 129.017 5.08092 129.055 4.96188C129.093 4.8403 129.149 4.73392 129.225 4.64527C129.21 4.58448 129.21 4.53889 129.225 4.50849C129.24 4.4781 129.263 4.4477 129.293 4.41731V4.28053C129.4 4.15895 129.521 4.07537 129.656 4.02978C129.701 3.98419 129.742 3.94366 129.78 3.90567C129.818 3.86767 129.873 3.83475 129.949 3.80435C129.965 3.86514 129.965 3.89807 129.949 3.90567C129.934 3.91326 129.919 3.93353 129.904 3.96139C129.949 3.99178 129.982 4.00951 130.005 4.01711C130.028 4.02471 130.068 4.02218 130.129 4.00445C130.16 3.95886 130.193 3.92593 130.231 3.90313C130.268 3.88034 130.294 3.84741 130.309 3.80182C130.339 3.80182 130.37 3.82208 130.4 3.85754C130.431 3.89553 130.431 3.92846 130.4 3.95886C130.431 3.98925 130.448 3.99178 130.456 3.97152C130.464 3.94873 130.481 3.93859 130.512 3.93859C130.542 3.93859 130.56 3.95379 130.567 3.98419C130.575 4.01458 130.593 4.02978 130.623 4.02978C130.699 4.02978 130.755 4.01458 130.793 3.98419C130.831 3.95379 130.879 3.93859 130.94 3.93859C130.925 3.9082 130.912 3.88287 130.907 3.86007C130.899 3.83728 130.909 3.81195 130.94 3.78156C131.061 3.81195 131.17 3.87527 131.269 3.97405C131.368 4.07284 131.477 4.12096 131.598 4.12096C131.659 4.22734 131.735 4.31093 131.826 4.37172C131.917 4.43251 132.009 4.49329 132.1 4.55408C132.1 4.73645 132.161 4.86309 132.282 4.93908C132.267 5.06066 132.269 5.14678 132.295 5.19997C132.318 5.25316 132.305 5.31648 132.262 5.39247C132.277 5.42286 132.287 5.45326 132.295 5.48365C132.302 5.51404 132.305 5.55204 132.305 5.59763C132.229 5.82559 132.153 6.05861 132.077 6.30177C132.001 6.54493 131.887 6.74756 131.738 6.91473C131.738 7.0363 131.715 7.14269 131.669 7.23134C131.624 7.32252 131.568 7.4061 131.499 7.48209C131.431 7.55808 131.368 7.64166 131.307 7.73285C131.246 7.82403 131.208 7.93041 131.193 8.04946C131.102 8.21663 130.995 8.38886 130.876 8.57123C130.892 8.67761 130.866 8.7612 130.798 8.82198C130.729 8.88277 130.689 8.97396 130.674 9.093C130.659 9.093 130.651 9.09807 130.651 9.10567C130.651 9.11327 130.636 9.1158 130.605 9.1158C130.469 9.43241 130.307 9.72116 130.117 9.97698C129.927 10.2353 129.772 10.5215 129.65 10.8382C129.62 10.8686 129.595 10.8989 129.572 10.9293C129.549 10.9597 129.531 11.0129 129.516 11.0889C129.714 11.1193 129.891 11.1269 130.051 11.1117C130.21 11.0965 130.35 11.0737 130.471 11.0433C130.547 11.0281 130.623 11.0256 130.699 11.0332C130.775 11.0408 130.851 11.0433 130.927 11.0433C131.274 11.0129 131.679 10.9901 132.14 10.9749C132.601 10.9597 133.075 10.9521 133.559 10.9521C133.574 10.9673 133.576 10.9901 133.569 11.0205C133.561 11.0509 133.571 11.0813 133.602 11.1117C133.632 11.1117 133.655 11.0965 133.67 11.0661C133.685 11.0357 133.708 11.0357 133.739 11.0661C133.769 11.1877 133.749 11.2738 133.683 11.327C133.614 11.3802 133.551 11.4359 133.49 11.4967C133.582 11.5271 133.642 11.5499 133.673 11.5651C133.673 11.5955 133.68 11.6107 133.695 11.6107C133.711 11.6107 133.711 11.6259 133.695 11.6563C133.665 11.6867 133.642 11.6943 133.627 11.6791C133.612 11.6639 133.589 11.6563 133.559 11.6563C133.513 11.8082 133.422 11.8944 133.285 11.9172C133.148 11.94 133.019 11.9729 132.9 12.0185C132.915 11.9881 132.893 11.9729 132.832 11.9729C132.786 11.9729 132.756 11.9957 132.741 12.0413C132.725 12.0869 132.687 12.1097 132.627 12.1097C132.627 12.1553 132.622 12.1806 132.614 12.1882C132.606 12.1958 132.616 12.2084 132.647 12.2211C132.677 12.2059 132.703 12.1831 132.725 12.1527C132.748 12.1223 132.781 12.1071 132.827 12.1071C132.827 12.1527 132.817 12.1755 132.794 12.1755C132.771 12.1755 132.761 12.1907 132.761 12.2211C132.761 12.2515 132.776 12.2642 132.806 12.254C132.837 12.2464 132.867 12.2414 132.898 12.2414C132.882 12.2718 132.87 12.2971 132.865 12.3199C132.857 12.3427 132.844 12.3629 132.832 12.3756C132.741 12.4212 132.654 12.4592 132.571 12.4896C132.487 12.52 132.416 12.5732 132.356 12.6492C132.249 12.6796 132.15 12.7024 132.062 12.7176C131.971 12.7327 131.887 12.7631 131.811 12.8087C131.735 12.7783 131.657 12.7986 131.573 12.8645C131.489 12.9328 131.396 12.981 131.289 13.0114C131.259 13.0114 131.234 13.0088 131.211 13.0012C131.188 12.9936 131.163 12.9987 131.132 13.0114C130.995 13.0418 130.849 13.0899 130.689 13.1583C130.529 13.2267 130.367 13.252 130.2 13.2368C130.185 13.2368 130.18 13.2444 130.19 13.2596C130.198 13.2748 130.193 13.29 130.177 13.3052C129.828 13.29 129.488 13.3305 129.157 13.4293C128.825 13.5281 128.498 13.6142 128.181 13.6902C128.105 13.8573 128.029 13.9967 127.953 14.1106C127.877 14.2246 127.824 14.3639 127.794 14.5311C127.733 14.6375 127.677 14.7464 127.624 14.8604C127.571 14.9743 127.53 15.0833 127.5 15.1896C127.439 15.3264 127.368 15.4556 127.285 15.5746C127.201 15.6962 127.145 15.8558 127.115 16.0508C126.948 16.2484 126.826 16.4738 126.753 16.7322C126.677 16.9905 126.586 17.2387 126.482 17.4819C126.467 17.6035 126.436 17.7478 126.391 17.9125C126.345 18.0797 126.292 18.2291 126.231 18.3659C126.17 18.6394 126.094 18.9155 126.003 19.1941C125.912 19.4753 125.851 19.7438 125.821 19.9996C125.79 20.1364 125.768 20.2605 125.752 20.3744C125.737 20.4884 125.714 20.6049 125.684 20.7265C125.684 20.7721 125.661 20.8025 125.616 20.8177C125.6 20.8481 125.605 20.8633 125.628 20.8633C125.651 20.8633 125.661 20.8785 125.661 20.9089C125.464 21.1647 125.312 21.4534 125.208 21.7701C125.193 21.7853 125.162 21.7929 125.117 21.7929C125.086 21.8233 125.079 21.8536 125.094 21.884C125.109 21.9144 125.101 21.9524 125.071 21.998C125.01 21.998 124.972 21.9752 124.957 21.9296C124.942 21.884 124.919 21.846 124.889 21.8157C124.843 21.9068 124.858 21.9676 124.934 21.998C124.873 22.0132 124.828 22.0132 124.797 21.998C124.797 22.0284 124.805 22.0537 124.82 22.0765C124.835 22.0993 124.828 22.1171 124.797 22.1323C124.752 22.1323 124.729 22.1044 124.729 22.0537C124.729 22.0006 124.729 21.9524 124.729 21.9068C124.699 21.9676 124.676 22.0056 124.661 22.0208C124.6 22.0208 124.585 21.9752 124.615 21.884C124.539 21.884 124.501 21.8992 124.501 21.9296C124.44 21.8688 124.402 21.8131 124.387 21.7599C124.372 21.7067 124.349 21.6358 124.319 21.5446L124.296 21.5218C124.281 21.5218 124.273 21.5294 124.273 21.5446C124.258 21.5142 124.245 21.4914 124.24 21.4762C124.238 21.4661 124.228 21.4433 124.212 21.4129ZM122.396 13.404C122.351 13.404 122.328 13.4268 122.328 13.4723C122.374 13.4723 122.396 13.4496 122.396 13.404ZM122.804 13.8573C122.804 13.827 122.774 13.7966 122.713 13.7662C122.715 13.7966 122.743 13.827 122.804 13.8573ZM123.463 14.3563C123.463 14.3259 123.447 14.3082 123.417 14.3006C123.387 14.293 123.364 14.3057 123.349 14.3335C123.364 14.3487 123.387 14.3614 123.417 14.3665C123.447 14.3766 123.463 14.3715 123.463 14.3563Z" fill="white"/>
<path d="M132.335 15.0605C132.366 15.0301 132.411 14.982 132.472 14.9136C132.533 14.8452 132.589 14.7743 132.642 14.6983C132.695 14.6223 132.743 14.559 132.789 14.5058C132.834 14.4526 132.865 14.4273 132.88 14.4273C133.062 14.1714 133.25 13.9308 133.447 13.713C133.645 13.4926 133.825 13.2545 133.992 12.9987C134.22 12.8315 134.392 12.6086 134.514 12.33C134.635 12.0514 134.754 11.8488 134.876 11.7297C134.876 11.6993 134.866 11.6816 134.843 11.674C134.82 11.6664 134.802 11.6563 134.787 11.6411C134.818 11.5651 134.84 11.5094 134.856 11.4714C134.871 11.4334 134.916 11.4157 134.992 11.4157H135.038C135.205 11.1877 135.423 11.0611 135.696 11.0307C135.97 11.0003 136.226 10.9319 136.469 10.8255C136.484 10.8255 136.507 10.8559 136.537 10.9167C136.765 10.9167 137.003 10.9597 137.252 11.0408C137.502 11.1244 137.71 11.2257 137.875 11.3473H137.897C137.928 11.3473 137.935 11.3321 137.92 11.3017C137.905 11.2713 137.913 11.2561 137.943 11.2561C138.019 11.3321 138.156 11.4106 138.351 11.4942C138.548 11.5778 138.675 11.6183 138.736 11.6183H138.895C138.926 11.6183 139.02 11.6563 139.179 11.7323C139.339 11.8083 139.448 11.8766 139.508 11.9374C139.554 11.9374 139.577 11.9298 139.577 11.9146C139.607 12.021 139.698 12.0742 139.848 12.0742C139.893 12.0742 139.924 12.0666 139.939 12.0514C139.939 12.1122 140.002 12.2059 140.132 12.3351C140.261 12.4643 140.4 12.5934 140.552 12.7201C140.704 12.8493 140.907 13.0038 141.165 13.1861C141.454 13.4445 141.699 13.7307 141.902 14.0473C142.107 14.3639 142.208 14.7211 142.208 15.1137C142.208 15.1745 142.201 15.2302 142.186 15.2834C142.17 15.3366 142.163 15.3847 142.163 15.4303V15.6126C142.163 16.0052 142.077 16.3421 141.902 16.6233C141.727 16.9044 141.527 17.1501 141.302 17.3603C141.271 17.4667 141.216 17.5351 141.132 17.5655C141.048 17.5959 140.993 17.6567 140.962 17.7479L140.939 17.7251C140.894 17.7251 140.793 17.796 140.633 17.9404C140.473 18.0847 140.311 18.2342 140.144 18.3937C139.977 18.5533 139.835 18.7002 139.714 18.837C139.592 18.9738 139.546 19.027 139.577 18.9966C139.516 19.0877 139.417 19.1865 139.283 19.2904C139.146 19.3968 138.992 19.5031 138.817 19.607C138.642 19.7134 138.462 19.8147 138.272 19.9135C138.082 20.0123 137.898 20.0908 137.715 20.1516C137.383 20.3187 137.046 20.5112 136.705 20.7291C136.365 20.9494 136.074 21.0583 135.831 21.0583C135.77 21.0583 135.724 21.0507 135.694 21.0355C135.679 21.0659 135.661 21.0887 135.638 21.1039C135.615 21.1191 135.598 21.1419 135.582 21.1723C135.552 21.1571 135.534 21.1444 135.527 21.1394C135.519 21.1318 135.499 21.1292 135.471 21.1292C135.182 21.2356 134.866 21.2888 134.519 21.2888C134.306 21.2888 134.111 21.266 133.928 21.2204C133.746 21.1748 133.604 21.0989 133.498 20.9925H133.407C133.255 20.9925 133.123 20.9494 133.009 20.8684C132.895 20.7848 132.794 20.6911 132.703 20.5847C132.611 20.4783 132.518 20.3694 132.419 20.2554C132.32 20.1414 132.211 20.0477 132.09 19.9717C132.014 19.8046 131.958 19.6652 131.92 19.5513C131.882 19.4373 131.803 19.298 131.682 19.1308V19.0396C131.682 18.9636 131.674 18.8851 131.659 18.8015C131.644 18.718 131.636 18.6394 131.636 18.5634C131.667 18.5027 131.689 18.4545 131.705 18.4165C131.72 18.3785 131.727 18.3228 131.727 18.2468V17.8618V17.6339C131.727 17.5579 131.725 17.4794 131.715 17.3958C131.707 17.3122 131.705 17.2337 131.705 17.1577C131.705 17.0209 131.72 16.9171 131.75 16.8411V16.7499C131.75 16.4941 131.821 16.2256 131.966 15.9444C132.11 15.6658 132.242 15.41 132.363 15.1846C132.363 15.1694 132.358 15.1593 132.351 15.1517C132.343 15.1441 132.34 15.1339 132.34 15.1187V15.0605H132.335ZM135.332 17.7605C135.514 17.6845 135.684 17.6136 135.841 17.5452C136 17.4768 136.147 17.3755 136.284 17.2387L136.33 17.2615C136.406 17.2615 136.461 17.2286 136.499 17.1602C136.537 17.0918 136.593 17.0589 136.669 17.0589H136.715C136.745 16.9981 136.846 16.9069 137.021 16.7854C137.196 16.6638 137.383 16.5346 137.588 16.4004C137.794 16.2636 137.989 16.1268 138.179 15.9926C138.369 15.8558 138.5 15.7418 138.576 15.6532C138.592 15.638 138.64 15.6 138.723 15.5392C138.807 15.4784 138.893 15.4024 138.984 15.3112C139.075 15.22 139.159 15.1137 139.235 14.9946C139.311 14.873 139.349 14.7363 139.349 14.5868C139.349 14.45 139.308 14.3285 139.225 14.2246C139.141 14.1182 139.042 14.0195 138.928 13.9283C138.814 13.8371 138.698 13.751 138.576 13.6674C138.455 13.5838 138.364 13.4977 138.303 13.4065C138.014 13.7104 137.733 14.0195 137.452 14.3361C137.171 14.6527 136.836 15.0478 136.441 15.5164C136.152 15.8634 135.884 16.2129 135.636 16.5599C135.387 16.9069 135.177 17.2489 135.013 17.5807H135.081C135.157 17.5807 135.203 17.6035 135.218 17.6491C135.233 17.6921 135.271 17.7301 135.332 17.7605Z" fill="white"/>
<path d="M140.8 20.301C140.785 20.3162 140.77 20.301 140.755 20.2554C140.739 20.2098 140.732 20.1541 140.732 20.0857C140.732 20.0173 140.732 19.9489 140.732 19.8805C140.732 19.8121 140.739 19.7564 140.755 19.7108C140.785 19.6044 140.826 19.5284 140.879 19.4829C140.932 19.4373 140.972 19.3841 141.003 19.3233C141.018 19.2777 141.033 19.2169 141.048 19.1409C141.064 19.0649 141.056 19.0269 141.026 19.0269C141.102 18.9054 141.17 18.7711 141.231 18.6191C141.292 18.4672 141.345 18.3684 141.39 18.3253C141.542 18.0087 141.689 17.6187 141.834 17.1577C141.978 16.6967 142.125 16.3142 142.277 16.0128C142.398 15.7722 142.512 15.524 142.616 15.2757C142.723 15.025 142.814 14.7641 142.89 14.4931C142.966 14.4627 143.019 14.3563 143.049 14.1765C143.08 13.9941 143.156 13.8599 143.277 13.7687C143.445 13.1937 143.632 12.6542 143.845 12.1451C144.057 11.6385 144.222 11.1117 144.344 10.5671C144.42 10.5671 144.473 10.5899 144.503 10.6355C144.503 10.5443 144.544 10.4911 144.627 10.4759C144.711 10.4607 144.774 10.4683 144.82 10.4987C144.881 10.5595 144.873 10.5899 144.797 10.5899C144.797 10.6203 144.815 10.633 144.853 10.6228C144.891 10.6152 144.901 10.6431 144.886 10.7014C144.916 10.6862 144.947 10.676 144.977 10.6684C145.007 10.6608 145.023 10.6355 145.023 10.5899C145.068 10.6659 145.121 10.6963 145.182 10.6811C145.243 10.6659 145.288 10.7039 145.319 10.7951C145.349 10.7799 145.352 10.7697 145.329 10.7622C145.306 10.7546 145.301 10.7368 145.319 10.7064C145.41 10.7368 145.504 10.79 145.603 10.866C145.701 10.942 145.81 10.9952 145.932 11.0256C146.038 11.1927 146.107 11.3548 146.137 11.5144C146.167 11.674 146.236 11.8133 146.342 11.9349C146.312 12.0868 146.276 12.2414 146.241 12.4009C146.203 12.5605 146.162 12.7226 146.117 12.8898C146.132 12.9506 146.15 12.943 146.172 12.867C146.195 12.791 146.213 12.7834 146.228 12.8442C146.319 12.7226 146.433 12.6213 146.568 12.5377C146.704 12.4541 146.849 12.3528 146.998 12.2312C146.968 12.1704 147.006 12.1096 147.112 12.0489C147.219 11.9881 147.287 11.9273 147.317 11.8665C147.408 11.7449 147.5 11.6056 147.591 11.446C147.682 11.2865 147.773 11.1471 147.862 11.0256C147.938 10.9496 148.006 10.8812 148.067 10.8204C148.128 10.7596 148.181 10.6988 148.227 10.638C148.303 10.5772 148.366 10.5063 148.419 10.4227C148.472 10.3392 148.536 10.2986 148.612 10.2986C148.581 10.2226 148.607 10.1543 148.69 10.0935C148.774 10.0327 148.845 9.97949 148.905 9.9339C148.921 9.97949 148.921 10.0048 148.905 10.0124C148.89 10.02 148.883 10.0555 148.883 10.1137C148.898 10.1441 148.923 10.1416 148.961 10.1036C148.999 10.0656 149.017 10.0327 149.017 10.0023C149.062 10.0631 149.108 10.0935 149.154 10.0935C149.199 10.0935 149.214 10.1543 149.199 10.2758C149.26 10.291 149.306 10.2834 149.336 10.253C149.366 10.2226 149.359 10.2378 149.313 10.2986C149.344 10.2986 149.377 10.2834 149.415 10.253C149.453 10.2226 149.47 10.2454 149.47 10.3214C149.501 10.3062 149.523 10.3062 149.539 10.3214C149.554 10.3366 149.577 10.329 149.607 10.2986C149.637 10.4202 149.698 10.4886 149.789 10.5038C149.881 10.519 149.926 10.5646 149.926 10.6406C150.002 10.6254 150.048 10.6152 150.063 10.6076C150.078 10.6 150.101 10.6127 150.131 10.6406C150.116 10.7014 150.139 10.7571 150.2 10.8103C150.261 10.8635 150.245 10.8812 150.154 10.866C150.185 10.8964 150.207 10.9141 150.223 10.9217C150.238 10.9293 150.23 10.9496 150.2 10.9774C150.215 10.9471 150.238 10.9369 150.268 10.9445C150.299 10.9521 150.321 10.942 150.336 10.9116C150.352 10.942 150.377 10.9597 150.415 10.9673C150.453 10.9749 150.478 10.9952 150.494 11.023C150.463 11.175 150.524 11.2662 150.676 11.2941C150.676 11.3396 150.653 11.3802 150.608 11.4182C150.562 11.4562 150.562 11.4967 150.608 11.5423C150.623 11.5271 150.633 11.5093 150.64 11.4866C150.648 11.4638 150.658 11.446 150.673 11.4308C150.689 11.4308 150.694 11.4942 150.686 11.6233C150.678 11.7525 150.653 11.8538 150.608 11.9298C150.638 11.9298 150.656 11.9577 150.663 12.0083C150.671 12.0615 150.658 12.102 150.63 12.1324C150.661 12.1324 150.683 12.1248 150.699 12.1096C150.699 12.1856 150.648 12.3173 150.552 12.5073C150.453 12.6973 150.39 12.8594 150.359 12.9961C150.298 13.0569 150.238 13.1507 150.177 13.2798C150.116 13.409 150.093 13.5103 150.109 13.5863C150.093 13.5863 150.086 13.5787 150.086 13.5635C149.995 13.7459 149.919 13.946 149.858 14.1638C149.797 14.3842 149.706 14.5767 149.587 14.7413C149.572 14.7565 149.564 14.7337 149.564 14.6729C149.518 14.6881 149.508 14.721 149.531 14.7742C149.554 14.8274 149.572 14.8527 149.587 14.8527C149.556 14.8831 149.544 14.9313 149.554 14.9997C149.561 15.068 149.534 15.0858 149.475 15.0554C149.521 15.1314 149.521 15.1871 149.475 15.2251C149.43 15.2631 149.422 15.3112 149.453 15.372C149.422 15.3416 149.397 15.3416 149.374 15.372C149.351 15.4024 149.333 15.41 149.318 15.3948C149.227 15.562 149.197 15.7646 149.227 16.0077C149.166 15.9773 149.128 15.9773 149.113 16.0077C149.098 16.0381 149.068 16.0381 149.022 16.0077C149.052 16.0685 149.052 16.1015 149.022 16.1091C148.992 16.1167 148.961 16.1141 148.931 16.0989C148.931 16.1141 148.938 16.1217 148.954 16.1217C148.969 16.1673 148.956 16.1749 148.921 16.1445C148.883 16.1141 148.857 16.1217 148.842 16.1673V16.0989C148.736 16.1445 148.637 16.1319 148.546 16.066C148.455 15.9976 148.401 16.0027 148.386 16.0761C148.356 16.0153 148.341 15.9166 148.341 15.7823C148.265 15.8735 148.216 15.8887 148.194 15.8279C148.171 15.7671 148.12 15.7519 148.047 15.7823C148.016 15.7215 147.986 15.6734 147.956 15.6354C147.925 15.5974 147.895 15.5645 147.864 15.5341C147.864 15.5797 147.842 15.6025 147.796 15.6025C147.75 15.4505 147.702 15.3619 147.649 15.3315C147.596 15.3011 147.533 15.2023 147.457 15.0376C147.305 15.144 147.168 15.2681 147.049 15.4125C146.927 15.5569 146.783 15.681 146.618 15.7874V15.7418C146.588 15.757 146.588 15.7747 146.618 15.7975C146.649 15.8203 146.649 15.8532 146.618 15.8988C146.588 15.8988 146.557 15.9216 146.527 15.9672C146.497 16.0128 146.466 16.0533 146.436 16.0913C146.405 16.1293 146.37 16.1597 146.335 16.1825C146.297 16.2053 146.264 16.2028 146.233 16.1698C146.218 16.185 146.226 16.2078 146.256 16.2382C146.119 16.4054 145.985 16.5827 145.848 16.7727C145.711 16.9626 145.582 17.1095 145.463 17.2159C145.433 17.2159 145.425 17.221 145.44 17.2261C145.456 17.2337 145.463 17.2539 145.463 17.2818C145.296 17.4945 145.121 17.763 144.941 18.0872C144.759 18.4114 144.61 18.6799 144.488 18.8927C144.473 18.8927 144.45 18.9357 144.42 19.0168C144.389 19.1004 144.359 19.1561 144.329 19.1865C144.298 19.2017 144.291 19.2017 144.306 19.1865C144.321 19.1713 144.313 19.2017 144.283 19.2777C144.237 19.3537 144.174 19.4525 144.09 19.5715C144.007 19.6931 143.928 19.7919 143.852 19.8678C143.776 19.959 143.7 20.0376 143.624 20.1059C143.548 20.1743 143.472 20.2528 143.396 20.344C143.351 20.4504 143.303 20.5644 143.249 20.6834C143.196 20.805 143.125 20.919 143.034 21.0228C142.989 21.0988 142.92 21.2052 142.829 21.3395C142.738 21.4762 142.707 21.6181 142.738 21.77C142.616 21.7548 142.479 21.7396 142.33 21.7244C142.178 21.7092 142.049 21.7244 141.945 21.77C141.93 21.7396 141.915 21.6915 141.899 21.6231C141.884 21.5547 141.861 21.4838 141.831 21.4078C141.801 21.423 141.778 21.4458 141.763 21.4762C141.747 21.5066 141.725 21.5142 141.694 21.499C141.694 21.423 141.664 21.385 141.603 21.385C141.542 21.385 141.535 21.3546 141.58 21.2939C141.504 21.3091 141.451 21.2812 141.421 21.2153C141.39 21.147 141.352 21.1292 141.307 21.1596C141.276 21.0836 141.259 21.0304 141.251 21C141.243 20.9697 141.241 20.9241 141.241 20.8633C141.195 20.8329 141.165 20.8253 141.15 20.8405C141.135 20.8557 141.097 20.8633 141.036 20.8633C141.036 20.7417 141.015 20.6733 140.98 20.6581C140.942 20.6429 140.909 20.6049 140.879 20.5441V20.6353C140.818 20.6049 140.78 20.5517 140.765 20.4757C140.739 20.4074 140.755 20.3466 140.8 20.301Z" fill="white"/>
<path d="M159.498 15.6051C159.483 15.5899 159.47 15.5823 159.465 15.5823C159.457 15.5823 159.445 15.5747 159.432 15.5595C159.493 15.6506 159.579 15.6582 159.693 15.5823C159.807 15.5063 159.908 15.4683 159.999 15.4683C159.999 15.4987 159.992 15.5164 159.977 15.524C159.961 15.5316 159.954 15.5443 159.954 15.5569C159.984 15.6025 160.01 15.6101 160.032 15.5797C160.055 15.5493 160.081 15.5493 160.111 15.5797C160.126 15.6253 160.113 15.6557 160.078 15.6709C160.04 15.6861 160.022 15.6785 160.022 15.6481C159.992 15.6633 159.977 15.681 159.977 15.7038C159.977 15.7266 159.961 15.7368 159.931 15.7368C159.946 15.7976 159.946 15.8583 159.931 15.9191C159.992 15.9191 160.053 15.9115 160.113 15.8963C160.098 15.9571 160.091 16.0331 160.091 16.1243C160.015 16.1699 159.959 16.218 159.921 16.2712C159.883 16.3244 159.827 16.3801 159.751 16.4409C159.721 16.4561 159.706 16.451 159.706 16.4308C159.706 16.408 159.69 16.3978 159.66 16.3978V16.489C159.584 16.4738 159.544 16.4865 159.536 16.522C159.528 16.56 159.508 16.6005 159.48 16.6461C159.526 16.6461 159.556 16.6359 159.571 16.6131C159.587 16.5903 159.617 16.565 159.663 16.5346C159.663 16.565 159.678 16.5827 159.708 16.5903C159.739 16.5979 159.754 16.6157 159.754 16.6461C159.708 16.6461 159.678 16.6537 159.663 16.6689C159.647 16.6841 159.617 16.6917 159.571 16.6917C159.571 16.7069 159.566 16.7195 159.561 16.7246C159.554 16.7322 159.549 16.7524 159.549 16.7803C159.503 16.7651 159.48 16.7778 159.48 16.8132C159.48 16.8512 159.473 16.8842 159.457 16.9146C159.336 16.9146 159.242 16.9449 159.174 17.0057C159.105 17.0665 159.019 17.0893 158.913 17.0741C158.882 17.1349 158.834 17.1653 158.766 17.1653C158.698 17.1653 158.649 17.2033 158.619 17.2793C158.589 17.2945 158.571 17.2945 158.563 17.2793C158.556 17.2641 158.543 17.2565 158.53 17.2565C158.485 17.3325 158.424 17.3781 158.348 17.3933C158.272 17.4085 158.211 17.4389 158.166 17.4845H158.188C158.158 17.5756 158.112 17.644 158.052 17.6896C157.991 17.7352 157.938 17.7352 157.892 17.6896C157.862 17.7504 157.821 17.7985 157.768 17.8365C157.715 17.8745 157.674 17.915 157.644 17.9606C157.674 17.9758 157.715 17.9606 157.768 17.915C157.821 17.8694 157.862 17.877 157.892 17.9378C157.816 18.0138 157.725 18.0746 157.619 18.1202C157.512 18.1658 157.406 18.2038 157.302 18.2342C157.302 18.295 157.31 18.3127 157.325 18.2899C157.34 18.2671 157.348 18.2722 157.348 18.3C157.317 18.3304 157.287 18.3482 157.256 18.3558C157.226 18.3634 157.211 18.4039 157.211 18.4799C157.059 18.4495 156.99 18.5103 157.006 18.6622C156.975 18.6774 156.952 18.6622 156.937 18.6166C156.724 18.7838 156.494 18.9257 156.246 19.0472C155.998 19.1688 155.757 19.3056 155.531 19.455C155.364 19.455 155.215 19.5386 155.078 19.7058C154.85 19.7818 154.635 19.8755 154.432 19.9895C154.227 20.1034 154.027 20.22 153.832 20.3415C153.832 20.3719 153.84 20.3795 153.855 20.3643C153.87 20.3491 153.885 20.3415 153.9 20.3415C153.733 20.4783 153.548 20.5847 153.346 20.6581C153.14 20.7341 152.956 20.8405 152.788 20.9748C152.591 20.99 152.411 21.0355 152.244 21.1115C152.077 21.1875 151.912 21.2407 151.745 21.2711C151.714 21.2863 151.674 21.2888 151.621 21.2812C151.568 21.2736 151.512 21.2762 151.451 21.2939C151.329 21.3243 151.16 21.3319 150.939 21.3167C150.719 21.3015 150.534 21.2787 150.382 21.2483C150.352 21.2331 150.319 21.2154 150.281 21.1926C150.243 21.1698 150.202 21.1445 150.157 21.1141C150.142 21.1141 150.124 21.1217 150.101 21.1369C150.078 21.1521 150.058 21.1445 150.045 21.1141C150.015 21.0989 149.984 21.0685 149.954 21.0229C149.924 20.9773 149.878 20.9393 149.817 20.9089C149.741 20.8633 149.665 20.8152 149.589 20.762C149.513 20.7088 149.437 20.6683 149.361 20.6379C149.361 20.6075 149.354 20.5898 149.339 20.5822C149.323 20.5746 149.316 20.5568 149.316 20.5264C149.27 20.5264 149.247 20.5188 149.247 20.5036C149.232 20.4732 149.227 20.4505 149.237 20.4353C149.245 20.4201 149.247 20.4049 149.247 20.3897C149.217 20.3745 149.207 20.3795 149.214 20.4023C149.222 20.4251 149.217 20.4277 149.204 20.4125C149.083 20.2453 148.976 20.068 148.888 19.878C148.797 19.6881 148.69 19.526 148.571 19.3892C148.541 19.1612 148.465 18.989 148.343 18.8674C148.328 18.8674 148.331 18.8801 148.353 18.9003C148.376 18.9231 148.374 18.9333 148.343 18.9333C148.191 18.7053 148.12 18.409 148.128 18.0366C148.135 17.6668 148.199 17.3299 148.32 17.026C148.366 16.9652 148.404 16.8968 148.434 16.8208C148.465 16.7449 148.518 16.6917 148.594 16.6613C148.761 16.2383 148.971 15.8786 149.23 15.5823C149.485 15.2884 149.736 15.0048 149.979 14.7312C150.025 14.6704 150.073 14.6172 150.126 14.5716C150.18 14.526 150.235 14.4653 150.296 14.3893C150.342 14.3285 150.41 14.2601 150.501 14.1841C150.577 14.1081 150.656 14.0321 150.739 13.9562C150.823 13.8802 150.909 13.8042 151 13.7282C151.152 13.6066 151.276 13.4825 151.375 13.3533C151.474 13.2241 151.598 13.1228 151.75 13.0468C151.75 13.0165 151.752 13.0013 151.763 13.0013C151.77 13.0013 151.773 12.9861 151.773 12.9557C151.879 12.9101 151.973 12.8543 152.056 12.786C152.14 12.7176 152.218 12.6239 152.294 12.5023C152.416 12.5175 152.502 12.4795 152.555 12.3883C152.609 12.2971 152.672 12.2287 152.748 12.1831C152.809 12.1527 152.864 12.1299 152.918 12.1147C152.971 12.0996 153.019 12.0692 153.064 12.0236C153.125 11.9628 153.178 11.9172 153.224 11.8868C153.452 11.7348 153.677 11.5955 153.905 11.4663C154.133 11.3372 154.374 11.213 154.632 11.0915C154.799 11.0155 154.972 10.9243 155.154 10.8179C155.336 10.7115 155.531 10.6279 155.744 10.5672C155.79 10.5672 155.813 10.552 155.813 10.5216C155.843 10.5368 155.876 10.5317 155.914 10.5114C155.952 10.4886 155.985 10.4709 156.015 10.4557C156.137 10.4101 156.261 10.3696 156.39 10.3316C156.519 10.2936 156.643 10.2607 156.765 10.2303C156.887 10.2303 157.026 10.2354 157.185 10.2404C157.345 10.248 157.484 10.2885 157.606 10.3645C157.621 10.4101 157.621 10.4329 157.606 10.4329C157.591 10.4329 157.576 10.4329 157.56 10.4329C157.621 10.4785 157.689 10.5241 157.765 10.5697C157.841 10.6153 157.895 10.6913 157.925 10.7977C157.955 10.828 158.001 10.8584 158.062 10.8888C158.107 11.0256 158.168 11.1016 158.244 11.1168C158.214 11.132 158.206 11.1447 158.221 11.1497C158.237 11.1573 158.244 11.17 158.244 11.1826C158.305 11.2282 158.343 11.2764 158.358 11.3296C158.373 11.3827 158.396 11.4461 158.427 11.5221C158.457 11.598 158.495 11.6588 158.541 11.7044C158.586 11.75 158.624 11.8108 158.655 11.8868C158.685 11.9324 158.7 11.9805 158.7 12.0337C158.7 12.0869 158.715 12.1274 158.746 12.1578C158.746 12.2338 158.738 12.287 158.723 12.3174C158.784 12.3478 158.817 12.3883 158.824 12.4415C158.832 12.4947 158.827 12.5479 158.812 12.6011C158.796 12.6543 158.784 12.71 158.779 12.7708C158.771 12.8316 158.781 12.8923 158.812 12.9531C158.812 12.9835 158.801 13.0089 158.779 13.0316C158.756 13.0544 158.751 13.0874 158.766 13.133C158.644 13.2545 158.538 13.3939 158.449 13.5534C158.358 13.713 158.259 13.8523 158.153 13.9739C158.123 13.9891 158.105 14.0043 158.097 14.0195C158.09 14.0347 158.069 14.0499 158.042 14.0651C157.981 14.1411 157.925 14.2094 157.872 14.2702C157.819 14.331 157.755 14.3918 157.679 14.4526C157.649 14.483 157.616 14.5058 157.578 14.521C157.54 14.5362 157.507 14.5742 157.477 14.635C157.446 14.6654 157.408 14.6983 157.363 14.7363C157.317 14.7743 157.279 14.8072 157.249 14.8376C157.173 14.868 157.087 14.9009 156.988 14.9389C156.889 14.9769 156.818 15.0326 156.773 15.1086C156.529 15.2454 156.296 15.3898 156.068 15.5392C155.84 15.6912 155.6 15.8279 155.342 15.947C155.266 15.9774 155.197 15.9951 155.136 16.0027C155.076 16.0103 155.022 16.0458 154.977 16.104C154.901 16.104 154.832 16.1319 154.772 16.1826C154.711 16.2357 154.635 16.2687 154.544 16.2839C154.498 16.2839 154.468 16.3067 154.452 16.3523L154.384 16.3295C154.232 16.4358 154.078 16.5144 153.918 16.5675C153.758 16.6207 153.596 16.6689 153.429 16.7145C153.368 16.7297 153.338 16.7221 153.338 16.6917C153.262 16.7069 153.206 16.7297 153.168 16.76C153.13 16.7904 153.075 16.798 152.999 16.7828C152.968 16.8132 152.938 16.836 152.907 16.8512C152.786 16.8512 152.672 16.8664 152.568 16.8968C152.462 16.9272 152.348 16.9272 152.229 16.8968C152.198 16.8968 152.183 16.9044 152.183 16.9196C152.183 16.9348 152.168 16.95 152.137 16.9652C152.061 16.9348 151.985 16.9196 151.909 16.9196C151.833 16.9196 151.78 16.8816 151.75 16.8056C151.719 16.8056 151.689 16.8107 151.659 16.8183C151.628 16.8259 151.59 16.8158 151.545 16.7854C151.423 16.907 151.302 17.0361 151.183 17.1704C151.061 17.3071 150.955 17.4642 150.866 17.6466C150.851 17.6466 150.843 17.644 150.843 17.6364C150.843 17.6288 150.836 17.6238 150.82 17.6238C150.805 17.6845 150.777 17.7251 150.742 17.7479C150.704 17.7707 150.686 17.834 150.686 17.9404C150.595 17.986 150.542 18.0695 150.526 18.1911C150.511 18.3127 150.466 18.4115 150.39 18.4849C150.557 18.4849 150.734 18.4621 150.924 18.4165C151.114 18.371 151.291 18.3406 151.459 18.3254C151.489 18.3102 151.504 18.2924 151.504 18.2696C151.504 18.2468 151.519 18.2291 151.55 18.2139C151.656 18.2291 151.74 18.219 151.801 18.181C151.861 18.143 151.937 18.1253 152.028 18.1253C152.044 18.1253 152.066 18.0949 152.097 18.0341C152.173 18.0493 152.264 18.0341 152.37 17.9885C152.477 17.9429 152.568 17.8973 152.644 17.8517C152.811 17.8517 152.973 17.8112 153.133 17.7276C153.292 17.644 153.455 17.5883 153.622 17.5579C153.698 17.4667 153.799 17.4211 153.928 17.4211C154.057 17.4211 154.143 17.3679 154.189 17.2616C154.311 17.2312 154.425 17.2058 154.528 17.183C154.635 17.1602 154.741 17.1121 154.845 17.0361C154.86 17.0361 154.868 17.0437 154.868 17.0589C154.868 17.0741 154.883 17.0741 154.913 17.0589V17.0133C155.005 16.9525 155.108 16.9146 155.23 16.8994C155.352 16.8842 155.448 16.8234 155.524 16.717C155.737 16.717 155.924 16.6638 156.091 16.5574H156.114C156.129 16.5574 156.137 16.5625 156.137 16.5701C156.137 16.5777 156.144 16.5802 156.16 16.5802C156.175 16.5802 156.185 16.5726 156.193 16.5574C156.2 16.5422 156.218 16.527 156.248 16.5118C156.461 16.451 156.671 16.3725 156.884 16.2737C157.097 16.175 157.33 16.0584 157.588 15.9217C157.619 15.9521 157.649 15.9546 157.679 15.9318C157.71 15.909 157.748 15.9141 157.793 15.9419C157.915 15.8659 158.034 15.8203 158.156 15.8052C158.277 15.79 158.406 15.7596 158.541 15.714C158.632 15.6836 158.723 15.6456 158.812 15.6C158.903 15.5544 159.002 15.5316 159.108 15.5316C159.229 15.5316 159.343 15.4936 159.447 15.4176C159.554 15.3416 159.668 15.2884 159.787 15.2581C159.847 15.2581 159.911 15.2555 159.979 15.2454C160.048 15.2378 160.103 15.2353 160.149 15.2353C160.149 15.2808 160.129 15.3036 160.093 15.3036C160.055 15.3036 160.037 15.3264 160.037 15.372C159.946 15.3416 159.87 15.3619 159.81 15.4278C159.749 15.4961 159.673 15.5139 159.582 15.4835C159.566 15.5139 159.551 15.5291 159.536 15.5291C159.506 15.5595 159.498 15.5747 159.498 15.6051ZM153.508 14.6958C153.553 14.6198 153.614 14.6096 153.69 14.6628C153.766 14.716 153.827 14.7109 153.872 14.6527C153.857 14.7135 153.857 14.7439 153.872 14.7439C153.888 14.7439 153.905 14.7337 153.928 14.7109C153.951 14.6882 153.974 14.6654 153.997 14.6426C154.019 14.6198 154.037 14.6096 154.052 14.6096C154.067 14.5944 154.085 14.5919 154.108 14.5995C154.131 14.6071 154.149 14.6096 154.164 14.6096C154.255 14.6248 154.323 14.5792 154.369 14.4729C154.414 14.3665 154.475 14.3209 154.551 14.3361C154.612 14.2601 154.675 14.2221 154.744 14.2221C154.812 14.2221 154.868 14.1765 154.913 14.0853C155.005 14.0853 155.119 14.0549 155.253 13.9941C155.39 13.9334 155.562 13.8118 155.775 13.6319C155.805 13.5712 155.866 13.4572 155.957 13.2925C156.048 13.1254 156.117 13.0291 156.162 12.9987C156.132 12.9683 156.091 12.9607 156.038 12.9759C155.985 12.9911 155.932 13.0139 155.878 13.0443C155.825 13.0747 155.772 13.1 155.719 13.1228C155.666 13.1456 155.633 13.1507 155.618 13.133C155.587 13.1634 155.519 13.2191 155.412 13.3027C155.306 13.3863 155.238 13.4268 155.207 13.4268C155.101 13.442 155.015 13.4977 154.946 13.5965C154.878 13.6953 154.799 13.7282 154.708 13.6978C154.678 13.7586 154.64 13.8118 154.594 13.8574C154.549 13.903 154.496 13.9106 154.435 13.8802C154.404 13.9106 154.374 13.941 154.344 13.9713C154.313 14.0017 154.268 14.0169 154.207 14.0169C154.192 14.0169 154.187 14.0271 154.197 14.0499C154.204 14.0727 154.199 14.0828 154.184 14.0828C154.138 14.0676 154.105 14.0803 154.083 14.1157C154.06 14.1537 154.035 14.1714 154.004 14.1714C154.004 14.1562 153.997 14.1486 153.981 14.1486V14.1942C153.89 14.2702 153.796 14.3335 153.698 14.3867C153.599 14.4399 153.513 14.526 153.437 14.6476H153.391V14.716C153.422 14.716 153.439 14.7084 153.447 14.6932C153.457 14.6831 153.477 14.6831 153.508 14.6958Z" fill="white"/>
<path d="M165.263 8.77386C165.293 8.80425 165.316 8.80172 165.331 8.7612C165.346 8.7232 165.377 8.71307 165.422 8.72827C165.422 8.74347 165.415 8.76626 165.4 8.79666C165.43 8.79666 165.453 8.78906 165.468 8.77386C165.483 8.75866 165.506 8.74347 165.536 8.72827C165.567 8.75866 165.567 8.78146 165.536 8.79666C165.506 8.81185 165.506 8.83465 165.536 8.86504C165.536 8.89544 165.516 8.91064 165.481 8.91064C165.443 8.91064 165.44 8.92583 165.47 8.95623C165.501 8.97143 165.531 8.95623 165.562 8.91064C165.592 8.86504 165.622 8.84985 165.653 8.86504C165.653 8.92583 165.645 8.97143 165.63 9.00182C165.721 8.97143 165.782 8.91823 165.812 8.84225C165.843 8.76626 165.896 8.72827 165.972 8.72827C165.987 8.75866 166.002 8.78399 166.018 8.80679C166.033 8.82958 166.056 8.85491 166.086 8.88531C166.101 8.87011 166.126 8.86251 166.164 8.86251C166.202 8.86251 166.243 8.85491 166.289 8.83972C166.349 8.87011 166.39 8.86251 166.413 8.81692C166.435 8.77133 166.468 8.74853 166.514 8.74853C166.544 8.76373 166.537 8.80932 166.491 8.88531C166.522 8.9005 166.547 8.89544 166.57 8.87264C166.593 8.84985 166.61 8.82452 166.625 8.79412C166.671 8.87011 166.739 8.93343 166.831 8.98662C166.922 9.03981 167.005 9.10314 167.081 9.17912C167.097 9.17912 167.099 9.16646 167.091 9.14619C167.084 9.1234 167.094 9.11327 167.124 9.11327C167.155 9.23484 167.185 9.30323 167.216 9.31843C167.261 9.4856 167.314 9.62238 167.375 9.72622C167.436 9.8326 167.466 9.95418 167.466 10.0884C167.451 10.1492 167.438 10.21 167.433 10.2708C167.426 10.3316 167.413 10.3772 167.4 10.4076C167.355 10.5899 167.317 10.7546 167.287 10.9065C167.256 11.0585 167.264 11.2004 167.309 11.3371C167.37 11.5347 167.393 11.7373 167.378 11.9501C167.347 11.9501 167.332 11.9552 167.332 11.9628C167.332 11.9704 167.325 11.9729 167.309 11.9729C167.309 12.1705 167.276 12.3503 167.208 12.5175C167.14 12.6846 167.069 12.8493 166.993 13.0164C166.917 13.214 166.861 13.4065 166.823 13.5939C166.785 13.7839 166.722 13.9688 166.631 14.1512C166.631 14.1816 166.625 14.1968 166.618 14.1968C166.61 14.1968 166.613 14.212 166.631 14.2423C166.585 14.2727 166.562 14.3209 166.562 14.3893C166.562 14.4576 166.539 14.5058 166.494 14.5362C166.463 14.5362 166.433 14.521 166.403 14.4906C166.281 14.521 166.19 14.5893 166.132 14.6957C166.071 14.8021 165.98 14.8705 165.858 14.9009C165.873 14.8553 165.871 14.8452 165.848 14.868C165.825 14.8908 165.815 14.8882 165.815 14.8578C165.785 14.8426 165.769 14.8477 165.769 14.868C165.769 14.8908 165.762 14.9009 165.747 14.9009C165.686 14.9009 165.655 14.8705 165.655 14.8097C165.625 14.8401 165.61 14.8426 165.61 14.8198C165.61 14.797 165.595 14.8021 165.564 14.8325C165.534 14.8477 165.524 14.8401 165.531 14.8097C165.539 14.7793 165.526 14.7565 165.498 14.7413C165.422 14.7717 165.359 14.7565 165.306 14.6957C165.253 14.6349 165.189 14.6045 165.113 14.6045C165.053 14.5286 164.969 14.483 164.863 14.4678C164.756 14.4526 164.673 14.3994 164.614 14.3082C164.584 14.2322 164.548 14.1765 164.513 14.1385C164.475 14.1005 164.442 14.06 164.412 14.0144C164.397 13.8928 164.366 13.8168 164.321 13.7864C164.275 13.756 164.252 13.6952 164.252 13.6041C164.176 13.5585 164.128 13.5103 164.105 13.4572C164.082 13.404 164.057 13.3406 164.027 13.2647C164.057 13.2191 164.065 13.1583 164.05 13.0823C164.034 13.0063 164.012 12.9531 163.981 12.9227C164.027 12.8315 164.042 12.7403 164.027 12.6492C163.92 12.6796 163.819 12.7125 163.72 12.7505C163.621 12.7885 163.513 12.8214 163.391 12.8518C163.163 13.019 162.938 13.1684 162.71 13.3052C162.482 13.442 162.287 13.6142 162.119 13.827C162.104 13.827 162.097 13.8244 162.097 13.8168C162.097 13.8092 162.089 13.8067 162.074 13.8067C161.922 13.9739 161.783 14.136 161.653 14.2955C161.524 14.4551 161.385 14.602 161.233 14.7388C161.248 14.7844 161.248 14.8148 161.233 14.83C161.489 15.0275 161.876 15.1466 162.39 15.1922C162.421 15.2074 162.454 15.2124 162.492 15.2023C162.53 15.1947 162.57 15.1922 162.616 15.1922C162.677 15.2074 162.755 15.2251 162.854 15.2479C162.953 15.2707 163.054 15.2808 163.16 15.2808C163.312 15.296 163.467 15.3087 163.627 15.3138C163.786 15.3214 163.941 15.3391 164.093 15.3695C164.26 15.3999 164.437 15.4252 164.627 15.448C164.817 15.4708 165.002 15.4961 165.184 15.5265C165.215 15.5265 165.237 15.5164 165.253 15.4936C165.268 15.4708 165.283 15.4607 165.298 15.4607C165.329 15.4759 165.359 15.4911 165.389 15.5063C165.42 15.5214 165.45 15.529 165.481 15.529C165.557 15.5594 165.64 15.567 165.729 15.5518C165.82 15.5366 165.904 15.5139 165.98 15.4835C166.235 15.4531 166.403 15.4987 166.479 15.6202C166.585 15.605 166.691 15.605 166.795 15.6202C166.902 15.6354 167.008 15.6506 167.112 15.6658C167.142 15.681 167.175 15.681 167.213 15.6658C167.251 15.6506 167.284 15.6506 167.314 15.6658C167.36 15.681 167.398 15.7089 167.428 15.7443C167.459 15.7823 167.504 15.8077 167.565 15.8229C167.58 15.8381 167.596 15.8431 167.611 15.833C167.626 15.8254 167.634 15.8305 167.634 15.8457C167.755 15.9064 167.856 15.9596 167.94 16.0052C168.024 16.0508 168.102 16.104 168.178 16.1648C168.208 16.256 168.254 16.3117 168.315 16.3345C168.376 16.3573 168.414 16.3978 168.429 16.4586C168.429 16.4738 168.431 16.4687 168.439 16.4459C168.447 16.4232 168.459 16.4282 168.472 16.4586C168.411 16.5954 168.419 16.7752 168.495 17.0032C168.51 17.0336 168.533 17.064 168.563 17.0944C168.563 17.1096 168.563 17.14 168.563 17.1856C168.563 17.2311 168.578 17.2615 168.609 17.2767C168.593 17.3983 168.568 17.5047 168.53 17.5933C168.492 17.6845 168.459 17.7833 168.429 17.8872C168.383 17.8872 168.345 17.8948 168.315 17.91C168.284 17.9252 168.239 17.9328 168.178 17.9328C168.072 18.0695 167.943 18.1683 167.793 18.2266C167.641 18.2874 167.504 18.3785 167.385 18.4976C167.203 18.5584 167.084 18.604 167.023 18.6344C166.615 18.7711 166.21 18.9155 165.81 19.0649C165.41 19.2169 164.989 19.3461 164.551 19.4499C164.521 19.4499 164.51 19.4651 164.518 19.4955C164.526 19.5259 164.516 19.5411 164.485 19.5411C164.44 19.5411 164.417 19.5259 164.417 19.4955C164.189 19.6171 163.966 19.7007 163.748 19.7463C163.528 19.7919 163.297 19.8603 163.057 19.9515C163.041 19.9515 163.034 19.9667 163.034 19.997C162.52 20.1338 162.021 20.3061 161.537 20.5188C161.37 20.5796 161.223 20.6404 161.094 20.7012C160.964 20.762 160.818 20.7924 160.65 20.7924C160.65 20.8076 160.645 20.8202 160.64 20.8253C160.633 20.8329 160.628 20.8532 160.628 20.881C160.552 20.881 160.498 20.8734 160.468 20.8582C160.301 20.8886 160.146 20.9215 160.002 20.9595C159.858 20.9975 159.726 21.0381 159.604 21.0836C159.559 21.0988 159.513 21.1166 159.468 21.1394C159.422 21.1622 159.376 21.1875 159.331 21.2179C159.209 21.2483 159.093 21.2584 158.979 21.2508C158.865 21.2432 158.763 21.2761 158.672 21.3521C158.505 21.3369 158.34 21.3471 158.173 21.3851C158.006 21.4231 157.819 21.4332 157.606 21.418C157.606 21.342 157.621 21.2939 157.651 21.2711C157.682 21.2483 157.697 21.223 157.697 21.1926C157.727 21.223 157.765 21.2331 157.811 21.2255C157.857 21.2179 157.887 21.1976 157.902 21.1698C157.933 21.1394 157.94 21.114 157.925 21.0912C157.91 21.0685 157.902 21.0431 157.902 21.0127C157.857 21.0127 157.803 21.0153 157.743 21.0229C157.682 21.0305 157.636 21.0482 157.606 21.0786C157.575 21.0938 157.545 21.1191 157.515 21.1571C157.484 21.1951 157.446 21.2052 157.401 21.19C157.401 21.1596 157.411 21.1267 157.434 21.0887C157.456 21.0507 157.482 21.0178 157.512 20.9874H157.489V20.9418C157.459 20.957 157.436 20.957 157.421 20.9418C157.406 20.9266 157.391 20.9342 157.375 20.9646C157.345 20.9494 157.337 20.9317 157.353 20.9089C157.368 20.8861 157.368 20.8658 157.353 20.8532C157.307 20.8684 157.292 20.8861 157.307 20.9089C157.322 20.9317 157.33 20.957 157.33 20.9874C157.254 21.0178 157.208 21.0127 157.193 20.9773C157.178 20.9393 157.155 20.9342 157.125 20.9671C157.094 20.9063 157.107 20.8506 157.158 20.7974C157.211 20.7442 157.213 20.6885 157.168 20.6277C157.137 20.6429 157.112 20.6581 157.089 20.6733C157.066 20.6885 157.041 20.6885 157.011 20.6733C156.995 20.6125 157.001 20.5492 157.023 20.4808C157.046 20.4124 157.044 20.3491 157.011 20.2883C157.041 20.2579 157.071 20.225 157.102 20.187C157.132 20.149 157.163 20.1313 157.193 20.1313C157.178 20.0249 157.206 19.9565 157.272 19.9261C157.34 19.8957 157.365 19.8425 157.35 19.7666C157.426 19.7362 157.482 19.7108 157.52 19.688C157.558 19.6652 157.613 19.6627 157.689 19.6779C157.917 19.5563 158.128 19.4727 158.325 19.4271C158.523 19.3816 158.725 19.3056 158.938 19.1992C158.923 19.1536 158.908 19.146 158.893 19.1764C158.877 19.2068 158.862 19.2144 158.847 19.1992C159.088 19.032 159.361 18.8978 159.665 18.7914C159.967 18.685 160.232 18.5508 160.46 18.3836C160.491 18.3988 160.509 18.3988 160.516 18.3836C160.524 18.3684 160.534 18.376 160.549 18.4064C160.686 18.3304 160.833 18.2696 160.992 18.224C161.152 18.1784 161.276 18.0949 161.367 17.9733C161.398 17.9733 161.431 17.9606 161.469 17.9403C161.506 17.9176 161.539 17.9074 161.57 17.9074C161.767 17.7706 161.983 17.6516 162.216 17.5452C162.451 17.4388 162.674 17.3173 162.884 17.183C162.854 17.1526 162.824 17.1374 162.793 17.1374C162.778 17.1374 162.763 17.1425 162.748 17.1476C162.732 17.1552 162.717 17.1602 162.702 17.1602C162.641 17.1298 162.57 17.1197 162.487 17.1273C162.403 17.1349 162.325 17.1374 162.249 17.1374C162.173 17.1222 162.094 17.1045 162.011 17.0817C161.927 17.0589 161.848 17.0336 161.772 17.0032C161.696 16.9728 161.626 16.9627 161.557 16.9703C161.489 16.9779 161.418 16.9677 161.342 16.9373C161.266 16.8765 161.175 16.8385 161.068 16.8233C160.962 16.8082 160.871 16.7854 160.795 16.755C160.688 16.5726 160.549 16.4535 160.374 16.3928C160.2 16.332 160.075 16.2104 159.999 16.0306C159.771 15.9546 159.632 15.8254 159.579 15.6456C159.526 15.4632 159.447 15.291 159.341 15.1238C159.31 15.1238 159.303 15.144 159.318 15.1795C159.333 15.2175 159.326 15.2428 159.295 15.258C159.234 15.1365 159.219 14.9794 159.25 14.7818C159.28 14.5843 159.303 14.4272 159.318 14.3057C159.348 14.2297 159.364 14.1588 159.364 14.0904C159.364 14.022 159.394 13.9587 159.455 13.8979C159.379 13.8219 159.326 13.7763 159.295 13.7611C159.28 13.6851 159.288 13.6319 159.318 13.6015C159.348 13.5711 159.394 13.5331 159.455 13.4875C159.531 13.3812 159.584 13.2469 159.614 13.0798C159.721 13.0038 159.804 12.9101 159.865 12.7961C159.926 12.6821 159.994 12.5808 160.07 12.4896C160.07 12.5048 160.078 12.5124 160.093 12.5124C160.245 12.3908 160.4 12.2616 160.559 12.1274C160.719 11.9906 160.873 11.8538 161.025 11.7196C161.132 11.6892 161.23 11.6284 161.319 11.5372C161.486 11.4157 161.636 11.2839 161.772 11.1396C161.909 10.9952 162.059 10.8787 162.226 10.7875C162.241 10.7571 162.266 10.7394 162.304 10.7318C162.342 10.7242 162.36 10.6912 162.36 10.6305C162.512 10.6001 162.651 10.5317 162.781 10.4253C162.91 10.3189 163.072 10.2429 163.269 10.1973C163.285 10.1973 163.315 10.1593 163.361 10.0834C163.573 10.053 163.781 9.98204 163.984 9.86806C164.189 9.75408 164.397 9.73635 164.607 9.81234C164.622 9.73635 164.624 9.68063 164.617 9.64264C164.609 9.60464 164.607 9.54132 164.607 9.45014C164.637 9.41974 164.668 9.41974 164.698 9.45014C164.759 9.35896 164.83 9.28044 164.913 9.21205C164.997 9.14366 165.06 9.04235 165.106 8.90557C165.167 8.90557 165.204 8.88277 165.22 8.83718C165.235 8.79159 165.265 8.7536 165.311 8.7232L165.263 8.77386ZM157.32 20.5062C157.335 20.4606 157.327 20.4378 157.297 20.4378C157.266 20.4378 157.251 20.453 157.251 20.4834C157.266 20.4986 157.289 20.5062 157.32 20.5062ZM159.045 19.1232C158.984 19.1232 158.953 19.1536 158.953 19.2144C159.014 19.2119 159.045 19.1815 159.045 19.1232Z" fill="white"/>
</g>
<defs>
<clipPath id="clip0_48_34">
<rect width="168.599" height="26" fill="white"/>
</clipPath>
</defs>
</svg>
