<?xml version="1.0" encoding="utf-8"?>
<!-- Generator: Adobe Illustrator 24.1.1, SVG Export Plug-In . SVG Version: 6.00 Build 0)  -->
<svg version="1.1" id="Capa_1" xmlns="http://www.w3.org/2000/svg" xmlns:xlink="http://www.w3.org/1999/xlink" x="0px" y="0px"
	 viewBox="0 0 631.41 135.6" style="enable-background:new 0 0 631.41 135.6;" xml:space="preserve">
<style type="text/css">
	.st0{fill:#BE1E2D;}
	.st1{fill:#22B573;}
	.st2{fill:#808080;}
	.st3{fill:#254083;}
</style>
<g>
	<path class="st1" d="M253.43,71.37c1.93,4.65,5.81,6.99,10.69,7.21c4.7,0.21,8.51-1.86,10.94-6c2.47-4.21,1.95-8.44,0.09-12.8
		c-6.26-14.68-12.4-29.42-18.55-44.15c-1.86-4.46-0.19-8.86,3.89-10.55c3.99-1.65,8.13,0.22,10.09,4.57
		c0.95,2.11,1.86,4.24,2.86,6.51c2.5-1.02,4.72-2.01,6.99-2.84c5.65-2.04,10.74,1.74,10.42,7.7c-0.04,0.75-0.11,1.49-0.17,2.38
		c1.09,0.06,2.13,0.32,3.06,0.1c0.67-0.16,1.62-0.88,1.72-1.48c1.25-7.02-4.41-13.88-11.56-13.78c-2.69,0.04-5.37,0.88-8.24,1.39
		c-0.4-0.89-0.82-1.98-1.36-3.01c-2-3.88-5.16-6.08-9.53-6.53c-5.08-0.52-9.08,1.36-11.77,5.62c-2.54,4.03-2.2,8.25-0.38,12.55
		c6.25,14.78,12.44,29.58,18.62,44.39c1.95,4.67,0.34,9-3.86,10.75c-4.04,1.68-8.19-0.29-10.17-4.83c-0.9-2.06-1.79-4.12-2.72-6.27
		c-2.53,1.05-4.85,2.04-7.19,2.96c-2.76,1.09-5.29,0.57-7.57-1.25c-2.58-2.06-3.13-4.86-2.68-8.11c-4.33-0.46-5.05-0.02-4.84,2.75
		c0.64,8.61,8.9,14.05,16.84,10.82C251.65,68.41,252.46,69.03,253.43,71.37z"/>
	<path class="st1" d="M294.92,50.26c2.35-1.5,4.92-3.08,6.49-5.28c2.96-4.13,2.27-10.35-0.88-14.14c-3.44-4.14-8.98-5.53-14.41-3.38
		c-5.54,2.19-10.97,4.68-16.51,6.87c-1.73,0.68-1.65,1.6-1.04,2.89c0.32,0.67,0.69,1.32,1.11,2.13c6.13-2.56,12.08-5.29,18.23-7.47
		c1.99-0.71,4.68-0.49,6.71,0.24c2.79,1.01,4.19,3.69,4.08,6.68c-0.11,3.04-1.61,5.46-4.49,6.78c-2.34,1.07-4.71,2.05-7.19,3.12
		c0.93,2.21,1.89,4.1,2.5,6.09c0.5,1.64,1.04,3.47,0.77,5.09c-0.8,4.84-4.21,6.73-10.38,6.1c-0.66,2.8-0.95,5.4,1.03,8.01
		c1.87,2.46,3.13,5.37,4.86,7.95c0.61,0.91,1.08,1.84,1.42,2.78c-3.37-1.62-7.23-2.45-11.61-2.45c-4.96,0-9.51,1.03-13.66,3.1
		s-7.45,5.15-9.91,9.24c-2.45,4.09-3.68,8.86-3.68,14.31c0,7.66,2.36,13.99,7.08,18.99c4.72,5.01,11.73,7.51,21.02,7.51
		c13.16,0,21.67-6,25.53-18.01l-10.18-4.85c-0.92,4.19-2.68,7.46-5.28,9.81s-5.64,3.53-9.11,3.53c-4.24,0-7.73-1.55-10.46-4.66
		c-2.74-3.11-4.11-7.18-4.11-12.21c0-4.81,1.29-8.93,3.88-12.38c2.59-3.44,6.41-5.17,11.47-5.17c6.12,0,10.42,3.27,12.9,9.81h8.73
		V83.08h-8.42c-0.41-1.06-0.9-2.11-1.4-3.12c-1.46-2.99-3.19-5.85-4.85-8.84c0.57-0.31,0.83-0.52,1.14-0.62
		c7.41-2.25,10.87-10.56,7.48-17.55C293.12,51.59,293.68,51.06,294.92,50.26z"/>
	<path class="st1" d="M239.88,51.6c6.58-2.2,12.9-5.16,19.63-7.91c-0.68-1.56-1.26-2.88-1.89-4.31c-5.67,2.38-11.04,4.75-16.51,6.86
		c-1.8,0.7-3.93,1.22-5.78,0.95c-3.42-0.49-5.73-3.37-6.03-6.56c-0.31-3.35,1.3-6.26,4.47-7.77c2.31-1.1,4.7-2.04,7.12-3.08
		c-0.93-2.27-1.75-4.29-2.58-6.3c-2.67-6.44,1.61-12.03,9.11-11.11c0.31-1.39,0.6-2.73,0.93-4.25c-4.04-1.02-7.61-0.52-10.68,1.91
		c-6.02,4.76-5.74,10.84-2.95,17.3c-1.19,0.53-2.1,0.92-3.01,1.34c-5.77,2.71-8.52,9.21-6.44,15.24
		C227.3,49.79,233.91,53.6,239.88,51.6z"/>
	<path class="st1" d="M38.17,122.37c-2.6,2.35-5.64,3.53-9.11,3.53c-4.24,0-7.73-1.55-10.46-4.66c-2.74-3.11-4.11-7.18-4.11-12.21
		c0-4.81,1.29-8.93,3.88-12.38c2.59-3.44,6.41-5.17,11.47-5.17c6.12,0,10.42,3.27,12.9,9.81h8.73V83.08h-8.73v4.01
		c-4.16-3.22-9.33-4.83-15.5-4.83c-4.96,0-9.51,1.03-13.66,3.1s-7.45,5.15-9.91,9.24C1.23,98.7,0,103.47,0,108.92
		c0,7.66,2.36,13.99,7.08,18.99c4.72,5.01,11.73,7.51,21.02,7.51c13.16,0,21.67-6,25.53-18.01l-10.18-4.85
		C42.53,116.75,40.77,120.02,38.17,122.37z"/>
	<polygon class="st1" points="75.6,83.08 58.47,83.08 58.47,91.37 64.12,91.37 64.12,126.5 58.47,126.5 58.47,134.79 80.77,134.79 
		80.77,126.5 75.6,126.5 	"/>
	<path class="st1" d="M104.44,97.91c-5.3,0-9.78,1.68-13.44,5.04c-3.66,3.36-5.48,7.96-5.48,13.81c0,5.85,1.83,10.45,5.48,13.81
		c3.65,3.36,8.13,5.04,13.44,5.04c5.4,0,9.91-1.7,13.51-5.09c3.6-3.39,5.41-7.98,5.41-13.75c0-5.85-1.82-10.45-5.46-13.81
		C114.26,99.59,109.77,97.91,104.44,97.91z M109.59,124.23c-1.33,1.64-3.05,2.45-5.19,2.45c-2.38,0-4.16-0.91-5.33-2.73
		c-1.18-1.82-1.77-4.13-1.77-6.93c0-6.84,2.37-10.26,7.1-10.26c2.21,0,3.95,0.86,5.24,2.58c1.29,1.72,1.93,4.12,1.93,7.19
		C111.58,120.03,110.92,122.59,109.59,124.23z"/>
	<polygon class="st1" points="149.83,107.1 154.55,107.1 147.94,123.47 142.3,107.1 146.78,107.1 146.78,98.81 124.96,98.81 
		124.96,107.1 130.16,107.1 142.32,135.31 152.09,135.31 163.76,107.1 168.89,107.1 168.89,98.81 149.83,98.81 	"/>
	<path class="st1" d="M206.17,108.81c-1.17-3.1-3.25-5.69-6.24-7.77c-3-2.08-6.55-3.12-10.67-3.12c-5.67,0-10.35,1.86-14.01,5.58
		c-3.67,3.72-5.5,8.35-5.5,13.9c0,5.45,1.78,9.85,5.33,13.19c3.56,3.35,8.5,5.02,14.85,5.02c7.95,0,13.8-2.94,17.54-8.81l-8.92-2.86
		c-2.8,2.82-5.58,4.24-8.33,4.24c-2.11,0-4.11-0.68-6-2.04c-1.9-1.36-2.93-3.68-3.1-6.95h26.8
		C207.92,115.36,207.34,111.9,206.17,108.81z M181.31,112.78c0.69-4.83,3.15-7.25,7.36-7.25c2.25,0,4.03,0.71,5.34,2.12
		c1.3,1.41,2.09,3.12,2.36,5.13H181.31z"/>
	<path class="st1" d="M234.1,101.13c-2.29,1.92-3.76,4.19-4.4,6.82v-9.14h-16.76v8.29h6.24v19.4h-6.65v8.29h25.31v-8.29h-7.17v-4.42
		c0-2.97,0.59-5.55,1.78-7.73c1.19-2.18,2.7-3.59,4.53-4.24c1.83-0.64,4.2-0.97,7.1-0.97V98.29c-0.72-0.02-1.34-0.04-1.86-0.04
		C239.1,98.25,236.4,99.21,234.1,101.13z"/>
	<path class="st1" d="M325.85,97.91c-5.3,0-9.78,1.68-13.44,5.04c-3.66,3.36-5.48,7.96-5.48,13.81c0,5.85,1.83,10.45,5.48,13.81
		c3.65,3.36,8.13,5.04,13.44,5.04c5.4,0,9.91-1.7,13.51-5.09c3.6-3.39,5.41-7.98,5.41-13.75c0-5.85-1.82-10.45-5.46-13.81
		C335.67,99.59,331.18,97.91,325.85,97.91z M331,124.23c-1.33,1.64-3.05,2.45-5.19,2.45c-2.38,0-4.16-0.91-5.33-2.73
		c-1.18-1.82-1.77-4.13-1.77-6.93c0-6.84,2.37-10.26,7.1-10.26c2.21,0,3.95,0.86,5.24,2.58c1.29,1.72,1.93,4.12,1.93,7.19
		C332.99,120.03,332.33,122.59,331,124.23z"/>
	<polygon class="st1" points="367.59,83.08 350.46,83.08 350.46,91.37 356.11,91.37 356.11,126.5 350.46,126.5 350.46,134.79 
		372.76,134.79 372.76,126.5 367.59,126.5 	"/>
	<polygon class="st1" points="394.54,83.08 377.41,83.08 377.41,91.37 383.06,91.37 383.06,126.5 377.41,126.5 377.41,134.79 
		399.71,134.79 399.71,126.5 394.54,126.5 	"/>
	<path class="st1" d="M440.89,108.81c-1.17-3.1-3.25-5.69-6.24-7.77c-3-2.08-6.55-3.12-10.67-3.12c-5.67,0-10.35,1.86-14.01,5.58
		c-3.67,3.72-5.5,8.35-5.5,13.9c0,5.45,1.78,9.85,5.33,13.19c3.56,3.35,8.5,5.02,14.85,5.02c7.95,0,13.8-2.94,17.54-8.81l-8.92-2.86
		c-2.8,2.82-5.58,4.24-8.33,4.24c-2.11,0-4.11-0.68-6-2.04c-1.9-1.36-2.93-3.68-3.1-6.95h26.8
		C442.64,115.36,442.05,111.9,440.89,108.81z M416.02,112.78c0.69-4.83,3.15-7.25,7.36-7.25c2.25,0,4.03,0.71,5.34,2.12
		c1.3,1.41,2.09,3.12,2.36,5.13H416.02z"/>
	<path class="st1" d="M473.3,124.99c-1.64,1.05-3.37,1.58-5.2,1.58c-2.3,0-4.25-0.81-5.84-2.43c-1.59-1.62-2.38-4.13-2.38-7.53
		c0-2.8,0.75-5.04,2.25-6.71c1.5-1.67,3.51-2.51,6.04-2.51c3.96,0,6.88,2.01,8.73,6.02h8.18V98.81h-7.84v2.97
		c-3.37-2.35-7-3.53-10.89-3.53c-4.86,0-9.11,1.65-12.77,4.96c-3.66,3.31-5.48,7.82-5.48,13.55c0,5.72,1.86,10.3,5.59,13.71
		c3.73,3.42,8.73,5.13,15,5.13c8.33,0,14.15-3.62,17.47-10.87l-8.92-3.92C476.25,122.55,474.94,123.94,473.3,124.99z"/>
	<path class="st1" d="M505.56,84.91l-11.48,8.25v5.65h-4.57v8.29h4.57v18.83c0,6.25,3.15,9.38,9.44,9.38c2.82,0,5.71-0.61,8.66-1.82
		v-7.95c-1.34,0.5-2.54,0.74-3.6,0.74c-1.29,0-2.11-0.24-2.47-0.73c-0.36-0.48-0.54-1.43-0.54-2.85v-15.6h6.62v-8.29h-6.62V84.91z"
		/>
	<path class="st1" d="M528.79,94.76c1.73,0,3.22-0.61,4.44-1.83s1.84-2.7,1.84-4.43s-0.61-3.21-1.82-4.45
		c-1.21-1.24-2.7-1.85-4.46-1.85c-1.73,0-3.21,0.62-4.44,1.85c-1.23,1.23-1.84,2.72-1.84,4.45c0,1.71,0.62,3.17,1.86,4.41
		C525.61,94.14,527.08,94.76,528.79,94.76z"/>
	<polygon class="st1" points="534.41,98.81 517.46,98.81 517.46,107.1 522.92,107.1 522.92,126.5 517.46,126.5 517.46,134.79 
		539.76,134.79 539.76,126.5 534.41,126.5 	"/>
	<path class="st1" d="M563.02,97.91c-5.3,0-9.78,1.68-13.44,5.04c-3.66,3.36-5.48,7.96-5.48,13.81c0,5.85,1.83,10.45,5.48,13.81
		c3.65,3.36,8.13,5.04,13.44,5.04c5.4,0,9.91-1.7,13.51-5.09c3.6-3.39,5.41-7.98,5.41-13.75c0-5.85-1.82-10.45-5.46-13.81
		C572.84,99.59,568.35,97.91,563.02,97.91z M568.17,124.23c-1.33,1.64-3.05,2.45-5.19,2.45c-2.38,0-4.16-0.91-5.33-2.73
		c-1.18-1.82-1.77-4.13-1.77-6.93c0-6.84,2.37-10.26,7.1-10.26c2.21,0,3.95,0.86,5.24,2.58c1.29,1.72,1.93,4.12,1.93,7.19
		C570.16,120.03,569.5,122.59,568.17,124.23z"/>
	<path class="st1" d="M625.99,126.5v-14.35c0-9.27-3.63-13.9-10.89-13.9c-3.57,0-7.09,1.3-10.56,3.9v-3.35h-16.99v8.29h5.5v19.4
		h-5.5v8.29h22.52v-8.29h-5.54v-16.24c2.23-1.56,4.41-2.34,6.54-2.34c1.21,0,2.09,0.36,2.62,1.08c0.53,0.72,0.8,2.06,0.8,4.01v21.78
		h16.91v-8.29H625.99z"/>
</g>
</svg>
