<?xml version="1.0" encoding="UTF-8"?>
<svg width="123px" height="83px" viewBox="0 0 123 83" version="1.1" xmlns="http://www.w3.org/2000/svg" xmlns:xlink="http://www.w3.org/1999/xlink">
    <title>ica_login</title>
    <g id="ica_login" stroke="none" stroke-width="1" fill="none" fill-rule="evenodd">
        <g id="Group">
            <g id="ICA" fill="#2E5DF4" fill-rule="nonzero">
                <path d="M1.3591992,69.3191593 C0.453066401,69.3191593 0,68.8984548 0,68.0570458 L0,1.3591992 C0,0.517790172 0.453066401,0.0970856573 1.3591992,0.0970856573 L10.193994,0.0970856573 C11.1001268,0.0970856573 11.5531932,0.517790172 11.5531932,1.3591992 L11.5531932,68.0570458 C11.5531932,68.8984548 11.1001268,69.3191593 10.193994,69.3191593 L1.3591992,69.3191593 Z" id="Path"></path>
                <path d="M58.8339083,0.291256972 C59.7400411,0.420704515 60.1931075,0.906132801 60.1931075,1.74754183 L60.1931075,10.8735936 C60.1931075,11.2619362 60.06366,11.5693742 59.8047649,11.7959074 C59.5458698,12.0224406 59.2546128,12.0709834 58.930994,11.9415358 C58.2190325,11.8120883 57.4747091,11.7150026 56.6980239,11.6502789 C55.9213386,11.5855551 55.1446533,11.5531932 54.3679681,11.5531932 C51.1965033,11.5531932 48.2192098,12.1518881 45.4360876,13.3492779 C42.6529654,14.5466677 40.2096431,16.1971238 38.1061205,18.3006464 C36.0025979,20.404169 34.3521417,22.8636723 33.154752,25.6791564 C31.9573622,28.4946404 31.3586673,31.4881148 31.3586673,34.6595797 C31.3586673,37.8310445 31.9573622,40.8245189 33.154752,43.640003 C34.3521417,46.455487 36.0025979,48.8988094 38.1061205,50.9699701 C40.2096431,53.0411308 42.6529654,54.6915869 45.4360876,55.9213386 C48.2192098,57.1510903 51.1965033,57.7659661 54.3679681,57.7659661 C55.7918911,57.7659661 57.3128997,57.6041567 58.930994,57.2805378 C59.772403,57.1510903 60.1931075,57.507071 60.1931075,58.34848 L60.1931075,67.4745318 C60.1931075,67.7981507 60.06366,68.1217695 59.8047649,68.4453884 C59.5458698,68.7690072 59.2222509,68.9631786 58.8339083,69.0279023 C58.1219468,69.0926261 57.3938044,69.1573499 56.649481,69.2220736 C55.9051577,69.2867974 55.1446533,69.3191593 54.3679681,69.3191593 C49.578409,69.3191593 45.0801069,68.4130265 40.8730617,66.6007609 C36.6660166,64.7884953 33.0091235,62.312811 29.9023824,59.1737081 C26.7956414,56.0346052 24.3361381,52.3615312 22.5238725,48.154486 C20.7116069,43.9474409 19.8054741,39.4491387 19.8054741,34.6595797 C19.8054741,29.8700206 20.7116069,25.3717184 22.5238725,21.1646733 C24.3361381,16.9576281 26.7956414,13.2845541 29.9023824,10.1454512 C33.0091235,7.00634827 36.6660166,4.53066401 40.8730617,2.7183984 C45.0801069,0.906132801 49.578409,0 54.3679681,0 C55.8566148,0 57.3452616,0.0970856573 58.8339083,0.291256972 Z" id="Path"></path>
                <path d="M80.1927529,69.3191593 L71.2608725,69.3191593 C70.8725298,69.3191593 70.548911,69.1735308 70.2900159,68.8822738 C70.0311208,68.5910169 69.9016732,68.283579 69.9016732,67.9599601 L69.9016732,20.1938167 C69.9016732,17.4106945 70.4356444,14.7893818 71.5035866,12.3298785 C72.5715288,9.87037516 74.0278137,7.7344907 75.8724412,5.92222509 C77.7170687,4.10995949 79.8691341,2.66985558 82.3286374,1.60191335 C84.7881407,0.533971115 87.4094534,0 90.1925756,0 C92.9756978,0 95.5970105,0.533971115 98.0565139,1.60191335 C100.516017,2.66985558 102.651902,4.10995949 104.464167,5.92222509 C106.276433,7.7344907 107.716537,9.87037516 108.784479,12.3298785 C109.852421,14.7893818 110.386392,17.4106945 110.386392,20.1938167 L110.386392,67.9599601 C110.386392,68.283579 110.256945,68.5910169 109.99805,68.8822738 C109.739155,69.1735308 109.415536,69.3191593 109.027193,69.3191593 L100.095313,69.3191593 C99.7716938,69.3191593 99.4804368,69.1735308 99.2215418,68.8822738 C98.9626467,68.5910169 98.8331991,68.283579 98.8331991,67.9599601 L98.8331991,46.2127729 L81.4548665,46.2127729 L81.4548665,67.9599601 C81.4548665,68.283579 81.3254189,68.5910169 81.0665238,68.8822738 C80.8076288,69.1735308 80.5163718,69.3191593 80.1927529,69.3191593 Z M98.8331991,34.6595797 L98.8331991,20.1938167 C98.8331991,17.7990372 97.9917901,15.7602384 96.308972,14.0774203 C94.626154,12.3946022 92.5873552,11.5531932 90.1925756,11.5531932 C87.7330723,11.5531932 85.6619116,12.3946022 83.9790936,14.0774203 C82.2962755,15.7602384 81.4548665,17.7990372 81.4548665,20.1938167 L81.4548665,34.6595797 L98.8331991,34.6595797 Z" id="Shape"></path>
            </g>
            <rect id="Rectangle" fill="#FFB75D" x="81" y="13.3191593" width="42" height="13"></rect>
            <g id="Industry-Car-Associa" transform="translate(0.000000, 75.769659)" fill="#A1A1A1" fill-rule="nonzero">
                <path d="M0.147,7.5495 C0.049,7.5495 0,7.504 0,7.413 L0,0.1995 C0,0.1085 0.049,0.063 0.147,0.063 L1.1025,0.063 C1.2005,0.063 1.2495,0.1085 1.2495,0.1995 L1.2495,7.413 C1.2495,7.504 1.2005,7.5495 1.1025,7.5495 L0.147,7.5495 Z" id="Path"></path>
                <path d="M2.5515,0.063 L3.5175,0.063 C3.6015,0.063 3.682,0.0945 3.759,0.1575 L5.5335,2.0055 L5.5335,0.1995 C5.5335,0.1085 5.579,0.063 5.67,0.063 L6.636,0.063 C6.734,0.063 6.783,0.1085 6.783,0.1995 L6.783,7.413 C6.783,7.504 6.734,7.5495 6.636,7.5495 L5.67,7.5495 C5.579,7.5495 5.5335,7.504 5.5335,7.413 L5.5335,3.8115 L3.654,1.8585 L3.654,7.413 C3.654,7.504 3.6085,7.5495 3.5175,7.5495 L2.5515,7.5495 C2.4535,7.5495 2.4045,7.504 2.4045,7.413 L2.4045,0.1995 C2.4045,0.1085 2.4535,0.063 2.5515,0.063 Z" id="Path"></path>
                <path d="M9.1875,0.0525 C9.7055,0.0525 10.192,0.1505 10.647,0.3465 C11.102,0.5425 11.49925,0.81025 11.83875,1.14975 C12.17825,1.48925 12.446,1.8865 12.642,2.3415 C12.838,2.7965 12.936,3.283 12.936,3.801 C12.936,4.319 12.838,4.8055 12.642,5.2605 C12.446,5.7155 12.17825,6.11275 11.83875,6.45225 C11.49925,6.79175 11.102,7.0595 10.647,7.2555 C10.192,7.4515 9.7055,7.5495 9.1875,7.5495 L8.085,7.5495 C8.043,7.5495 8.008,7.53375 7.98,7.50225 C7.952,7.47075 7.938,7.4375 7.938,7.4025 L7.938,0.1995 C7.938,0.1015 7.987,0.0525 8.085,0.0525 L9.1875,0.0525 Z M9.1875,6.3 C9.5305,6.3 9.85425,6.2335 10.15875,6.1005 C10.46325,5.9675 10.72925,5.789 10.95675,5.565 C11.18425,5.341 11.36275,5.07675 11.49225,4.77225 C11.62175,4.46775 11.6865,4.144 11.6865,3.801 C11.6865,3.458 11.62175,3.13425 11.49225,2.82975 C11.36275,2.52525 11.18425,2.25925 10.95675,2.03175 C10.72925,1.80425 10.46325,1.62575 10.15875,1.49625 C9.85425,1.36675 9.5305,1.302 9.1875,1.302 L9.1875,6.3 Z" id="Shape"></path>
                <path d="M14.9415,0.0525 C15.0325,0.0525 15.078,0.098 15.078,0.189 L15.078,5.355 C15.078,5.621 15.169,5.845 15.351,6.027 C15.533,6.209 15.757,6.3 16.023,6.3 C16.282,6.3 16.5025,6.209 16.6845,6.027 C16.8665,5.845 16.9575,5.621 16.9575,5.355 L16.9575,0.189 C16.9575,0.098 17.0065,0.0525 17.1045,0.0525 L18.06,0.0525 C18.158,0.0525 18.207,0.098 18.207,0.189 L18.207,5.355 C18.207,5.656 18.14925,5.9395 18.03375,6.2055 C17.91825,6.4715 17.7625,6.70425 17.5665,6.90375 C17.3705,7.10325 17.1395,7.26075 16.8735,7.37625 C16.6075,7.49175 16.324,7.5495 16.023,7.5495 C15.722,7.5495 15.4385,7.49175 15.1725,7.37625 C14.9065,7.26075 14.67375,7.10325 14.47425,6.90375 C14.27475,6.70425 14.11725,6.4715 14.00175,6.2055 C13.88625,5.9395 13.8285,5.656 13.8285,5.355 L13.8285,0.189 C13.8285,0.154 13.84425,0.1225 13.87575,0.0945 C13.90725,0.0665 13.9405,0.0525 13.9755,0.0525 L14.9415,0.0525 Z" id="Path"></path>
                <path d="M19.0365,7.5495 C18.9945,7.5565 18.9595,7.54425 18.9315,7.51275 C18.9035,7.48125 18.8895,7.448 18.8895,7.413 L18.8895,6.447 C18.8895,6.363 18.9385,6.314 19.0365,6.3 C19.1905,6.279 19.334,6.2335 19.467,6.1635 C19.6,6.0935 19.71725,6.00425 19.81875,5.89575 C19.92025,5.78725 19.999,5.66125 20.055,5.51775 C20.111,5.37425 20.139,5.222 20.139,5.061 L20.139,2.562 C20.139,2.226 20.20025,1.911 20.32275,1.617 C20.44525,1.323 20.6115,1.064 20.8215,0.84 C21.0315,0.616 21.28,0.43575 21.567,0.29925 C21.854,0.16275 22.162,0.084 22.491,0.063 C22.589,0.063 22.638,0.1085 22.638,0.1995 L22.638,1.1655 C22.638,1.2005 22.624,1.23375 22.596,1.26525 C22.568,1.29675 22.533,1.3125 22.491,1.3125 C22.176,1.3475 21.9135,1.48225 21.7035,1.71675 C21.4935,1.95125 21.3885,2.233 21.3885,2.562 L21.3885,5.061 C21.3885,5.39 21.32725,5.7015 21.20475,5.9955 C21.08225,6.2895 20.916,6.5485 20.706,6.7725 C20.496,6.9965 20.2475,7.17675 19.9605,7.31325 C19.6735,7.44975 19.3655,7.5285 19.0365,7.5495 Z" id="Path"></path>
                <path d="M23.247,0.0525 L26.712,0.0525 C26.81,0.0525 26.859,0.098 26.859,0.189 L26.859,1.155 C26.859,1.253 26.81,1.302 26.712,1.302 L25.6095,1.302 L25.6095,7.4025 C25.6095,7.4375 25.5955,7.47075 25.5675,7.50225 C25.5395,7.53375 25.5045,7.5495 25.4625,7.5495 L24.4965,7.5495 C24.4615,7.5495 24.43,7.53375 24.402,7.50225 C24.374,7.47075 24.36,7.4375 24.36,7.4025 L24.36,1.302 L23.247,1.302 C23.156,1.302 23.1105,1.253 23.1105,1.155 L23.1105,0.189 C23.1105,0.098 23.156,0.0525 23.247,0.0525 Z" id="Path"></path>
                <path d="M29.883,0.063 C30.226,0.063 30.54975,0.12775 30.85425,0.25725 C31.15875,0.38675 31.423,0.56525 31.647,0.79275 C31.871,1.02025 32.0495,1.28625 32.1825,1.59075 C32.3155,1.89525 32.382,2.219 32.382,2.562 C32.382,3.031 32.263,3.458 32.025,3.843 C31.787,4.228 31.4755,4.5255 31.0905,4.7355 L32.319,7.4235 C32.354,7.5075 32.326,7.5495 32.235,7.5495 L31.143,7.5495 C31.108,7.5495 31.0695,7.53725 31.0275,7.51275 C30.9855,7.48825 30.9575,7.4585 30.9435,7.4235 L30.5025,6.447 L29.358,3.9375 C29.323,3.8535 29.351,3.8115 29.442,3.8115 L29.883,3.8115 C30.051,3.8115 30.212,3.77825 30.366,3.71175 C30.52,3.64525 30.653,3.556 30.765,3.444 C30.877,3.332 30.96625,3.199 31.03275,3.045 C31.09925,2.891 31.1325,2.73 31.1325,2.562 C31.1325,2.387 31.09925,2.22425 31.03275,2.07375 C30.96625,1.92325 30.877,1.792 30.765,1.68 C30.653,1.568 30.52,1.47875 30.366,1.41225 C30.212,1.34575 30.051,1.3125 29.883,1.3125 L28.6335,1.3125 L28.6335,7.413 C28.6335,7.448 28.61775,7.4795 28.58625,7.5075 C28.55475,7.5355 28.5215,7.5495 28.4865,7.5495 L27.5205,7.5495 C27.4295,7.5495 27.384,7.504 27.384,7.413 L27.384,0.1995 C27.384,0.1085 27.4295,0.063 27.5205,0.063 L29.883,0.063 Z" id="Path"></path>
                <path d="M36.855,0.189 C36.869,0.154 36.89525,0.12425 36.93375,0.09975 C36.97225,0.07525 37.009,0.063 37.044,0.063 L38.115,0.063 C38.206,0.063 38.234,0.105 38.199,0.189 L36.267,4.809 L36.267,7.413 C36.267,7.504 36.2215,7.5495 36.1305,7.5495 L35.1645,7.5495 C35.0665,7.5495 35.0175,7.504 35.0175,7.413 L35.0175,4.809 L33.0855,0.189 C33.0505,0.105 33.0785,0.063 33.1695,0.063 L34.2405,0.063 C34.3385,0.063 34.405,0.105 34.44,0.189 L35.6475,3.2655 L36.855,0.189 Z" id="Path"></path>
                <path d="M46.116,0.084 C46.214,0.098 46.263,0.1505 46.263,0.2415 L46.263,1.2285 C46.263,1.2705 46.249,1.30375 46.221,1.32825 C46.193,1.35275 46.1615,1.358 46.1265,1.344 C46.0495,1.33 45.969,1.3195 45.885,1.3125 C45.801,1.3055 45.717,1.302 45.633,1.302 C45.29,1.302 44.968,1.36675 44.667,1.49625 C44.366,1.62575 44.10175,1.80425 43.87425,2.03175 C43.64675,2.25925 43.46825,2.52525 43.33875,2.82975 C43.20925,3.13425 43.1445,3.458 43.1445,3.801 C43.1445,4.144 43.20925,4.46775 43.33875,4.77225 C43.46825,5.07675 43.64675,5.341 43.87425,5.565 C44.10175,5.789 44.366,5.9675 44.667,6.1005 C44.968,6.2335 45.29,6.3 45.633,6.3 C45.787,6.3 45.9515,6.2825 46.1265,6.2475 C46.2175,6.2335 46.263,6.272 46.263,6.363 L46.263,7.35 C46.263,7.385 46.249,7.42 46.221,7.455 C46.193,7.49 46.158,7.511 46.116,7.518 C46.039,7.525 45.96025,7.532 45.87975,7.539 C45.79925,7.546 45.717,7.5495 45.633,7.5495 C45.115,7.5495 44.6285,7.4515 44.1735,7.2555 C43.7185,7.0595 43.323,6.79175 42.987,6.45225 C42.651,6.11275 42.385,5.7155 42.189,5.2605 C41.993,4.8055 41.895,4.319 41.895,3.801 C41.895,3.283 41.993,2.7965 42.189,2.3415 C42.385,1.8865 42.651,1.48925 42.987,1.14975 C43.323,0.81025 43.7185,0.5425 44.1735,0.3465 C44.6285,0.1505 45.115,0.0525 45.633,0.0525 C45.794,0.0525 45.955,0.063 46.116,0.084 Z" id="Path"></path>
                <path d="M48.426,7.5495 L47.46,7.5495 C47.418,7.5495 47.383,7.53375 47.355,7.50225 C47.327,7.47075 47.313,7.4375 47.313,7.4025 L47.313,2.2365 C47.313,1.9355 47.37075,1.652 47.48625,1.386 C47.60175,1.12 47.75925,0.889 47.95875,0.693 C48.15825,0.497 48.391,0.34125 48.657,0.22575 C48.923,0.11025 49.2065,0.0525 49.5075,0.0525 C49.8085,0.0525 50.092,0.11025 50.358,0.22575 C50.624,0.34125 50.855,0.497 51.051,0.693 C51.247,0.889 51.40275,1.12 51.51825,1.386 C51.63375,1.652 51.6915,1.9355 51.6915,2.2365 L51.6915,7.4025 C51.6915,7.4375 51.6775,7.47075 51.6495,7.50225 C51.6215,7.53375 51.5865,7.5495 51.5445,7.5495 L50.5785,7.5495 C50.5435,7.5495 50.512,7.53375 50.484,7.50225 C50.456,7.47075 50.442,7.4375 50.442,7.4025 L50.442,5.0505 L48.5625,5.0505 L48.5625,7.4025 C48.5625,7.4375 48.5485,7.47075 48.5205,7.50225 C48.4925,7.53375 48.461,7.5495 48.426,7.5495 Z M50.442,3.801 L50.442,2.2365 C50.442,1.9775 50.351,1.757 50.169,1.575 C49.987,1.393 49.7665,1.302 49.5075,1.302 C49.2415,1.302 49.0175,1.393 48.8355,1.575 C48.6535,1.757 48.5625,1.9775 48.5625,2.2365 L48.5625,3.801 L50.442,3.801 Z" id="Shape"></path>
                <path d="M55.3455,0.063 C55.6885,0.063 56.01225,0.12775 56.31675,0.25725 C56.62125,0.38675 56.8855,0.56525 57.1095,0.79275 C57.3335,1.02025 57.512,1.28625 57.645,1.59075 C57.778,1.89525 57.8445,2.219 57.8445,2.562 C57.8445,3.031 57.7255,3.458 57.4875,3.843 C57.2495,4.228 56.938,4.5255 56.553,4.7355 L57.7815,7.4235 C57.8165,7.5075 57.7885,7.5495 57.6975,7.5495 L56.6055,7.5495 C56.5705,7.5495 56.532,7.53725 56.49,7.51275 C56.448,7.48825 56.42,7.4585 56.406,7.4235 L55.965,6.447 L54.8205,3.9375 C54.7855,3.8535 54.8135,3.8115 54.9045,3.8115 L55.3455,3.8115 C55.5135,3.8115 55.6745,3.77825 55.8285,3.71175 C55.9825,3.64525 56.1155,3.556 56.2275,3.444 C56.3395,3.332 56.42875,3.199 56.49525,3.045 C56.56175,2.891 56.595,2.73 56.595,2.562 C56.595,2.387 56.56175,2.22425 56.49525,2.07375 C56.42875,1.92325 56.3395,1.792 56.2275,1.68 C56.1155,1.568 55.9825,1.47875 55.8285,1.41225 C55.6745,1.34575 55.5135,1.3125 55.3455,1.3125 L54.096,1.3125 L54.096,7.413 C54.096,7.448 54.08025,7.4795 54.04875,7.5075 C54.01725,7.5355 53.984,7.5495 53.949,7.5495 L52.983,7.5495 C52.892,7.5495 52.8465,7.504 52.8465,7.413 L52.8465,0.1995 C52.8465,0.1085 52.892,0.063 52.983,0.063 L55.3455,0.063 Z" id="Path"></path>
                <path d="M63.1575,7.5495 L62.1915,7.5495 C62.1495,7.5495 62.1145,7.53375 62.0865,7.50225 C62.0585,7.47075 62.0445,7.4375 62.0445,7.4025 L62.0445,2.2365 C62.0445,1.9355 62.10225,1.652 62.21775,1.386 C62.33325,1.12 62.49075,0.889 62.69025,0.693 C62.88975,0.497 63.1225,0.34125 63.3885,0.22575 C63.6545,0.11025 63.938,0.0525 64.239,0.0525 C64.54,0.0525 64.8235,0.11025 65.0895,0.22575 C65.3555,0.34125 65.5865,0.497 65.7825,0.693 C65.9785,0.889 66.13425,1.12 66.24975,1.386 C66.36525,1.652 66.423,1.9355 66.423,2.2365 L66.423,7.4025 C66.423,7.4375 66.409,7.47075 66.381,7.50225 C66.353,7.53375 66.318,7.5495 66.276,7.5495 L65.31,7.5495 C65.275,7.5495 65.2435,7.53375 65.2155,7.50225 C65.1875,7.47075 65.1735,7.4375 65.1735,7.4025 L65.1735,5.0505 L63.294,5.0505 L63.294,7.4025 C63.294,7.4375 63.28,7.47075 63.252,7.50225 C63.224,7.53375 63.1925,7.5495 63.1575,7.5495 Z M65.1735,3.801 L65.1735,2.2365 C65.1735,1.9775 65.0825,1.757 64.9005,1.575 C64.7185,1.393 64.498,1.302 64.239,1.302 C63.973,1.302 63.749,1.393 63.567,1.575 C63.385,1.757 63.294,1.9775 63.294,2.2365 L63.294,3.801 L65.1735,3.801 Z" id="Shape"></path>
                <path d="M67.41,7.5495 C67.368,7.5565 67.333,7.54425 67.305,7.51275 C67.277,7.48125 67.263,7.448 67.263,7.413 L67.263,6.447 C67.263,6.363 67.312,6.314 67.41,6.3 C67.564,6.279 67.7075,6.2335 67.8405,6.1635 C67.9735,6.0935 68.09075,6.00425 68.19225,5.89575 C68.29375,5.78725 68.3725,5.66125 68.4285,5.51775 C68.4845,5.37425 68.5125,5.222 68.5125,5.061 L68.5125,2.562 C68.5125,2.226 68.57375,1.911 68.69625,1.617 C68.81875,1.323 68.985,1.064 69.195,0.84 C69.405,0.616 69.6535,0.43575 69.9405,0.29925 C70.2275,0.16275 70.5355,0.084 70.8645,0.063 C70.9625,0.063 71.0115,0.1085 71.0115,0.1995 L71.0115,1.1655 C71.0115,1.2005 70.9975,1.23375 70.9695,1.26525 C70.9415,1.29675 70.9065,1.3125 70.8645,1.3125 C70.5495,1.3475 70.287,1.48225 70.077,1.71675 C69.867,1.95125 69.762,2.233 69.762,2.562 L69.762,5.061 C69.762,5.39 69.70075,5.7015 69.57825,5.9955 C69.45575,6.2895 69.2895,6.5485 69.0795,6.7725 C68.8695,6.9965 68.621,7.17675 68.334,7.31325 C68.047,7.44975 67.739,7.5285 67.41,7.5495 Z" id="Path"></path>
                <path d="M70.8435,7.5495 C70.8015,7.5565 70.7665,7.54425 70.7385,7.51275 C70.7105,7.48125 70.6965,7.448 70.6965,7.413 L70.6965,6.447 C70.6965,6.363 70.7455,6.314 70.8435,6.3 C70.9975,6.279 71.141,6.2335 71.274,6.1635 C71.407,6.0935 71.52425,6.00425 71.62575,5.89575 C71.72725,5.78725 71.806,5.66125 71.862,5.51775 C71.918,5.37425 71.946,5.222 71.946,5.061 L71.946,2.562 C71.946,2.226 72.00725,1.911 72.12975,1.617 C72.25225,1.323 72.4185,1.064 72.6285,0.84 C72.8385,0.616 73.087,0.43575 73.374,0.29925 C73.661,0.16275 73.969,0.084 74.298,0.063 C74.396,0.063 74.445,0.1085 74.445,0.1995 L74.445,1.1655 C74.445,1.2005 74.431,1.23375 74.403,1.26525 C74.375,1.29675 74.34,1.3125 74.298,1.3125 C73.983,1.3475 73.7205,1.48225 73.5105,1.71675 C73.3005,1.95125 73.1955,2.233 73.1955,2.562 L73.1955,5.061 C73.1955,5.39 73.13425,5.7015 73.01175,5.9955 C72.88925,6.2895 72.723,6.5485 72.513,6.7725 C72.303,6.9965 72.0545,7.17675 71.7675,7.31325 C71.4805,7.44975 71.1725,7.5285 70.8435,7.5495 Z" id="Path"></path>
                <path d="M77.574,0 C77.917,0 78.24075,0.0665 78.54525,0.1995 C78.84975,0.3325 79.114,0.5145 79.338,0.7455 C79.562,0.9765 79.7405,1.24775 79.8735,1.55925 C80.0065,1.87075 80.073,2.2015 80.073,2.5515 C80.073,2.9015 80.0065,3.23225 79.8735,3.54375 C79.7405,3.85525 79.562,4.1265 79.338,4.3575 C79.114,4.5885 78.84975,4.7705 78.54525,4.9035 C78.24075,5.0365 77.917,5.103 77.574,5.103 C77.231,5.103 76.90725,5.0365 76.60275,4.9035 C76.29825,4.7705 76.034,4.5885 75.81,4.3575 C75.586,4.1265 75.4075,3.85525 75.2745,3.54375 C75.1415,3.23225 75.075,2.9015 75.075,2.5515 C75.075,2.2015 75.1415,1.87075 75.2745,1.55925 C75.4075,1.24775 75.586,0.9765 75.81,0.7455 C76.034,0.5145 76.29825,0.3325 76.60275,0.1995 C76.90725,0.0665 77.231,0 77.574,0 Z M77.574,3.801 C77.749,3.801 77.91175,3.76775 78.06225,3.70125 C78.21275,3.63475 78.344,3.5455 78.456,3.4335 C78.568,3.3215 78.65725,3.19025 78.72375,3.03975 C78.79025,2.88925 78.8235,2.7265 78.8235,2.5515 C78.8235,2.3765 78.79025,2.21375 78.72375,2.06325 C78.65725,1.91275 78.568,1.7815 78.456,1.6695 C78.344,1.5575 78.21275,1.46825 78.06225,1.40175 C77.91175,1.33525 77.749,1.302 77.574,1.302 C77.399,1.302 77.23625,1.33525 77.08575,1.40175 C76.93525,1.46825 76.804,1.5575 76.692,1.6695 C76.58,1.7815 76.49075,1.91275 76.42425,2.06325 C76.35775,2.21375 76.3245,2.3765 76.3245,2.5515 C76.3245,2.7265 76.35775,2.88925 76.42425,3.03975 C76.49075,3.19025 76.58,3.3215 76.692,3.4335 C76.804,3.5455 76.93525,3.63475 77.08575,3.70125 C77.23625,3.76775 77.399,3.801 77.574,3.801 Z M79.548,7.5495 L75.6,7.5495 C75.502,7.5495 75.453,7.5005 75.453,7.4025 L75.453,6.447 C75.453,6.349 75.502,6.3 75.6,6.3 L79.548,6.3 C79.646,6.3 79.695,6.349 79.695,6.447 L79.695,7.4025 C79.695,7.5005 79.646,7.5495 79.548,7.5495 Z" id="Shape"></path>
                <path d="M84.9765,0.084 C85.0745,0.098 85.1235,0.1505 85.1235,0.2415 L85.1235,1.2285 C85.1235,1.2705 85.1095,1.30375 85.0815,1.32825 C85.0535,1.35275 85.022,1.358 84.987,1.344 C84.91,1.33 84.8295,1.3195 84.7455,1.3125 C84.6615,1.3055 84.5775,1.302 84.4935,1.302 C84.1505,1.302 83.8285,1.36675 83.5275,1.49625 C83.2265,1.62575 82.96225,1.80425 82.73475,2.03175 C82.50725,2.25925 82.32875,2.52525 82.19925,2.82975 C82.06975,3.13425 82.005,3.458 82.005,3.801 C82.005,4.144 82.06975,4.46775 82.19925,4.77225 C82.32875,5.07675 82.50725,5.341 82.73475,5.565 C82.96225,5.789 83.2265,5.9675 83.5275,6.1005 C83.8285,6.2335 84.1505,6.3 84.4935,6.3 C84.6475,6.3 84.812,6.2825 84.987,6.2475 C85.078,6.2335 85.1235,6.272 85.1235,6.363 L85.1235,7.35 C85.1235,7.385 85.1095,7.42 85.0815,7.455 C85.0535,7.49 85.0185,7.511 84.9765,7.518 C84.8995,7.525 84.82075,7.532 84.74025,7.539 C84.65975,7.546 84.5775,7.5495 84.4935,7.5495 C83.9755,7.5495 83.489,7.4515 83.034,7.2555 C82.579,7.0595 82.1835,6.79175 81.8475,6.45225 C81.5115,6.11275 81.2455,5.7155 81.0495,5.2605 C80.8535,4.8055 80.7555,4.319 80.7555,3.801 C80.7555,3.283 80.8535,2.7965 81.0495,2.3415 C81.2455,1.8865 81.5115,1.48925 81.8475,1.14975 C82.1835,0.81025 82.579,0.5425 83.034,0.3465 C83.489,0.1505 83.9755,0.0525 84.4935,0.0525 C84.6545,0.0525 84.8155,0.063 84.9765,0.084 Z" id="Path"></path>
                <path d="M86.3205,7.5495 C86.2225,7.5495 86.1735,7.504 86.1735,7.413 L86.1735,0.1995 C86.1735,0.1085 86.2225,0.063 86.3205,0.063 L87.276,0.063 C87.374,0.063 87.423,0.1085 87.423,0.1995 L87.423,7.413 C87.423,7.504 87.374,7.5495 87.276,7.5495 L86.3205,7.5495 Z" id="Path"></path>
                <path d="M89.691,7.5495 L88.725,7.5495 C88.683,7.5495 88.648,7.53375 88.62,7.50225 C88.592,7.47075 88.578,7.4375 88.578,7.4025 L88.578,2.2365 C88.578,1.9355 88.63575,1.652 88.75125,1.386 C88.86675,1.12 89.02425,0.889 89.22375,0.693 C89.42325,0.497 89.656,0.34125 89.922,0.22575 C90.188,0.11025 90.4715,0.0525 90.7725,0.0525 C91.0735,0.0525 91.357,0.11025 91.623,0.22575 C91.889,0.34125 92.12,0.497 92.316,0.693 C92.512,0.889 92.66775,1.12 92.78325,1.386 C92.89875,1.652 92.9565,1.9355 92.9565,2.2365 L92.9565,7.4025 C92.9565,7.4375 92.9425,7.47075 92.9145,7.50225 C92.8865,7.53375 92.8515,7.5495 92.8095,7.5495 L91.8435,7.5495 C91.8085,7.5495 91.777,7.53375 91.749,7.50225 C91.721,7.47075 91.707,7.4375 91.707,7.4025 L91.707,5.0505 L89.8275,5.0505 L89.8275,7.4025 C89.8275,7.4375 89.8135,7.47075 89.7855,7.50225 C89.7575,7.53375 89.726,7.5495 89.691,7.5495 Z M91.707,3.801 L91.707,2.2365 C91.707,1.9775 91.616,1.757 91.434,1.575 C91.252,1.393 91.0315,1.302 90.7725,1.302 C90.5065,1.302 90.2825,1.393 90.1005,1.575 C89.9185,1.757 89.8275,1.9775 89.8275,2.2365 L89.8275,3.801 L91.707,3.801 Z" id="Shape"></path>
                <path d="M93.723,0.0525 L97.188,0.0525 C97.286,0.0525 97.335,0.098 97.335,0.189 L97.335,1.155 C97.335,1.253 97.286,1.302 97.188,1.302 L96.0855,1.302 L96.0855,7.4025 C96.0855,7.4375 96.0715,7.47075 96.0435,7.50225 C96.0155,7.53375 95.9805,7.5495 95.9385,7.5495 L94.9725,7.5495 C94.9375,7.5495 94.906,7.53375 94.878,7.50225 C94.85,7.47075 94.836,7.4375 94.836,7.4025 L94.836,1.302 L93.723,1.302 C93.632,1.302 93.5865,1.253 93.5865,1.155 L93.5865,0.189 C93.5865,0.098 93.632,0.0525 93.723,0.0525 Z" id="Path"></path>
                <path d="M98.007,7.5495 C97.909,7.5495 97.86,7.504 97.86,7.413 L97.86,0.1995 C97.86,0.1085 97.909,0.063 98.007,0.063 L98.9625,0.063 C99.0605,0.063 99.1095,0.1085 99.1095,0.1995 L99.1095,7.413 C99.1095,7.504 99.0605,7.5495 98.9625,7.5495 L98.007,7.5495 Z" id="Path"></path>
                <path d="M102.5535,0 C102.8965,0 103.22025,0.0665 103.52475,0.1995 C103.82925,0.3325 104.0935,0.5145 104.3175,0.7455 C104.5415,0.9765 104.72,1.24775 104.853,1.55925 C104.986,1.87075 105.0525,2.2015 105.0525,2.5515 C105.0525,2.9015 104.986,3.23225 104.853,3.54375 C104.72,3.85525 104.5415,4.1265 104.3175,4.3575 C104.0935,4.5885 103.82925,4.7705 103.52475,4.9035 C103.22025,5.0365 102.8965,5.103 102.5535,5.103 C102.2105,5.103 101.88675,5.0365 101.58225,4.9035 C101.27775,4.7705 101.0135,4.5885 100.7895,4.3575 C100.5655,4.1265 100.387,3.85525 100.254,3.54375 C100.121,3.23225 100.0545,2.9015 100.0545,2.5515 C100.0545,2.2015 100.121,1.87075 100.254,1.55925 C100.387,1.24775 100.5655,0.9765 100.7895,0.7455 C101.0135,0.5145 101.27775,0.3325 101.58225,0.1995 C101.88675,0.0665 102.2105,0 102.5535,0 Z M102.5535,3.801 C102.7285,3.801 102.89125,3.76775 103.04175,3.70125 C103.19225,3.63475 103.3235,3.5455 103.4355,3.4335 C103.5475,3.3215 103.63675,3.19025 103.70325,3.03975 C103.76975,2.88925 103.803,2.7265 103.803,2.5515 C103.803,2.3765 103.76975,2.21375 103.70325,2.06325 C103.63675,1.91275 103.5475,1.7815 103.4355,1.6695 C103.3235,1.5575 103.19225,1.46825 103.04175,1.40175 C102.89125,1.33525 102.7285,1.302 102.5535,1.302 C102.3785,1.302 102.21575,1.33525 102.06525,1.40175 C101.91475,1.46825 101.7835,1.5575 101.6715,1.6695 C101.5595,1.7815 101.47025,1.91275 101.40375,2.06325 C101.33725,2.21375 101.304,2.3765 101.304,2.5515 C101.304,2.7265 101.33725,2.88925 101.40375,3.03975 C101.47025,3.19025 101.5595,3.3215 101.6715,3.4335 C101.7835,3.5455 101.91475,3.63475 102.06525,3.70125 C102.21575,3.76775 102.3785,3.801 102.5535,3.801 Z M104.5275,7.5495 L100.5795,7.5495 C100.4815,7.5495 100.4325,7.5005 100.4325,7.4025 L100.4325,6.447 C100.4325,6.349 100.4815,6.3 100.5795,6.3 L104.5275,6.3 C104.6255,6.3 104.6745,6.349 104.6745,6.447 L104.6745,7.4025 C104.6745,7.5005 104.6255,7.5495 104.5275,7.5495 Z" id="Shape"></path>
                <path d="M106.1445,0.063 L107.1105,0.063 C107.1945,0.063 107.275,0.0945 107.352,0.1575 L109.1265,2.0055 L109.1265,0.1995 C109.1265,0.1085 109.172,0.063 109.263,0.063 L110.229,0.063 C110.327,0.063 110.376,0.1085 110.376,0.1995 L110.376,7.413 C110.376,7.504 110.327,7.5495 110.229,7.5495 L109.263,7.5495 C109.172,7.5495 109.1265,7.504 109.1265,7.413 L109.1265,3.8115 L107.247,1.8585 L107.247,7.413 C107.247,7.504 107.2015,7.5495 107.1105,7.5495 L106.1445,7.5495 C106.0465,7.5495 105.9975,7.504 105.9975,7.413 L105.9975,0.1995 C105.9975,0.1085 106.0465,0.063 106.1445,0.063 Z" id="Path"></path>
            </g>
        </g>
    </g>
</svg>