<?xml version="1.0" encoding="UTF-8"?>
<svg width="38px" height="22px" viewBox="0 0 38 22" version="1.1" xmlns="http://www.w3.org/2000/svg" xmlns:xlink="http://www.w3.org/1999/xlink">
    <title>ica_header</title>
    <g id="ica_header" stroke="none" stroke-width="1" fill="none" fill-rule="evenodd">
        <g id="Group-3">
            <g id="ICA" fill="#2E5DF4" fill-rule="nonzero">
                <path d="M0.42,22 C0.14,22 0,21.8664799 0,21.5994398 L0,0.431372549 C0,0.1643324 0.14,0.0308123249 0.42,0.0308123249 L3.15,0.0308123249 C3.43,0.0308123249 3.57,0.1643324 3.57,0.431372549 L3.57,21.5994398 C3.57,21.8664799 3.43,22 3.15,22 L0.42,22 Z" id="Path"></path>
                <path d="M18.18,0.0924369748 C18.46,0.133520075 18.6,0.287581699 18.6,0.554621849 L18.6,3.45098039 C18.6,3.57422969 18.56,3.67180205 18.48,3.74369748 C18.4,3.8155929 18.31,3.83099907 18.21,3.78991597 C17.99,3.74883287 17.76,3.71802054 17.52,3.69747899 C17.28,3.67693744 17.04,3.66666667 16.8,3.66666667 C15.82,3.66666667 14.9,3.856676 14.04,4.23669468 C13.18,4.61671335 12.425,5.14052288 11.775,5.80812325 C11.125,6.47572362 10.615,7.25630252 10.245,8.14985994 C9.875,9.04341737 9.69,9.99346405 9.69,11 C9.69,12.0065359 9.875,12.9565826 10.245,13.8501401 C10.615,14.7436975 11.125,15.519141 11.775,16.1764706 C12.425,16.8338002 13.18,17.3576097 14.04,17.7478992 C14.9,18.1381886 15.82,18.3333333 16.8,18.3333333 C17.24,18.3333333 17.71,18.2819795 18.21,18.1792717 C18.47,18.1381886 18.6,18.2511671 18.6,18.5182073 L18.6,21.4145658 C18.6,21.5172736 18.56,21.6199813 18.48,21.7226891 C18.4,21.8253968 18.3,21.8870215 18.18,21.907563 C17.96,21.9281046 17.735,21.9486461 17.505,21.9691877 C17.275,21.9897292 17.04,22 16.8,22 C15.32,22 13.93,21.7124183 12.63,21.1372549 C11.33,20.5620915 10.2,19.7763772 9.24,18.780112 C8.28,17.7838469 7.52,16.6181139 6.96,15.2829132 C6.4,13.9477124 6.12,12.5200747 6.12,11 C6.12,9.4799253 6.4,8.05228758 6.96,6.71708683 C7.52,5.38188609 8.28,4.21615313 9.24,3.21988796 C10.2,2.22362278 11.33,1.4379085 12.63,0.862745098 C13.93,0.287581699 15.32,0 16.8,0 C17.26,0 17.72,0.0308123249 18.18,0.0924369748 Z" id="Path"></path>
                <path d="M24.78,22 L22.02,22 C21.9,22 21.8,21.9537815 21.72,21.8613445 C21.64,21.7689076 21.6,21.6713352 21.6,21.5686275 L21.6,6.40896359 C21.6,5.52567694 21.765,4.69374416 22.095,3.91316527 C22.425,3.13258637 22.875,2.45471522 23.445,1.87955182 C24.015,1.30438842 24.68,0.847338936 25.44,0.508403361 C26.2,0.169467787 27.01,0 27.87,0 C28.73,0 29.54,0.169467787 30.3,0.508403361 C31.06,0.847338936 31.72,1.30438842 32.28,1.87955182 C32.84,2.45471522 33.285,3.13258637 33.615,3.91316527 C33.945,4.69374416 34.11,5.52567694 34.11,6.40896359 L34.11,21.5686275 C34.11,21.6713352 34.07,21.7689076 33.99,21.8613445 C33.91,21.9537815 33.81,22 33.69,22 L30.93,22 C30.83,22 30.74,21.9537815 30.66,21.8613445 C30.58,21.7689076 30.54,21.6713352 30.54,21.5686275 L30.54,14.6666667 L25.17,14.6666667 L25.17,21.5686275 C25.17,21.6713352 25.13,21.7689076 25.05,21.8613445 C24.97,21.9537815 24.88,22 24.78,22 Z M30.54,11 L30.54,6.40896359 C30.54,5.64892624 30.28,5.00186741 29.76,4.46778711 C29.24,3.93370682 28.61,3.66666667 27.87,3.66666667 C27.11,3.66666667 26.47,3.93370682 25.95,4.46778711 C25.43,5.00186741 25.17,5.64892624 25.17,6.40896359 L25.17,11 L30.54,11 Z" id="Shape"></path>
            </g>
            <rect id="Rectangle" fill="#FFB75D" x="25" y="10.7021475" width="13" height="4.10830999"></rect>
        </g>
    </g>
</svg>