<?xml version="1.0" encoding="utf-8"?>
<!-- Generator: Adobe Illustrator 24.1.1, SVG Export Plug-In . SVG Version: 6.00 Build 0)  -->
<svg version="1.1" id="Capa_1" xmlns="http://www.w3.org/2000/svg" xmlns:xlink="http://www.w3.org/1999/xlink" x="0px" y="0px"
	 viewBox="0 0 529.31 159.31" style="enable-background:new 0 0 529.31 159.31;" xml:space="preserve">
<style type="text/css">
	.st0{fill:#BE1E2D;}
	.st1{fill:#22B573;}
	.st2{fill:#808080;}
	.st3{fill:#254083;}
</style>
<g>
	<g>
		<path class="st2" d="M91.45,158.08c0,0.14-0.04,0.26-0.12,0.38c-0.08,0.11-0.22,0.2-0.42,0.27c-0.2,0.07-0.47,0.13-0.8,0.17
			c-0.33,0.04-0.76,0.06-1.27,0.06c-0.5,0-0.92-0.02-1.25-0.06c-0.33-0.04-0.6-0.1-0.79-0.17c-0.19-0.07-0.33-0.16-0.42-0.27
			c-0.08-0.11-0.13-0.24-0.13-0.38v-21.97h-0.04l-7.82,21.95c-0.06,0.18-0.15,0.33-0.27,0.45c-0.13,0.12-0.3,0.21-0.51,0.28
			c-0.22,0.07-0.49,0.11-0.82,0.14c-0.33,0.02-0.74,0.03-1.21,0.03s-0.88-0.02-1.21-0.05c-0.33-0.04-0.61-0.09-0.82-0.17
			s-0.39-0.17-0.51-0.28c-0.12-0.11-0.21-0.24-0.25-0.4l-7.55-21.95h-0.04v21.97c0,0.14-0.04,0.26-0.11,0.38
			c-0.08,0.11-0.22,0.2-0.43,0.27c-0.21,0.07-0.48,0.13-0.8,0.17c-0.33,0.04-0.75,0.06-1.26,0.06c-0.5,0-0.92-0.02-1.25-0.06
			c-0.33-0.04-0.6-0.1-0.8-0.17c-0.2-0.07-0.34-0.16-0.42-0.27c-0.08-0.11-0.12-0.24-0.12-0.38v-24.06c0-0.71,0.19-1.25,0.56-1.63
			c0.38-0.37,0.88-0.56,1.5-0.56h3.59c0.64,0,1.19,0.05,1.65,0.16c0.46,0.1,0.86,0.28,1.19,0.52c0.33,0.24,0.61,0.56,0.83,0.96
			c0.22,0.4,0.42,0.89,0.58,1.47l5.84,16.09h0.08l6.05-16.04c0.18-0.58,0.38-1.08,0.59-1.48c0.22-0.4,0.47-0.73,0.75-0.98
			c0.28-0.25,0.62-0.43,1.01-0.53c0.39-0.1,0.84-0.16,1.36-0.16h3.69c0.38,0,0.7,0.05,0.97,0.15c0.27,0.1,0.49,0.24,0.67,0.43
			c0.17,0.19,0.31,0.42,0.4,0.69c0.09,0.27,0.14,0.58,0.14,0.93V158.08z"/>
		<path class="st2" d="M129.31,145.02c0,2.24-0.28,4.24-0.83,6.01c-0.56,1.77-1.38,3.26-2.48,4.5c-1.1,1.23-2.46,2.17-4.08,2.82
			c-1.62,0.65-3.49,0.97-5.62,0.97c-2.1,0-3.93-0.28-5.5-0.82c-1.56-0.55-2.87-1.39-3.91-2.51c-1.04-1.13-1.83-2.56-2.35-4.3
			c-0.52-1.74-0.78-3.8-0.78-6.18c0-2.18,0.28-4.15,0.83-5.89s1.38-3.23,2.48-4.45c1.1-1.22,2.46-2.16,4.08-2.82s3.5-0.98,5.64-0.98
			c2.05,0,3.85,0.27,5.41,0.81c1.56,0.54,2.87,1.38,3.92,2.5c1.05,1.13,1.84,2.55,2.38,4.27
			C129.04,140.66,129.31,142.68,129.31,145.02z M123.55,145.31c0-1.42-0.11-2.71-0.33-3.87c-0.22-1.16-0.6-2.16-1.14-2.98
			c-0.54-0.83-1.25-1.47-2.14-1.92c-0.89-0.45-2-0.68-3.34-0.68c-1.35,0-2.48,0.25-3.38,0.76c-0.9,0.51-1.63,1.19-2.19,2.03
			c-0.56,0.85-0.95,1.84-1.18,2.97c-0.23,1.13-0.34,2.33-0.34,3.6c0,1.47,0.11,2.8,0.33,3.97c0.22,1.17,0.6,2.18,1.13,3.01
			c0.53,0.84,1.24,1.47,2.13,1.91c0.89,0.44,2.01,0.66,3.36,0.66c1.35,0,2.48-0.25,3.38-0.75c0.9-0.5,1.63-1.18,2.19-2.04
			c0.56-0.86,0.95-1.87,1.18-3.02C123.43,147.82,123.55,146.6,123.55,145.31z"/>
		<path class="st2" d="M164.04,144.94c0,2.48-0.32,4.59-0.97,6.35c-0.65,1.76-1.58,3.2-2.79,4.31c-1.21,1.11-2.68,1.93-4.41,2.45
			c-1.73,0.52-3.79,0.78-6.19,0.78h-6.45c-0.46,0-0.85-0.14-1.16-0.41c-0.31-0.27-0.47-0.71-0.47-1.33v-23.53
			c0-0.61,0.16-1.05,0.47-1.32c0.31-0.27,0.7-0.41,1.16-0.41h6.93c2.41,0,4.45,0.28,6.12,0.84c1.68,0.56,3.09,1.4,4.24,2.5
			c1.15,1.11,2.02,2.47,2.62,4.1C163.74,140.91,164.04,142.79,164.04,144.94z M158.36,145.12c0-1.28-0.15-2.47-0.45-3.57
			c-0.3-1.1-0.78-2.05-1.44-2.86c-0.66-0.81-1.51-1.44-2.55-1.89c-1.04-0.45-2.4-0.68-4.08-0.68h-2.77v18.36h2.86
			c1.5,0,2.77-0.19,3.8-0.58c1.03-0.39,1.89-0.98,2.58-1.76c0.69-0.79,1.2-1.76,1.54-2.93S158.36,146.68,158.36,145.12z"/>
		<path class="st2" d="M192.24,156.68c0,0.4-0.02,0.74-0.05,1.01s-0.09,0.49-0.16,0.66c-0.07,0.17-0.16,0.29-0.26,0.37
			c-0.1,0.08-0.22,0.11-0.34,0.11h-13.56c-0.46,0-0.85-0.14-1.16-0.41s-0.47-0.71-0.47-1.33v-23.53c0-0.61,0.16-1.05,0.47-1.32
			s0.7-0.41,1.16-0.41h13.48c0.12,0,0.24,0.03,0.33,0.1c0.1,0.07,0.18,0.19,0.25,0.37c0.07,0.17,0.12,0.4,0.16,0.67
			c0.03,0.27,0.05,0.61,0.05,1.03c0,0.39-0.02,0.72-0.05,0.99c-0.04,0.27-0.09,0.49-0.16,0.66c-0.07,0.17-0.15,0.29-0.25,0.37
			c-0.1,0.08-0.21,0.11-0.33,0.11h-9.64v6.59h8.16c0.13,0,0.24,0.04,0.34,0.11c0.1,0.08,0.19,0.19,0.26,0.36
			c0.07,0.16,0.12,0.37,0.16,0.65s0.05,0.6,0.05,0.99c0,0.4-0.02,0.74-0.05,1c-0.03,0.26-0.09,0.48-0.16,0.64
			c-0.07,0.16-0.16,0.28-0.26,0.34c-0.1,0.07-0.22,0.1-0.34,0.1h-8.16v7.61h9.72c0.12,0,0.24,0.04,0.34,0.12
			c0.1,0.08,0.19,0.2,0.26,0.37c0.07,0.17,0.12,0.39,0.16,0.66C192.22,155.94,192.24,156.28,192.24,156.68z"/>
		<path class="st2" d="M219.6,156.54c0,0.42-0.02,0.77-0.05,1.05c-0.03,0.29-0.09,0.52-0.16,0.71c-0.07,0.19-0.16,0.32-0.26,0.41
			c-0.1,0.08-0.23,0.13-0.37,0.13h-12.37c-0.46,0-0.85-0.14-1.16-0.41c-0.31-0.27-0.47-0.71-0.47-1.33v-24.51
			c0-0.14,0.05-0.26,0.14-0.38c0.09-0.11,0.24-0.2,0.45-0.27c0.21-0.07,0.49-0.12,0.84-0.17c0.35-0.04,0.8-0.06,1.33-0.06
			c0.54,0,0.99,0.02,1.33,0.06c0.35,0.04,0.63,0.1,0.83,0.17c0.21,0.07,0.36,0.16,0.45,0.27c0.09,0.11,0.14,0.24,0.14,0.38v21.72
			h8.49c0.14,0,0.26,0.04,0.37,0.11c0.1,0.08,0.19,0.2,0.26,0.38c0.07,0.17,0.12,0.4,0.16,0.69
			C219.58,155.77,219.6,156.12,219.6,156.54z"/>
		<path class="st2" d="M267.91,158.12c0,0.15-0.03,0.28-0.08,0.39c-0.06,0.1-0.19,0.19-0.4,0.26c-0.21,0.07-0.51,0.12-0.92,0.15
			c-0.4,0.03-0.95,0.04-1.65,0.04c-0.58,0-1.05-0.01-1.4-0.04c-0.35-0.03-0.62-0.08-0.82-0.16c-0.2-0.08-0.34-0.17-0.43-0.29
			c-0.08-0.12-0.15-0.26-0.21-0.43l-2.42-6.03c-0.29-0.68-0.58-1.29-0.86-1.82c-0.28-0.53-0.59-0.97-0.93-1.33
			c-0.34-0.35-0.73-0.62-1.18-0.8c-0.44-0.18-0.96-0.27-1.54-0.27h-1.71v10.29c0,0.14-0.05,0.26-0.14,0.38
			c-0.09,0.11-0.24,0.2-0.45,0.27c-0.21,0.07-0.49,0.13-0.83,0.17c-0.35,0.04-0.79,0.06-1.34,0.06c-0.53,0-0.97-0.02-1.32-0.06
			c-0.35-0.04-0.64-0.1-0.84-0.17c-0.21-0.07-0.35-0.16-0.44-0.27c-0.08-0.11-0.13-0.24-0.13-0.38v-24.51
			c0-0.61,0.16-1.05,0.47-1.32c0.31-0.27,0.7-0.41,1.16-0.41h6.99c0.71,0,1.29,0.01,1.75,0.04c0.46,0.03,0.88,0.06,1.25,0.1
			c1.09,0.15,2.06,0.42,2.93,0.79c0.87,0.37,1.61,0.87,2.21,1.47c0.61,0.61,1.07,1.32,1.39,2.15c0.32,0.83,0.48,1.78,0.48,2.85
			c0,0.9-0.12,1.73-0.34,2.47c-0.23,0.74-0.57,1.41-1.01,1.99c-0.45,0.58-1,1.09-1.65,1.52c-0.65,0.43-1.4,0.78-2.23,1.04
			c0.4,0.19,0.78,0.43,1.14,0.71c0.35,0.28,0.69,0.62,1,1.01c0.31,0.4,0.61,0.85,0.89,1.36c0.28,0.51,0.55,1.08,0.81,1.72l2.27,5.32
			c0.21,0.53,0.35,0.91,0.42,1.16C267.87,157.79,267.91,157.98,267.91,158.12z M260.83,139.8c0-0.89-0.2-1.64-0.61-2.25
			c-0.4-0.61-1.06-1.04-1.98-1.29c-0.28-0.07-0.59-0.13-0.95-0.17c-0.35-0.04-0.84-0.06-1.47-0.06h-2.46v7.66h2.8
			c0.78,0,1.46-0.09,2.04-0.28s1.07-0.45,1.46-0.79c0.39-0.34,0.68-0.75,0.88-1.22C260.74,140.92,260.83,140.39,260.83,139.8z"/>
		<path class="st2" d="M295.63,156.68c0,0.4-0.02,0.74-0.05,1.01s-0.09,0.49-0.16,0.66c-0.07,0.17-0.16,0.29-0.26,0.37
			c-0.1,0.08-0.22,0.11-0.34,0.11h-13.56c-0.46,0-0.85-0.14-1.16-0.41s-0.47-0.71-0.47-1.33v-23.53c0-0.61,0.16-1.05,0.47-1.32
			s0.7-0.41,1.16-0.41h13.48c0.12,0,0.24,0.03,0.33,0.1c0.1,0.07,0.18,0.19,0.25,0.37c0.07,0.17,0.12,0.4,0.16,0.67
			c0.03,0.27,0.05,0.61,0.05,1.03c0,0.39-0.02,0.72-0.05,0.99c-0.04,0.27-0.09,0.49-0.16,0.66c-0.07,0.17-0.15,0.29-0.25,0.37
			s-0.21,0.11-0.33,0.11h-9.64v6.59h8.16c0.13,0,0.24,0.04,0.34,0.11c0.1,0.08,0.19,0.19,0.26,0.36c0.07,0.16,0.12,0.37,0.16,0.65
			c0.03,0.27,0.05,0.6,0.05,0.99c0,0.4-0.02,0.74-0.05,1c-0.03,0.26-0.09,0.48-0.16,0.64c-0.07,0.16-0.16,0.28-0.26,0.34
			c-0.1,0.07-0.22,0.1-0.34,0.1h-8.16v7.61h9.72c0.12,0,0.24,0.04,0.34,0.12c0.1,0.08,0.19,0.2,0.26,0.37
			c0.07,0.17,0.12,0.39,0.16,0.66C295.61,155.94,295.63,156.28,295.63,156.68z"/>
		<path class="st2" d="M326.64,140.03c0,1.52-0.24,2.86-0.71,4.03c-0.47,1.17-1.16,2.15-2.07,2.95c-0.9,0.8-2.01,1.41-3.33,1.83
			c-1.31,0.42-2.86,0.63-4.64,0.63h-2.25v8.62c0,0.14-0.05,0.26-0.14,0.38c-0.09,0.11-0.24,0.2-0.45,0.27
			c-0.21,0.07-0.49,0.13-0.83,0.17c-0.35,0.04-0.79,0.06-1.34,0.06c-0.53,0-0.97-0.02-1.32-0.06c-0.35-0.04-0.64-0.1-0.84-0.17
			c-0.21-0.07-0.35-0.16-0.44-0.27c-0.08-0.11-0.13-0.24-0.13-0.38v-24.28c0-0.65,0.17-1.14,0.51-1.47
			c0.34-0.33,0.79-0.49,1.35-0.49h6.36c0.64,0,1.25,0.02,1.83,0.07c0.58,0.05,1.27,0.15,2.08,0.31s1.62,0.46,2.45,0.89
			c0.83,0.43,1.53,0.98,2.12,1.64c0.58,0.66,1.03,1.43,1.34,2.32C326.49,137.94,326.64,138.93,326.64,140.03z M320.9,140.43
			c0-0.95-0.17-1.72-0.5-2.34c-0.33-0.61-0.74-1.06-1.23-1.36s-1-0.48-1.53-0.55c-0.54-0.08-1.09-0.11-1.66-0.11h-2.34v9.16h2.46
			c0.88,0,1.61-0.12,2.2-0.36c0.59-0.24,1.07-0.57,1.45-0.99c0.38-0.42,0.66-0.93,0.86-1.52
			C320.81,141.77,320.9,141.12,320.9,140.43z"/>
		<path class="st2" d="M353.42,156.54c0,0.42-0.02,0.77-0.05,1.05c-0.03,0.29-0.09,0.52-0.16,0.71c-0.07,0.19-0.16,0.32-0.26,0.41
			c-0.1,0.08-0.23,0.13-0.37,0.13h-12.37c-0.46,0-0.85-0.14-1.16-0.41c-0.31-0.27-0.47-0.71-0.47-1.33v-24.51
			c0-0.14,0.05-0.26,0.14-0.38c0.09-0.11,0.24-0.2,0.45-0.27c0.21-0.07,0.49-0.12,0.84-0.17c0.35-0.04,0.8-0.06,1.33-0.06
			c0.54,0,0.99,0.02,1.33,0.06c0.35,0.04,0.63,0.1,0.83,0.17c0.21,0.07,0.36,0.16,0.45,0.27c0.09,0.11,0.14,0.24,0.14,0.38v21.72
			h8.49c0.14,0,0.26,0.04,0.37,0.11c0.1,0.08,0.19,0.2,0.26,0.38c0.07,0.17,0.12,0.4,0.16,0.69
			C353.41,155.77,353.42,156.12,353.42,156.54z"/>
		<path class="st2" d="M369.86,158.08c0,0.14-0.05,0.26-0.14,0.38c-0.09,0.11-0.24,0.2-0.45,0.27c-0.21,0.07-0.49,0.13-0.83,0.17
			c-0.35,0.04-0.79,0.06-1.33,0.06c-0.53,0-0.97-0.02-1.33-0.06c-0.35-0.04-0.64-0.1-0.84-0.17c-0.21-0.07-0.36-0.16-0.45-0.27
			c-0.09-0.11-0.14-0.24-0.14-0.38v-25.49c0-0.14,0.05-0.26,0.14-0.38c0.09-0.11,0.24-0.2,0.46-0.27c0.22-0.07,0.5-0.12,0.84-0.17
			c0.35-0.04,0.79-0.06,1.31-0.06c0.54,0,0.99,0.02,1.33,0.06c0.35,0.04,0.63,0.1,0.83,0.17c0.21,0.07,0.36,0.16,0.45,0.27
			c0.09,0.11,0.14,0.24,0.14,0.38V158.08z"/>
		<path class="st2" d="M402.1,154.74c0,0.35-0.01,0.64-0.03,0.89c-0.02,0.24-0.05,0.45-0.09,0.63c-0.04,0.17-0.1,0.32-0.17,0.45
			c-0.07,0.13-0.18,0.27-0.33,0.43c-0.15,0.16-0.45,0.37-0.89,0.62c-0.44,0.25-0.97,0.49-1.61,0.72c-0.63,0.23-1.36,0.42-2.17,0.57
			c-0.81,0.15-1.69,0.23-2.64,0.23c-1.85,0-3.52-0.28-5.01-0.86c-1.49-0.57-2.75-1.42-3.8-2.56c-1.04-1.13-1.84-2.55-2.4-4.25
			c-0.56-1.7-0.83-3.67-0.83-5.92c0-2.3,0.31-4.33,0.92-6.11c0.61-1.78,1.47-3.28,2.57-4.49s2.42-2.13,3.95-2.75
			c1.54-0.63,3.23-0.94,5.08-0.94c0.75,0,1.47,0.06,2.17,0.19c0.7,0.13,1.34,0.29,1.93,0.49c0.59,0.2,1.12,0.43,1.6,0.7
			c0.47,0.26,0.8,0.49,0.99,0.68s0.32,0.34,0.39,0.47c0.07,0.12,0.13,0.28,0.17,0.48c0.04,0.19,0.07,0.42,0.09,0.69
			c0.02,0.26,0.03,0.59,0.03,0.98c0,0.42-0.01,0.77-0.04,1.06c-0.03,0.29-0.08,0.53-0.15,0.71c-0.07,0.18-0.15,0.31-0.25,0.4
			c-0.1,0.08-0.21,0.13-0.33,0.13c-0.21,0-0.47-0.12-0.79-0.37c-0.32-0.24-0.73-0.51-1.24-0.81c-0.51-0.3-1.11-0.57-1.82-0.81
			c-0.7-0.24-1.54-0.37-2.51-0.37c-1.07,0-2.03,0.22-2.87,0.66c-0.84,0.44-1.56,1.06-2.15,1.88c-0.59,0.81-1.04,1.8-1.35,2.95
			c-0.31,1.15-0.46,2.46-0.46,3.9c0,1.58,0.16,2.96,0.49,4.12c0.33,1.16,0.79,2.12,1.4,2.87c0.61,0.75,1.33,1.31,2.19,1.68
			c0.86,0.37,1.82,0.55,2.89,0.55c0.97,0,1.82-0.11,2.52-0.34c0.71-0.23,1.32-0.48,1.83-0.76c0.51-0.28,0.92-0.53,1.25-0.75
			c0.33-0.22,0.58-0.33,0.76-0.33c0.14,0,0.25,0.03,0.33,0.08c0.08,0.06,0.15,0.17,0.21,0.33c0.06,0.17,0.1,0.4,0.13,0.7
			C402.09,153.84,402.1,154.24,402.1,154.74z"/>
		<path class="st2" d="M435.85,156.78c0.17,0.5,0.27,0.9,0.31,1.19c0.04,0.29-0.01,0.51-0.17,0.66c-0.15,0.15-0.42,0.24-0.81,0.27
			c-0.39,0.03-0.93,0.05-1.61,0.05c-0.71,0-1.26-0.01-1.66-0.03c-0.4-0.02-0.7-0.06-0.91-0.13c-0.21-0.06-0.35-0.15-0.44-0.26
			c-0.08-0.11-0.15-0.26-0.21-0.44l-1.82-5.42h-10.14l-1.71,5.28c-0.06,0.19-0.13,0.36-0.22,0.49c-0.09,0.13-0.24,0.24-0.44,0.31
			c-0.2,0.08-0.49,0.13-0.86,0.16c-0.37,0.03-0.85,0.04-1.45,0.04c-0.64,0-1.14-0.02-1.5-0.06c-0.36-0.04-0.61-0.14-0.75-0.3
			c-0.14-0.16-0.19-0.39-0.15-0.68c0.04-0.29,0.15-0.68,0.31-1.17l8.32-23.95c0.08-0.24,0.18-0.43,0.29-0.57
			c0.11-0.15,0.29-0.26,0.53-0.33c0.24-0.08,0.58-0.13,1.01-0.15c0.43-0.02,1-0.03,1.71-0.03c0.82,0,1.47,0.01,1.96,0.03
			c0.49,0.02,0.87,0.07,1.14,0.15c0.27,0.08,0.47,0.19,0.58,0.34c0.12,0.15,0.22,0.36,0.3,0.63L435.85,156.78z M423.46,136.99h-0.02
			l-3.82,11.47h7.66L423.46,136.99z"/>
		<path class="st2" d="M463.32,150.73c0,1.42-0.26,2.66-0.79,3.73c-0.53,1.07-1.24,1.96-2.15,2.68c-0.9,0.72-1.96,1.26-3.17,1.62
			c-1.21,0.36-2.5,0.54-3.88,0.54c-0.93,0-1.8-0.08-2.6-0.23c-0.8-0.15-1.51-0.34-2.12-0.55c-0.61-0.22-1.12-0.44-1.53-0.68
			c-0.41-0.24-0.71-0.44-0.89-0.63c-0.18-0.18-0.31-0.44-0.39-0.78c-0.08-0.34-0.12-0.83-0.12-1.47c0-0.43,0.01-0.79,0.04-1.08
			c0.03-0.29,0.07-0.53,0.14-0.71c0.06-0.18,0.15-0.31,0.25-0.39c0.1-0.08,0.23-0.11,0.37-0.11c0.19,0,0.47,0.11,0.82,0.34
			c0.35,0.23,0.81,0.48,1.37,0.76c0.56,0.28,1.22,0.53,1.99,0.76c0.77,0.23,1.67,0.34,2.68,0.34c0.67,0,1.27-0.08,1.79-0.24
			c0.53-0.16,0.98-0.39,1.35-0.68c0.37-0.29,0.65-0.65,0.84-1.08c0.19-0.43,0.29-0.91,0.29-1.44c0-0.61-0.17-1.14-0.5-1.58
			c-0.33-0.44-0.77-0.83-1.3-1.17c-0.54-0.34-1.14-0.66-1.83-0.96c-0.68-0.3-1.38-0.62-2.11-0.95c-0.72-0.33-1.43-0.71-2.11-1.14
			c-0.68-0.42-1.29-0.93-1.83-1.52c-0.54-0.59-0.97-1.29-1.3-2.1c-0.33-0.81-0.5-1.77-0.5-2.9c0-1.29,0.24-2.43,0.72-3.41
			c0.48-0.98,1.13-1.79,1.94-2.44c0.81-0.65,1.77-1.13,2.88-1.45c1.11-0.32,2.28-0.48,3.52-0.48c0.64,0,1.28,0.05,1.92,0.14
			c0.64,0.1,1.24,0.23,1.79,0.4c0.56,0.17,1.05,0.35,1.48,0.56c0.43,0.21,0.72,0.38,0.86,0.52c0.14,0.14,0.23,0.26,0.28,0.36
			c0.05,0.1,0.09,0.23,0.13,0.39c0.03,0.16,0.06,0.36,0.07,0.61c0.01,0.24,0.02,0.55,0.02,0.91c0,0.4-0.01,0.75-0.03,1.02
			c-0.02,0.28-0.06,0.51-0.1,0.69c-0.05,0.18-0.12,0.31-0.21,0.4c-0.09,0.08-0.21,0.13-0.37,0.13c-0.15,0-0.4-0.1-0.73-0.29
			c-0.33-0.19-0.74-0.41-1.23-0.64c-0.49-0.23-1.05-0.44-1.69-0.63c-0.64-0.19-1.34-0.28-2.11-0.28c-0.6,0-1.12,0.07-1.56,0.22
			c-0.44,0.15-0.82,0.35-1.12,0.61c-0.3,0.26-0.52,0.57-0.67,0.93c-0.15,0.36-0.22,0.74-0.22,1.15c0,0.6,0.16,1.12,0.49,1.55
			c0.33,0.44,0.77,0.83,1.31,1.17c0.55,0.34,1.17,0.66,1.87,0.96c0.7,0.3,1.4,0.62,2.13,0.95c0.72,0.33,1.43,0.71,2.13,1.14
			c0.7,0.42,1.31,0.93,1.86,1.52c0.54,0.59,0.98,1.29,1.31,2.09S463.32,149.65,463.32,150.73z"/>
	</g>
	<path class="st3" d="M78.32,64.49l12.15-22.72c6.02-11.12,10.81-20.39,14.38-27.8c0.95-1.98,1.72-3.31,2.28-3.96
		c0.57-0.65,1.26-0.98,2.08-0.98c0.77,0,1.45,0.26,2.05,0.78c0.59,0.52,0.89,1.14,0.89,1.87c0,0.77-0.47,1.99-1.43,3.67
		c-0.23,0.41-0.45,0.79-0.68,1.15c-0.45,0.73-1.04,1.74-1.77,3.06l-50.23,90.62L0,10.32h47.61L78.32,64.49z M156.84,7.53
		c7.16,0,14.06,1.52,20.72,4.55c9.78,4.48,17.25,11.39,22.42,20.72c4.12,7.47,6.18,15.6,6.18,24.39c0,7.06-1.56,13.9-4.69,20.51
		c-4.66,9.87-11.93,17.37-21.81,22.48c-7.25,3.76-14.85,5.64-22.82,5.64c-8.42,0-16.39-2.13-23.91-6.38
		c-10.01-5.61-17.14-13.49-21.4-23.64c-2.63-6.2-3.94-12.61-3.94-19.22c0-8.29,2.06-16.19,6.18-23.71
		c5.07-9.24,12.48-16.14,22.21-20.72C142.46,9.12,149.42,7.58,156.84,7.53z M151.48,12.09l-0.41,44.22l0.34,36.75l0.07,8.29
		c1.54,0.27,3.01,0.41,4.42,0.41c10.01,0,18.95-2.76,26.83-8.29c7.2-5.07,12.41-11.59,15.62-19.56c2.26-5.57,3.4-11.34,3.4-17.32
		c0-7.88-1.9-15.22-5.71-22.01c-4.66-8.33-11.23-14.47-19.7-18.41c-6.34-2.99-13.02-4.48-20.04-4.48
		C154.67,11.68,153.06,11.81,151.48,12.09z M259.07,10.32l-0.27,14.2l-0.27,22.62l0.07,16.51l0.27,34.98l4.88,0.07l29.03-0.48
		l5.29-0.07c2.67,0,4,0.8,4,2.41c0,1.42-0.72,2.2-2.17,2.34c-0.32,0.05-1.36,0.09-3.12,0.14H217.3l0.2-25.81l0.14-15.83l0.14-17.93
		l-0.27-27.31l0.07-5.84H259.07z M361.3,64.49l12.15-22.72c6.02-11.12,10.81-20.39,14.38-27.8c0.95-1.98,1.72-3.31,2.28-3.96
		c0.57-0.65,1.26-0.98,2.08-0.98c0.77,0,1.45,0.26,2.05,0.78c0.59,0.52,0.89,1.14,0.89,1.87c0,0.77-0.47,1.99-1.43,3.67
		c-0.23,0.41-0.45,0.79-0.68,1.15c-0.45,0.73-1.04,1.74-1.77,3.06l-50.23,90.62l-58.04-99.85h47.61L361.3,64.49z M479.62,3.54
		l8.76,12.94l-11.44,7.74c-4.46-5.11-9.91-9.17-16.39-12.15c-6.66-3.03-13.56-4.55-20.72-4.55c-7.43,0.05-14.38,1.59-20.85,4.62
		c-9.74,4.57-17.14,11.48-22.21,20.72c-4.12,7.52-6.18,15.42-6.18,23.71c0,6.61,1.31,13.02,3.94,19.22
		c4.26,10.14,11.39,18.02,21.4,23.64c7.52,4.26,15.49,6.38,23.91,6.38c7.97,0,15.58-1.88,22.82-5.64
		c9.87-5.12,17.14-12.61,21.81-22.48c3.12-6.61,4.69-13.45,4.69-20.51c0-5.93-0.96-11.56-2.84-16.89l12.48-8.44l8.76,12.94L529.31,0
		L479.62,3.54z M481.33,73.9c-3.22,7.97-8.42,14.49-15.62,19.56c-7.88,5.53-16.82,8.29-26.83,8.29c-1.4,0-2.88-0.14-4.42-0.41
		l-0.07-8.29l-0.34-36.75l0.41-44.22c1.58-0.27,3.19-0.41,4.82-0.41c7.02,0,13.7,1.49,20.04,4.48c8.47,3.94,15.03,10.08,19.7,18.41
		c3.8,6.79,5.71,14.13,5.71,22.01C484.73,62.56,483.59,68.33,481.33,73.9z"/>
</g>
</svg>
